<svg width="15" height="12" viewBox="0 0 15 12" fill="none" xmlns="http://www.w3.org/2000/svg">
<path d="M2.29004 3.7998V8.2002C2.29004 8.3702 2.46994 8.5 2.68994 8.5C2.90994 8.5 3.08984 8.3702 3.08984 8.2002V3.5H2.29004V3.7998Z" fill="#919191"/>
<path d="M5.5 3.85938V9.13965C5.5 9.33965 5.6799 9.5 5.8999 9.5C6.1199 9.5 6.2998 9.33965 6.2998 9.13965V3.5H5.5V3.85938Z" fill="#919191"/>
<path d="M8.7002 3.91992V10.0801C8.7002 10.3101 8.8801 10.5 9.1001 10.5C9.3201 10.5 9.5 10.3101 9.5 10.0801V3.5H8.7002V3.91992Z" fill="#919191"/>
<path d="M11.9102 3.97949V11.0195C11.9102 11.2895 12.0901 11.5 12.3101 11.5C12.5301 11.5 12.71 11.2795 12.71 11.0195V3.5H11.9102V3.97949Z" fill="#919191"/>
<path d="M14.29 0H0.709961C0.317839 0 0 0.317839 0 0.709961V0.790039C0 1.18216 0.317839 1.5 0.709961 1.5H14.29C14.6822 1.5 15 1.18216 15 0.790039V0.709961C15 0.317839 14.6822 0 14.29 0Z" fill="#919191"/>
</svg>
