<svg width="15" height="15" viewBox="0 0 15 15" fill="none" xmlns="http://www.w3.org/2000/svg">
<path d="M9.2002 8.6748H3.04004C2.81004 8.6748 2.62012 8.8552 2.62012 9.0752C2.62012 9.2952 2.81004 9.47461 3.04004 9.47461H9.62012V8.6748H9.2002Z" fill="#919191"/>
<path d="M10.5903 12.4248H4.43018C4.20018 12.4248 4.01025 12.6052 4.01025 12.8252C4.01025 13.0452 4.20018 13.2246 4.43018 13.2246H11.0103V12.4248H10.5903Z" fill="#919191"/>
<path d="M7.91016 4.91504H1.75C1.52 4.91504 1.33008 5.09445 1.33008 5.31445C1.33008 5.53445 1.52 5.71484 1.75 5.71484H8.33008V4.91504H7.91016Z" fill="#919191"/>
<path d="M6.58008 1.45508H0.419922C0.189922 1.45508 0 1.63449 0 1.85449C0 2.07449 0.189922 2.25488 0.419922 2.25488H7V1.45508H6.58008Z" fill="#919191"/>
<path d="M9.96883 0.687259C9.83226 0.307926 9.4159 0.10996 9.03916 0.245593C8.66243 0.381226 8.4678 0.799162 8.60437 1.17849L13.2451 14.0687C13.3817 14.4481 13.7977 14.6451 14.1745 14.5095C14.5512 14.3739 14.7462 13.9568 14.6096 13.5775L9.96883 0.687259Z" fill="#919191"/>
</svg>
