<svg width="23" height="12" viewBox="0 0 23 12" fill="none" xmlns="http://www.w3.org/2000/svg">
<path d="M15.1707 12H15.8606C16.2006 12 16.4707 11.56 16.4707 11.02C16.4707 10.48 16.2006 10.05 15.8606 10.05H7.33057C6.99057 10.05 6.7207 10.49 6.7207 11.02C6.7207 11.55 6.99057 12 7.33057 12H15.1707Z" fill="#919191"/>
<path d="M18.4092 2.78996C18.2192 2.59996 17.9092 2.59996 17.7192 2.78996L14.9592 5.54997L14.6191 5.89006L14.9592 6.2299L15.2991 6.56999L15.6392 6.2299L17.8792 3.98991L18.3992 3.46989C18.5892 3.27989 18.5892 2.96995 18.3992 2.77995L18.4092 2.78996Z" fill="#919191"/>
<path d="M22.3999 8.32007H18.0098V9.30005H22.3999C22.6699 9.30005 22.8899 9.08006 22.8899 8.81006C22.8899 8.54006 22.6699 8.32007 22.3999 8.32007Z" fill="#919191"/>
<path d="M7.93034 5.54997L5.17033 2.78996C4.98033 2.59996 4.67039 2.59996 4.48039 2.78996C4.29039 2.97996 4.29039 3.2899 4.48039 3.4799L7.2404 6.23991L7.58024 6.58L8.27019 5.89006L7.93034 5.54997Z" fill="#919191"/>
<path d="M4.38989 8.32007H0.48999C0.21999 8.32007 0 8.54006 0 8.81006C0 9.08006 0.21999 9.30005 0.48999 9.30005H4.87988V8.32007H4.38989Z" fill="#919191"/>
<path d="M11.4509 0C11.1809 0 10.9609 0.21999 10.9609 0.48999V4.88013H11.9409V0.48999C11.9409 0.21999 11.7209 0 11.4509 0Z" fill="#919191"/>
</svg>
