<svg width="15" height="17" viewBox="0 0 15 17" fill="none" xmlns="http://www.w3.org/2000/svg">
<path d="M1.68994 8.52002H0C0 6.52002 0.779951 4.62997 2.19995 3.21997C3.61995 1.80997 5.5 1.02002 7.5 1.02002V0L9.6499 1.85986L7.5 3.71997V2.69995C4.29 2.69995 1.68994 5.31001 1.68994 8.51001" fill="#919191"/>
<path d="M14.0005 12.27C14.4405 12.52 14.8804 12.78 14.8804 12.78L12.1904 13.71L11.6504 10.9199L12.5305 11.4299C14.1305 8.64993 13.1804 5.08999 10.4004 3.48999L11.2405 2.03003C12.9705 3.03003 14.2205 4.64983 14.7305 6.57983C15.2505 8.50983 14.9805 10.54 13.9805 12.27" fill="#919191"/>
<path d="M10.4109 13.5598L11.251 15.02C9.52098 16.02 7.49103 16.29 5.56104 15.77C3.63104 15.25 2.01099 14.01 1.01099 12.28C0.570986 12.53 0.130859 12.79 0.130859 12.79L0.670898 10L3.36084 10.9299L2.48096 11.4399C4.08096 14.2199 7.6409 15.1698 10.4209 13.5698" fill="#919191"/>
</svg>
