<svg width="24" height="25" viewBox="0 0 24 25" fill="none" xmlns="http://www.w3.org/2000/svg">
<path d="M12.1902 24.6599H2.59009C1.16009 24.6599 0 23.4998 0 22.0698V12.47C0 11.04 1.16009 9.87988 2.59009 9.87988H12.1902C13.6202 9.87988 14.78 11.04 14.78 12.47V22.0698C14.78 23.4998 13.6202 24.6599 12.1902 24.6599ZM2.59009 11.2998C1.94009 11.2998 1.42017 11.83 1.42017 12.47V22.0698C1.42017 22.7198 1.95009 23.24 2.59009 23.24H12.1902C12.8402 23.24 13.3601 22.7098 13.3601 22.0698V12.47C13.3601 11.82 12.8302 11.2998 12.1902 11.2998H2.59009Z" fill="#919191"/>
<path d="M14.5703 9.38989V4.94995H15.7205C16.1805 4.94995 16.5704 5.02995 16.8804 5.19995C17.1904 5.36995 17.4404 5.60994 17.6104 5.93994C17.7804 6.25994 17.8604 6.66991 17.8604 7.15991C17.8604 7.64991 17.7804 8.04988 17.6104 8.37988C17.4404 8.70988 17.2004 8.96989 16.8904 9.13989C16.5804 9.30989 16.2003 9.3999 15.7603 9.3999H14.5703V9.38989ZM15.2703 8.81982H15.6704C15.9904 8.81982 16.2505 8.75988 16.4705 8.62988C16.6905 8.50988 16.8504 8.31982 16.9604 8.06982C17.0704 7.81982 17.1304 7.5199 17.1304 7.1499C17.1304 6.7799 17.0704 6.47998 16.9604 6.22998C16.8504 5.97998 16.6905 5.80994 16.4705 5.68994C16.2505 5.56994 15.9804 5.51001 15.6704 5.51001H15.2703V8.7998V8.81982Z" fill="#919191"/>
<path d="M20.7896 14.7798H15.5796V13.3599H20.7896C21.4396 13.3599 21.9597 12.8299 21.9597 12.1899V2.58984C21.9597 1.93984 21.4296 1.41992 20.7896 1.41992H11.1897C10.5397 1.41992 10.0195 1.94984 10.0195 2.58984V9.25H8.59961V2.58984C8.59961 1.15984 9.7597 0 11.1897 0H20.7896C22.2196 0 23.3796 1.15984 23.3796 2.58984V12.1899C23.3796 13.6199 22.2196 14.7798 20.7896 14.7798Z" fill="#919191"/>
<path d="M5.56055 19.2698L7.03052 14.8298H7.84058L9.31055 19.2698H8.57056L7.85059 16.8599C7.78059 16.6199 7.71062 16.3799 7.64062 16.1299C7.57063 15.8799 7.50067 15.6399 7.44067 15.3899H7.42065C7.36065 15.6399 7.2907 15.8899 7.2207 16.1399C7.1507 16.3799 7.0805 16.6299 7.0105 16.8699L6.29053 19.2798H5.57056L5.56055 19.2698ZM6.39062 18.01V17.46H8.46069V18.01H6.39062Z" fill="#919191"/>
</svg>
