<svg width="18" height="15" viewBox="0 0 18 15" fill="none" xmlns="http://www.w3.org/2000/svg">
<path d="M7.03101 0.698486H2.44092C2.27092 0.698486 2.13086 0.838545 2.13086 1.00854C2.13086 1.17854 2.27092 1.3186 2.44092 1.3186H7.34106V0.688477H7.03101V0.698486Z" fill="#919191"/>
<path d="M4.8999 3.76855H0.310059C0.140059 3.76855 0 3.90837 0 4.07837C0 4.24837 0.140059 4.38843 0.310059 4.38843H5.20996V3.75854H4.8999V3.76855Z" fill="#919191"/>
<path d="M5.00928 6.83838H0.419189C0.249189 6.83838 0.109375 6.97844 0.109375 7.14844C0.109375 7.31844 0.249189 7.4585 0.419189 7.4585H5.31934V6.82837H5.00928V6.83838Z" fill="#919191"/>
<path d="M5.72998 9.89844H1.13989C0.969893 9.89844 0.830078 10.0385 0.830078 10.2085C0.830078 10.3785 0.969893 10.5186 1.13989 10.5186H6.04004V9.88843H5.72998V9.89844Z" fill="#919191"/>
<path d="M12.4291 9.75864C11.6291 9.75864 10.8192 9.55854 10.0792 9.14854C7.7192 7.84854 6.86904 4.86865 8.16904 2.51865C9.46904 0.158653 12.4492 -0.691503 14.7992 0.608496C17.1492 1.9085 18.0091 4.88862 16.7091 7.23862C15.8191 8.84862 14.1491 9.75864 12.4291 9.75864ZM12.4391 1.40855C11.2191 1.40855 10.029 2.05858 9.39902 3.19858C8.47902 4.86858 9.08913 6.97855 10.7591 7.90855C12.4291 8.82855 14.5391 8.22868 15.4691 6.54868C16.3891 4.87868 15.7892 2.76848 14.1092 1.83848C13.5792 1.54848 13.0091 1.40855 12.4391 1.40855Z" fill="#919191"/>
<path d="M10.7034 7.98708L10.6158 7.93866C10.0696 7.63677 9.38228 7.83477 9.08038 8.38098L7.07279 12.0132C6.77089 12.5594 6.9689 13.2468 7.5151 13.5487L7.60271 13.5971C8.14891 13.899 8.83627 13.701 9.13817 13.1548L11.1458 9.52254C11.4477 8.97633 11.2496 8.28898 10.7034 7.98708Z" fill="#919191"/>
</svg>
