<svg width="14" height="14" viewBox="0 0 14 14" fill="none" xmlns="http://www.w3.org/2000/svg">
<path d="M7 13.5C10.5899 13.5 13.5 10.5899 13.5 7C13.5 3.41015 10.5899 0.5 7 0.5C3.41015 0.5 0.5 3.41015 0.5 7C0.5 10.5899 3.41015 13.5 7 13.5Z" fill="url(#paint0_linear_1_164973)" stroke="white" stroke-miterlimit="10"/>
<path d="M6.37012 8.41992C6.32012 8.04992 6.33994 7.72018 6.43994 7.43018C6.53994 7.14018 6.6701 6.87037 6.8501 6.63037C7.0201 6.39037 7.19988 6.1602 7.37988 5.9502C7.55988 5.7402 7.7201 5.53031 7.8501 5.32031C7.9801 5.11031 8.05005 4.88014 8.05005 4.64014C8.05005 4.43014 8.00992 4.25033 7.91992 4.09033C7.83992 3.93033 7.71005 3.79996 7.55005 3.70996C7.39005 3.60996 7.18996 3.56006 6.95996 3.56006C6.69996 3.56006 6.45998 3.62023 6.22998 3.74023C5.99998 3.86023 5.80011 4.02998 5.61011 4.22998L4.88989 3.57031C5.15989 3.26031 5.49011 3.00029 5.86011 2.80029C6.23011 2.60029 6.65011 2.5 7.11011 2.5C7.57011 2.5 7.93001 2.58023 8.26001 2.74023C8.59001 2.90023 8.85003 3.13018 9.03003 3.43018C9.21003 3.73018 9.30005 4.10029 9.30005 4.55029C9.30005 4.87029 9.24011 5.16016 9.11011 5.41016C8.98011 5.67016 8.81988 5.90037 8.62988 6.13037C8.43988 6.36037 8.25007 6.58029 8.07007 6.80029C7.89007 7.02029 7.73988 7.27027 7.62988 7.53027C7.51988 7.79027 7.48002 8.08992 7.52002 8.41992H6.3999H6.37012ZM6.93994 11.1899C6.68994 11.1899 6.49008 11.1002 6.33008 10.9302C6.17008 10.7602 6.08008 10.5403 6.08008 10.2803C6.08008 10.0203 6.16008 9.80037 6.33008 9.63037C6.49008 9.46037 6.69994 9.38037 6.93994 9.38037C7.17994 9.38037 7.39006 9.46037 7.56006 9.63037C7.73006 9.80037 7.81006 10.0103 7.81006 10.2803C7.81006 10.5503 7.73006 10.7602 7.56006 10.9302C7.39006 11.1002 7.18994 11.1899 6.93994 11.1899Z" fill="white"/>
<defs>
<linearGradient id="paint0_linear_1_164973" x1="0.5" y1="7" x2="13.5" y2="7" gradientUnits="userSpaceOnUse">
<stop stop-color="#66258A"/>
<stop offset="1" stop-color="#3C4B9E"/>
</linearGradient>
</defs>
</svg>
