<svg xmlns="http://www.w3.org/2000/svg" width="14" height="14" viewBox="0 0 14 14" fill="none">
  <path d="M6.36963 8.41016C6.31963 8.04016 6.33994 7.70992 6.43994 7.41992C6.53994 7.12992 6.66961 6.86012 6.84961 6.62012C7.01961 6.38012 7.19988 6.15043 7.37988 5.94043C7.55988 5.73043 7.71961 5.52055 7.84961 5.31055C7.97961 5.10055 8.0498 4.86988 8.0498 4.62988C8.0498 4.41988 8.00992 4.24008 7.91992 4.08008C7.83992 3.92008 7.7098 3.7902 7.5498 3.7002C7.3898 3.6002 7.18996 3.55078 6.95996 3.55078C6.69996 3.55078 6.45998 3.61047 6.22998 3.73047C5.99998 3.85047 5.79986 4.0207 5.60986 4.2207L4.88965 3.56055C5.15965 3.25055 5.48986 2.99004 5.85986 2.79004C6.22986 2.59004 6.64986 2.49023 7.10986 2.49023C7.56986 2.49023 7.92977 2.57047 8.25977 2.73047C8.58977 2.89047 8.84979 3.11992 9.02979 3.41992C9.20978 3.71992 9.2998 4.09004 9.2998 4.54004C9.2998 4.86004 9.23986 5.15039 9.10986 5.40039C8.97986 5.66039 8.81988 5.89012 8.62988 6.12012C8.43988 6.35012 8.24982 6.57004 8.06982 6.79004C7.88982 7.01004 7.73988 7.26051 7.62988 7.52051C7.51988 7.78051 7.48002 8.08016 7.52002 8.41016H6.3999H6.36963ZM6.93994 11.1807C6.68994 11.1807 6.48959 11.0899 6.32959 10.9199C6.16959 10.7499 6.07959 10.5305 6.07959 10.2705C6.07959 10.0105 6.15959 9.79012 6.32959 9.62012C6.48959 9.45012 6.69994 9.37012 6.93994 9.37012C7.17994 9.37012 7.39006 9.45012 7.56006 9.62012C7.73006 9.79012 7.81006 10.0005 7.81006 10.2705C7.81006 10.5405 7.73006 10.7499 7.56006 10.9199C7.39006 11.0899 7.18994 11.1807 6.93994 11.1807Z" fill="white"/>
  <path d="M7 13.5C10.5899 13.5 13.5 10.5899 13.5 7C13.5 3.41015 10.5899 0.5 7 0.5C3.41015 0.5 0.5 3.41015 0.5 7C0.5 10.5899 3.41015 13.5 7 13.5Z" stroke="white" stroke-miterlimit="10"/>
</svg>
