<svg width="15" height="15" viewBox="0 0 15 15" fill="none" xmlns="http://www.w3.org/2000/svg">
<path d="M12.1899 14.78H2.58984C1.15984 14.78 0 13.6199 0 12.1899V2.58984C0 1.15984 1.15984 0 2.58984 0H12.1899C13.6199 0 14.7798 1.15984 14.7798 2.58984V12.1899C14.7798 13.6199 13.6199 14.78 12.1899 14.78ZM2.57959 1.41992C1.92959 1.41992 1.40967 1.94984 1.40967 2.58984V12.1899C1.40967 12.8399 1.93959 13.3599 2.57959 13.3599H12.1797C12.8297 13.3599 13.3496 12.8299 13.3496 12.1899V2.58984C13.3496 1.93984 12.8197 1.41992 12.1797 1.41992H2.57959Z" fill="white"/>
<path d="M6.26931 9.36914H5.71349L7.3211 4.99096H7.86838L9.47599 9.36914H8.92017L7.61184 5.6836H7.57764L6.26931 9.36914ZM6.47454 7.65891H8.71494V8.12923H6.47454V7.65891Z" fill="white"/>
</svg>
