<svg width="432" height="89" viewBox="0 0 432 89" fill="none" xmlns="http://www.w3.org/2000/svg">
<path d="M37.1799 36.47L25.4099 48.78C24.8799 49.34 25.2699 50.26 26.0399 50.26H61.3199C61.7399 50.26 62.09 49.92 62.09 49.49V37.23C62.09 36.81 61.7499 36.46 61.3199 36.46H37.1799V36.47Z" fill="white"/>
<path d="M67.12 64.0701H16.55C15.03 64.0701 13.8 62.8401 13.8 61.3201V37.0801C13.8 29.1301 20.2401 22.6899 28.1901 22.6899H55.79L67.5601 10.3799C68.0901 9.81988 67.7001 8.8999 66.9301 8.8999H28.28C12.66 8.8999 0 21.5599 0 37.1799V71.3401C0 74.9501 2.93004 77.8799 6.54004 77.8799H45.5901C53.5701 77.8799 61.08 74.0799 65.8 67.6399L67.64 65.1299C67.96 64.6999 67.64 64.0801 67.11 64.0801L67.12 64.0701Z" fill="white"/>
<path d="M145.31 0L88.7703 57.3101L88.7502 57.29L88.6403 57.1799C87.6103 55.4199 86.9703 53.41 86.8203 51.26C86.8003 50.93 86.7703 50.59 86.7703 50.25V36.49C86.7703 28.86 92.9603 22.6699 100.59 22.6699H114.35C114.57 22.6699 114.78 22.69 114.99 22.7L126.59 10.9399C123.51 9.60994 120.12 8.86987 116.55 8.86987H98.3802C84.3502 8.86987 72.9802 20.24 72.9802 34.27V52.4399C72.9802 59.5299 75.9003 65.94 80.5903 70.55C77.1403 76.6701 74.1402 82.77 71.7402 88.7C72.0402 88.5099 127.51 32.3 127.51 32.3C127.93 33.62 128.15 35.02 128.15 36.48V50.24C128.15 57.87 121.96 64.0601 114.33 64.0601H104.18L91.5503 76.8999C93.7203 77.4999 96.0002 77.8499 98.3702 77.8499H116.54C130.57 77.8499 141.94 66.4799 141.94 52.45V34.28C141.94 28.22 139.81 22.66 136.26 18.29C139.79 12.13 142.83 5.99 145.3 0H145.31Z" fill="white"/>
<path d="M416.7 22.25H402.381C394.061 22.25 387.311 29.0001 387.311 37.3201V51.6399C387.311 59.9699 394.061 66.71 402.381 66.71H416.7C425.03 66.71 431.771 59.9599 431.771 51.6399V37.3201C431.771 29.0001 425.02 22.25 416.7 22.25ZM420.661 53.0801C420.661 55.7201 418.521 57.8599 415.881 57.8599H403.21C400.57 57.8599 398.43 55.7201 398.43 53.0801V35.6299C398.43 32.9899 400.57 30.8499 403.21 30.8499H415.881C418.521 30.8499 420.661 32.9899 420.661 35.6299V53.0801Z" fill="white"/>
<path d="M279.7 22.1599H240.15C239.26 22.1599 238.81 22.7499 238.81 23.8599V28.03C238.81 29.2 239.26 29.79 240.15 29.79H266.36L238.91 57.5701C237.97 58.7401 237.82 59.27 237.82 60.7V64.8699C237.82 66.0399 238.27 66.6299 239.11 66.6299H278.98C279.87 66.6299 280.32 66.0399 280.32 64.8699V60.7C280.32 59.53 279.87 58.9399 278.98 58.9399H254.22L279.89 31.23C280.83 30.06 280.98 29.53 280.98 28.03V23.8599C280.98 22.7499 280.53 22.1599 279.69 22.1599H279.7Z" fill="white"/>
<path d="M370 49.3201C374.62 49.1701 379.63 43.88 379.63 36.51C379.63 27.16 373.35 22.25 367.36 22.25H338.91C338.02 22.25 337.57 22.84 337.57 23.95V64.96C337.57 66.13 338.01 66.72 338.91 66.72H347.49C348.38 66.72 348.83 66.13 348.83 64.96V29.8799H362.91C366.03 29.8799 368.23 32.7 368.23 35.51C368.23 40.04 366.03 41.8301 362.91 41.8301H354.89C354 41.8301 353.6 42.42 353.6 43.53V45.55C353.6 46.72 353.9 47.25 354.44 47.96L369.36 64.97C370.25 66.21 371.39 66.73 372.63 66.73H383.15C383.74 66.73 384.04 66.2099 384.04 65.6899C384.04 65.3599 383.94 64.9099 383.69 64.6499L370.01 49.3401L370 49.3201Z" fill="white"/>
<path d="M189.269 29.72V40.6099H217.749C218.379 40.7499 218.719 41.31 218.719 42.29V46.46C218.719 47.57 218.289 48.1599 217.389 48.1599H189.269V59.05H217.749C218.379 59.2001 218.719 59.75 218.719 60.73V64.8999C218.719 66.0099 218.289 66.5999 217.389 66.5999H184.289C180.009 66.5999 176.539 63.1299 176.539 58.8599V29.8799C176.539 25.5999 180.009 22.1299 184.289 22.1299H217.389C218.289 22.1299 218.719 22.7201 218.719 23.8301V28C218.719 29 218.379 29.55 217.749 29.7H189.269V29.72Z" fill="white"/>
<path d="M300.91 29.72V40.6099H329.39C330.02 40.7499 330.36 41.31 330.36 42.29V46.46C330.36 47.57 329.91 48.1599 329.03 48.1599H300.91V59.05H329.39C330.02 59.2001 330.36 59.75 330.36 60.73V64.8999C330.36 66.0099 329.91 66.5999 329.03 66.5999H290.7C289.31 66.5999 288.18 65.4701 288.18 64.0801V24.6399C288.18 23.2499 289.31 22.1199 290.7 22.1199H329.03C329.91 22.1199 330.36 22.7101 330.36 23.8201V27.99C330.36 28.99 330.02 29.5399 329.39 29.6899H300.91V29.72Z" fill="white"/>
</svg>
