<svg width="15" height="15" viewBox="0 0 15 15" fill="none" xmlns="http://www.w3.org/2000/svg">
<path d="M14.9937 7.14014C14.9937 6.85014 14.9537 6.57004 14.9137 6.29004L13.4337 6.04004L12.9337 4.64014L13.9237 3.51001C13.6237 3.01001 13.2636 2.55014 12.8636 2.14014L11.5138 2.82007L10.2838 1.97998L10.4137 0.47998C9.90366 0.25998 9.36379 0.1 8.80379 0L8.1036 1.34009L6.61361 1.38013L5.84359 0.0800781C5.27359 0.210078 4.7237 0.410156 4.2037 0.660156L4.42367 2.15015L3.23373 3.06006L1.8536 2.45996C1.4736 2.88996 1.14362 3.37014 0.873618 3.89014L1.92367 4.96997L1.50375 6.40015L0.0337747 6.72998C0.00377472 7.02998 -0.00625457 7.33014 0.00374543 7.64014C0.0137454 7.92014 0.0435696 8.19997 0.0735696 8.46997L1.56356 8.71997L2.06356 10.1301L1.06356 11.26C1.36356 11.76 1.72362 12.2201 2.12362 12.6401L3.47372 11.97L4.7037 12.8101L4.56356 14.3101C5.09356 14.5301 5.65372 14.7 6.22372 14.8L6.92367 13.46L8.41366 13.4202L9.18368 14.72C9.75368 14.59 10.3036 14.3901 10.8136 14.1401L10.5936 12.6501L11.7738 11.74L13.1536 12.3301C13.5336 11.8901 13.8636 11.4101 14.1336 10.9001L13.0736 9.83008L13.4937 8.40015L14.9637 8.07007C14.9837 7.78007 14.9937 7.48019 14.9837 7.19019L14.9937 7.14014ZM9.71371 9.90015C8.32371 11.1201 6.19371 10.9901 4.96371 9.59009C3.74371 8.19009 3.87376 6.0701 5.27377 4.8501C6.66376 3.6201 8.79375 3.76015 10.0138 5.15015C11.2438 6.55015 11.1037 8.67015 9.7037 9.90015H9.71371Z" fill="#919191"/>
</svg>
