<svg width="29" height="11" viewBox="0 0 29 11" fill="none" xmlns="http://www.w3.org/2000/svg">
<path d="M27 0.0498047L1.29004 0C0.590039 0 0.0200195 0.519912 0.0200195 1.15991L0 9.78979C0 10.4298 0.57002 10.95 1.27002 10.95L26.98 11C27.68 11 28.25 10.4798 28.25 9.83984L28.27 1.20996C28.27 0.569961 27.7 0.0498047 27 0.0498047ZM23.1501 1.30981H24.8701V2.23999H23.1501V1.30981ZM20.95 1.30981H22.6702V2.23999H20.95V1.30981ZM18.76 1.30981H20.48V2.23999H18.76V1.30981ZM20.5 2.73999V4.23999H18.77V2.73999H20.5ZM18.74 4.73999H20.46V6.25H18.74V4.73999ZM16.5601 1.2998H18.28V2.22998H16.5601V1.2998ZM16.54 4.73999H18.26V6.25H16.54V4.73999ZM16.54 6.73999H18.26V8.25H16.54V6.73999ZM14.3701 1.2998H16.0901V2.22998H14.3701V1.2998ZM16.1101 2.72998V4.22998H14.3801V2.72998H16.1101ZM14.3501 4.72998H16.0701V6.23999H14.3501V4.72998ZM14.3401 6.73999H16.0601V8.25H14.3401V6.73999ZM12.1702 1.28979H13.8901V2.21997H12.1702V1.28979ZM13.9102 2.72998V4.22998H12.1802V2.72998H13.9102ZM12.1501 4.72998H13.8701V6.23999H12.1501V4.72998ZM12.1401 6.72998H13.8601V8.23999H12.1401V6.72998ZM9.97998 1.28979H11.7V2.21997H9.97998V1.28979ZM11.71 2.71997V4.21997H9.97998V2.71997H11.71ZM9.94995 4.72998H11.6702V6.23999H9.94995V4.72998ZM9.94995 6.72998H11.6702V8.23999H9.94995V6.72998ZM7.78003 1.28979H9.5V2.21997H7.78003V1.28979ZM5.59009 1.28003H7.31006V2.20996H5.59009V1.28003ZM3.39014 1.28003H5.11011V2.20996H3.39014V1.28003ZM3.39014 2.70996H5.11011V4.21997H3.39014V2.70996ZM1.19995 1.27002H2.92017V2.19995H1.19995V1.27002ZM1.19019 2.69995H2.91016V4.20996H1.19019V2.69995ZM2.90015 10.23H1.18018V8.71997H2.90015V10.23ZM5.06006 10.23H3.34009V8.71997H5.06006V10.23ZM5.15015 8.21997H1.18018V6.70996H5.15015V8.21997ZM5.15015 6.21997H1.18018V4.70996H5.15015V6.21997ZM7.27002 10.23H5.55005V8.71997H7.27002V10.23ZM7.27002 8.22998H5.55005V6.71997H7.27002V8.22998ZM7.28003 6.21997H5.56006V4.70996H7.28003V6.21997ZM7.31006 4.21997H5.59009V2.70996H7.31006V4.21997ZM9.44995 10.24H7.72998V8.72998H9.44995V10.24ZM9.46997 8.22998H7.75V6.71997H9.46997V8.22998ZM9.46997 6.22998H7.75V4.71997H9.46997V6.22998ZM9.51001 4.21997H7.79004V2.70996H9.51001V4.21997ZM18.29 10.25L9.92017 10.23V8.72998L18.29 8.75V10.25ZM18.3 4.23999H16.5801V2.72998H18.3V4.23999ZM18.74 6.75H20.46V8.26001H18.74V6.75ZM20.51 10.26H18.79V8.75H20.51V10.26ZM22.6602 10.26H20.9402V8.75H22.6602V10.26ZM22.6602 8.26001H20.9402V6.75H22.6602V8.26001ZM22.6602 6.25H20.9402V4.73999H22.6602V6.25ZM22.7 4.25H20.98V2.73999H22.7V4.25ZM24.8601 6.76001V8.26001H23.1301V6.76001H24.8601ZM23.1401 6.25V4.75H24.8701V6.25H23.1401ZM24.8701 10.27H23.1501V8.76001H24.8701V10.27ZM27.05 10.27H25.3301V8.76001H27.05V10.27ZM27.05 8.27002H25.3301V6.76001H27.05V8.27002ZM27.0601 6.26001H25.3401V4.75H27.0601V6.26001ZM27.0601 4.26001H23.0901V2.75H27.0601V4.26001ZM27.0701 2.25H25.3501V1.31982H27.0701V2.25Z" fill="white"/>
</svg>
