<svg width="382" height="166" viewBox="0 0 382 166" fill="none" xmlns="http://www.w3.org/2000/svg">
<path d="M6.05273 37.8379C6.05273 38.9512 5.90625 39.9727 5.61328 40.9023C5.32031 41.8281 4.8125 42.6934 4.08984 43.498C3.37109 44.2988 2.39648 45.0039 1.16602 45.6133L0.5625 44.7344C1.64062 44.2109 2.50391 43.6133 3.15234 42.9414C3.80078 42.2656 4.26562 41.5215 4.54688 40.709C4.82812 39.8926 4.96875 38.9805 4.96875 37.9727V37.8379H6.05273ZM5.53711 38.7461H1.1543V37.8379H5.53711V38.7461ZM0.779297 41.6758L0.615234 40.709L4.85156 40.4395V41.2949L0.779297 41.6758ZM9.11719 47.2715H7.99219V36.7715H9.11719V47.2715ZM20.3438 42.7773H10.7578V41.8867H20.3438V42.7773ZM16.0898 42.2559H15.0059V40.2344H16.0898V42.2559ZM19.2305 40.7734H11.959V39.8828H19.2305V40.7734ZM19.166 38.1367H13.0547V40.4395H11.959V37.2578H19.166V38.1367ZM15.5391 43.457C16.293 43.457 16.9414 43.5312 17.4844 43.6797C18.0312 43.8281 18.4473 44.0449 18.7324 44.3301C19.0215 44.6152 19.166 44.9609 19.166 45.3672C19.166 45.7695 19.0215 46.1133 18.7324 46.3984C18.4473 46.6836 18.0332 46.9004 17.4902 47.0488C16.9473 47.1973 16.2969 47.2734 15.5391 47.2773C14.7812 47.2734 14.1289 47.1973 13.582 47.0488C13.0352 46.9004 12.6172 46.6836 12.3281 46.3984C12.0391 46.1133 11.8945 45.7695 11.8945 45.3672C11.8945 44.9609 12.0391 44.6152 12.3281 44.3301C12.6172 44.0449 13.0352 43.8281 13.582 43.6797C14.1289 43.5312 14.7812 43.457 15.5391 43.457ZM15.5391 44.3242C15.0039 44.3242 14.5488 44.3652 14.1738 44.4473C13.7988 44.5254 13.5137 44.6426 13.3184 44.7988C13.123 44.9551 13.0254 45.1445 13.0254 45.3672C13.0254 45.5898 13.123 45.7793 13.3184 45.9355C13.5137 46.0918 13.7988 46.209 14.1738 46.2871C14.5488 46.3652 15.0039 46.4043 15.5391 46.4043C16.0742 46.4043 16.5273 46.3652 16.8984 46.2871C17.2734 46.209 17.5586 46.0918 17.7539 45.9355C17.9492 45.7754 18.0469 45.5859 18.0469 45.3672C18.0469 45.1445 17.9492 44.9551 17.7539 44.7988C17.5586 44.6426 17.2715 44.5254 16.8926 44.4473C16.5176 44.3652 16.0664 44.3242 15.5391 44.3242ZM24.5859 38.6582C24.5859 39.2988 24.4668 39.9023 24.2285 40.4688C23.9941 41.0312 23.6562 41.5195 23.2148 41.9336C22.7734 42.3477 22.25 42.6621 21.6445 42.877L21.0527 42.0156C21.5879 41.8281 22.0527 41.5625 22.4473 41.2188C22.8457 40.875 23.1523 40.4824 23.3672 40.041C23.582 39.5957 23.6895 39.1348 23.6895 38.6582V37.8555H24.5859V38.6582ZM24.791 38.6582C24.791 39.1074 24.8926 39.541 25.0957 39.959C25.2988 40.373 25.5898 40.7422 25.9688 41.0664C26.3516 41.3906 26.8047 41.6426 27.3281 41.8223L26.7656 42.6836C26.1719 42.4766 25.6582 42.1738 25.2246 41.7754C24.791 41.373 24.459 40.9062 24.2285 40.375C24.002 39.8398 23.8887 39.2676 23.8887 38.6582V37.8555H24.791V38.6582ZM27.0645 38.3711H21.375V37.4746H27.0645V38.3711ZM29.3789 43.1055H28.2715V36.7715H29.3789V43.1055ZM30.9082 40.4102H29.0684V39.4727H30.9082V40.4102ZM29.3789 47.2715H28.2715V44.5234H22.4414V43.627H29.3789V47.2715Z" fill="white"/>
<path d="M9.22217 137.182H8.12646V131.779H9.22217V137.182ZM9.23389 140.316H3.45068V141.652H2.36084V139.467H8.13232V138.564H2.3374V137.686H9.23389V140.316ZM9.58545 142.18H2.36084V141.289H9.58545V142.18ZM4.13623 132.863C4.13623 133.512 4.01318 134.121 3.76709 134.691C3.521 135.262 3.17139 135.758 2.71826 136.18C2.26514 136.602 1.73389 136.916 1.12451 137.123L0.556152 136.244C1.09912 136.061 1.56982 135.799 1.96826 135.459C2.3667 135.115 2.67334 134.719 2.88818 134.27C3.10303 133.816 3.21045 133.348 3.21045 132.863V132.061H4.13623V132.863ZM4.35303 132.863C4.35303 133.336 4.45654 133.785 4.66357 134.211C4.87451 134.637 5.17725 135.01 5.57178 135.33C5.96631 135.65 6.4292 135.896 6.96045 136.068L6.41553 136.93C5.81006 136.727 5.28076 136.426 4.82764 136.027C4.37842 135.629 4.03076 135.158 3.78467 134.615C3.53857 134.072 3.41553 133.488 3.41553 132.863V132.061H4.35303V132.863ZM19.9097 142.279H18.855V131.779H19.9097V142.279ZM17.0503 136.408H15.0874V135.512H17.0503V136.408ZM17.7769 141.758H16.728V132.014H17.7769V141.758ZM13.8511 134.715C13.8511 135.496 13.7554 136.244 13.564 136.959C13.3765 137.674 13.103 138.316 12.7437 138.887C12.3843 139.457 11.9468 139.902 11.4312 140.223L10.7397 139.391C11.2241 139.102 11.6362 138.711 11.9761 138.219C12.3159 137.727 12.5698 137.18 12.7378 136.578C12.9058 135.973 12.9897 135.352 12.9897 134.715V133.438H13.8511V134.715ZM14.062 134.715C14.062 135.328 14.144 135.922 14.3081 136.496C14.4722 137.066 14.7202 137.584 15.0522 138.049C15.3843 138.51 15.7886 138.879 16.2651 139.156L15.5972 139.977C15.0854 139.664 14.6519 139.24 14.2964 138.705C13.9448 138.166 13.6792 137.555 13.4995 136.871C13.3237 136.188 13.2358 135.469 13.2358 134.715V133.438H14.062V134.715ZM15.8726 133.871H11.0679V132.963H15.8726V133.871ZM32.0034 133.344H25.3647V132.441H32.0034V133.344ZM33.7729 137.85H24.1987V136.941H33.7729V137.85ZM29.5132 142.303H28.3999V137.557H29.5132V142.303ZM32.5542 133.367C32.5542 133.875 32.5483 134.312 32.5366 134.68C32.5249 135.043 32.4878 135.465 32.4253 135.945C32.3667 136.422 32.2729 136.939 32.144 137.498L31.0425 137.369C31.1714 136.834 31.2651 136.334 31.3237 135.869C31.3823 135.404 31.4175 134.992 31.4292 134.633C31.4409 134.273 31.4468 133.854 31.4468 133.373V132.441H32.5542V133.367ZM43.3237 139.795H42.2104V131.791H43.3237V139.795ZM42.6558 135.436H40.5288V134.527H42.6558V135.436ZM42.6558 137.633H40.5288V136.736H42.6558V137.633ZM40.4878 133.906H34.5874V133.016H40.4878V133.906ZM37.5757 134.416C38.0444 134.416 38.4644 134.5 38.8354 134.668C39.2065 134.836 39.4937 135.074 39.6968 135.383C39.9038 135.688 40.0073 136.041 40.0073 136.443C40.0073 136.838 39.9038 137.189 39.6968 137.498C39.4937 137.803 39.2065 138.041 38.8354 138.213C38.4644 138.385 38.0444 138.471 37.5757 138.471C37.1108 138.471 36.6968 138.385 36.3335 138.213C35.9702 138.041 35.6851 137.803 35.478 137.498C35.2749 137.189 35.1733 136.838 35.1733 136.443C35.1733 136.045 35.2749 135.691 35.478 135.383C35.6851 135.074 35.9702 134.836 36.3335 134.668C36.6968 134.5 37.1108 134.416 37.5757 134.416ZM37.5757 135.289C37.314 135.289 37.0776 135.336 36.8667 135.43C36.6558 135.523 36.4937 135.658 36.3804 135.834C36.2671 136.01 36.2104 136.213 36.2104 136.443C36.2104 136.67 36.2671 136.871 36.3804 137.047C36.4937 137.223 36.6538 137.359 36.8608 137.457C37.0718 137.551 37.3101 137.598 37.5757 137.598C37.8491 137.598 38.0894 137.551 38.2964 137.457C38.5034 137.359 38.6655 137.223 38.7827 137.047C38.8999 136.871 38.9585 136.67 38.9585 136.443C38.9585 136.213 38.8999 136.01 38.7827 135.834C38.6655 135.658 38.5034 135.523 38.2964 135.43C38.0894 135.336 37.8491 135.289 37.5757 135.289ZM38.144 133.578H37.0366V131.773H38.144V133.578ZM43.5581 142.074H36.4624V141.154H43.5581V142.074ZM37.5874 141.588H36.4624V139.098H37.5874V141.588Z" fill="white"/>
<path d="M325.4 104.139V104.129H239.91H123.66H57.4897V165.679H123.66H239.91H325.4V165.669L356.16 134.899L325.4 104.139Z" fill="#A786D1"/>
<path d="M94.3198 13.6992H57.4897V75.2393H94.3198V75.2295L107.57 44.4688L94.3198 13.6992Z" fill="#78DDAA"/>
<path d="M73.0628 52.5508H70.7896L77.3643 34.6453H79.6025L86.1771 52.5508H83.904L78.5533 37.478H78.4135L73.0628 52.5508ZM73.9021 45.5565H83.0647V47.4799H73.9021V45.5565Z" fill="white"/>
<path d="M342.91 13.6992H306.08V75.2393H342.91V75.2295L356.16 44.4688L342.91 13.6992Z" fill="#78DDAA"/>
<path d="M321.653 52.5508H319.379L325.954 34.6453H328.192L334.767 52.5508H332.494L327.143 37.478H327.003L321.653 52.5508ZM322.492 45.5565H331.655V47.4799H322.492V45.5565Z" fill="white"/>
<path d="M201.383 145.031H199.109L205.684 127.126H207.922L214.497 145.031H212.224L206.873 129.958H206.733L201.383 145.031ZM202.222 138.037H211.384V139.96H202.222V138.037Z" fill="white"/>
<path d="M41.25 89.1914H381.79" stroke="white" stroke-width="0.99" stroke-miterlimit="10" stroke-dasharray="5.67 5.67"/>
<path d="M107.57 90.1816V87.3516" stroke="white" stroke-width="0.99" stroke-miterlimit="10"/>
<path d="M107.57 81.71V5.66016" stroke="white" stroke-width="0.99" stroke-miterlimit="10" stroke-dasharray="5.63 5.63"/>
<path d="M107.57 2.83984V0" stroke="white" stroke-width="0.99" stroke-miterlimit="10"/>
<path d="M356.16 90.1816V87.3516" stroke="white" stroke-width="0.99" stroke-miterlimit="10"/>
<path d="M356.16 81.71V5.66016" stroke="white" stroke-width="0.99" stroke-miterlimit="10" stroke-dasharray="5.63 5.63"/>
<path d="M356.16 2.83984V0" stroke="white" stroke-width="0.99" stroke-miterlimit="10"/>
</svg>
