<svg width="382" height="166" viewBox="0 0 382 166" fill="none" xmlns="http://www.w3.org/2000/svg">
<path d="M0.867188 31.7969H2.15625V35.8457H2.26172L5.80664 31.7969H7.43555L4.00781 35.6172L7.44727 40.2812H5.88281L3.15234 36.4961L2.15625 37.6504V40.2812H0.867188V31.7969ZM10.6582 40.4102C10.0449 40.4102 9.50781 40.2754 9.04688 40.0059C8.58984 39.7363 8.23828 39.3555 7.99219 38.8633C7.74609 38.3711 7.62305 37.7988 7.62305 37.1465C7.62305 36.4941 7.74609 35.918 7.99219 35.418C8.23828 34.9141 8.58398 34.5254 9.0293 34.252C9.47461 33.9746 9.98828 33.8359 10.5703 33.8359C11.0859 33.8359 11.5566 33.9473 11.9824 34.1699C12.4082 34.3887 12.75 34.7383 13.0078 35.2188C13.2656 35.6953 13.3945 36.2988 13.3945 37.0293V37.4688H8.32617V36.5371H12.1699C12.1699 36.2129 12.1035 35.9258 11.9707 35.6758C11.8418 35.4219 11.6562 35.2227 11.4141 35.0781C11.1719 34.9336 10.8945 34.8613 10.582 34.8613C10.2422 34.8613 9.94336 34.9434 9.68555 35.1074C9.42773 35.2715 9.22656 35.4922 9.08203 35.7695C8.9375 36.0469 8.86523 36.3438 8.86523 36.6602V37.3867C8.86523 37.8047 8.93945 38.1641 9.08789 38.4648C9.24023 38.7656 9.45117 38.9941 9.7207 39.1504C9.99414 39.3066 10.3086 39.3848 10.6641 39.3848C10.8906 39.3848 11.0957 39.3535 11.2793 39.291C11.4629 39.2246 11.6191 39.1426 11.748 39.0449C11.877 38.9434 11.9766 38.8242 12.0469 38.6875H13.3184C13.2246 39.0312 13.0566 39.332 12.8145 39.5898C12.5723 39.8477 12.2656 40.0488 11.8945 40.1934C11.5273 40.3379 11.1152 40.4102 10.6582 40.4102ZM15.1992 42.6719C14.9492 42.6719 14.7266 42.6641 14.5312 42.6484V41.5938L14.7539 41.6055C14.8359 41.6133 14.9492 41.6172 15.0938 41.6172C15.2539 41.6172 15.3867 41.6016 15.4922 41.5703C15.6016 41.5391 15.707 41.4609 15.8086 41.3359C15.9141 41.2148 16.0098 41.0293 16.0957 40.7793L16.2598 40.375L13.9219 33.918H15.2695L16.8691 38.8457H16.9395L18.5449 33.918H19.8926L17.2676 41.125C17.0762 41.6328 16.8125 42.0176 16.4766 42.2793C16.1406 42.541 15.7148 42.6719 15.1992 42.6719ZM0.222656 54.2812L3.26953 45.7969H4.76367L7.81641 54.2812H6.43945L4.04883 47.3496H3.97852L1.58203 54.2812H0.222656ZM6.2168 50.959V52.0371H1.81055V50.959H6.2168ZM11.3906 54.4102C10.7852 54.4102 10.2559 54.2695 9.80273 53.9883C9.35352 53.707 9.00781 53.3184 8.76562 52.8223C8.52734 52.3262 8.4082 51.7617 8.4082 51.1289C8.4082 50.4844 8.53125 49.9141 8.77734 49.418C9.02344 48.918 9.36914 48.5293 9.81445 48.252C10.2598 47.9746 10.7773 47.8359 11.3672 47.8359C11.8516 47.8359 12.2852 47.9238 12.668 48.0996C13.0508 48.2754 13.3574 48.5254 13.5879 48.8496C13.8184 49.1738 13.957 49.5488 14.0039 49.9746H12.7852C12.7422 49.7715 12.6582 49.5879 12.5332 49.4238C12.4121 49.2559 12.2559 49.123 12.0645 49.0254C11.873 48.9277 11.6504 48.8789 11.3965 48.8789C11.0527 48.8789 10.75 48.9688 10.4883 49.1484C10.2305 49.3281 10.0293 49.584 9.88477 49.916C9.74023 50.248 9.66797 50.6406 9.66797 51.0938C9.66797 51.5508 9.73828 51.9492 9.87891 52.2891C10.0234 52.625 10.2246 52.8848 10.4824 53.0684C10.7402 53.252 11.0449 53.3438 11.3965 53.3438C11.6309 53.3438 11.8438 53.3027 12.0352 53.2207C12.2305 53.1348 12.3926 53.0098 12.5215 52.8457C12.6504 52.6816 12.7383 52.4863 12.7852 52.2598H14.0039C13.957 52.6738 13.8203 53.043 13.5938 53.3672C13.3711 53.6914 13.0703 53.9473 12.6914 54.1348C12.3125 54.3184 11.8789 54.4102 11.3906 54.4102ZM18.1582 48.9141H14.6777V47.918H18.1582V48.9141ZM16.8691 46.3945V52.4121C16.8691 52.6387 16.9023 52.8125 16.9688 52.9336C17.0352 53.0547 17.123 53.1387 17.2324 53.1855C17.3418 53.2324 17.4727 53.2559 17.625 53.2559C17.8125 53.2559 18.0215 53.248 18.252 53.2324V54.3105C18.0293 54.3457 17.7715 54.3633 17.4785 54.3633C17.1387 54.3633 16.8262 54.3008 16.541 54.1758C16.2598 54.0469 16.0332 53.8555 15.8613 53.6016C15.6934 53.3438 15.6094 53.0312 15.6094 52.6641V46.3945H16.8691ZM19.3887 47.918H20.6367V54.2812H19.3887V47.918ZM20.0098 46.9336C19.8691 46.9336 19.7383 46.9023 19.6172 46.8398C19.4961 46.7734 19.4004 46.6836 19.3301 46.5703C19.2598 46.4531 19.2246 46.3281 19.2246 46.1953C19.2246 46.0586 19.2598 45.9355 19.3301 45.8262C19.4004 45.7129 19.4961 45.623 19.6172 45.5566C19.7383 45.4902 19.8691 45.457 20.0098 45.457C20.1582 45.457 20.293 45.4902 20.4141 45.5566C20.5352 45.623 20.6289 45.7129 20.6953 45.8262C20.7656 45.9355 20.8008 46.0586 20.8008 46.1953C20.8008 46.3281 20.7656 46.4531 20.6953 46.5703C20.6289 46.6836 20.5352 46.7734 20.4141 46.8398C20.293 46.9023 20.1582 46.9336 20.0098 46.9336ZM24.8555 54.4102C24.2617 54.4102 23.7383 54.2734 23.2852 54C22.8359 53.7266 22.4883 53.3418 22.2422 52.8457C21.9961 52.3496 21.873 51.7773 21.873 51.1289C21.873 50.4727 21.9961 49.8965 22.2422 49.4004C22.4883 48.9043 22.8359 48.5195 23.2852 48.2461C23.7383 47.9727 24.2617 47.8359 24.8555 47.8359C25.4453 47.8359 25.9648 47.9727 26.4141 48.2461C26.8633 48.5195 27.209 48.9043 27.4512 49.4004C27.6934 49.8965 27.8145 50.4727 27.8145 51.1289C27.8145 51.7773 27.6934 52.3496 27.4512 52.8457C27.209 53.3418 26.8633 53.7266 26.4141 54C25.9648 54.2734 25.4453 54.4102 24.8555 54.4102ZM24.8555 53.3672C25.2305 53.3672 25.5449 53.2676 25.7988 53.0684C26.0527 52.8652 26.2422 52.5957 26.3672 52.2598C26.4922 51.9199 26.5547 51.541 26.5547 51.123C26.5547 50.7051 26.4922 50.3262 26.3672 49.9863C26.2422 49.6465 26.0527 49.377 25.7988 49.1777C25.5449 48.9746 25.2305 48.873 24.8555 48.873C24.4805 48.873 24.1641 48.9746 23.9062 49.1777C23.6484 49.377 23.4551 49.6465 23.3262 49.9863C23.1973 50.3262 23.1328 50.7051 23.1328 51.123C23.1328 51.541 23.1973 51.9199 23.3262 52.2598C23.4551 52.5957 23.6484 52.8652 23.9062 53.0684C24.1641 53.2676 24.4805 53.3672 24.8555 53.3672ZM30.3164 54.2812H29.0684V47.918H30.2637V48.9551H30.3457C30.502 48.5996 30.7363 48.3242 31.0488 48.1289C31.3652 47.9336 31.7578 47.8359 32.2266 47.8359C32.6641 47.8359 33.043 47.9277 33.3633 48.1113C33.6875 48.291 33.9375 48.5605 34.1133 48.9199C34.293 49.2793 34.3828 49.7168 34.3828 50.2324V54.2812H33.1348V50.3789C33.1348 50.0742 33.082 49.8125 32.9766 49.5938C32.8711 49.375 32.7188 49.209 32.5195 49.0957C32.3203 48.9785 32.0781 48.9199 31.793 48.9199C31.5039 48.9199 31.248 48.9824 31.0254 49.1074C30.8027 49.2285 30.6289 49.4102 30.5039 49.6523C30.3789 49.8906 30.3164 50.1758 30.3164 50.5078V54.2812Z" fill="white"/>
<path d="M1.00732 132.805H6.3335V133.912H2.29639V136.49H6.05225V137.592H2.29639V140.182H6.37451V141.289H1.00732V132.805ZM10.1772 137.398L11.5894 134.926H12.9604L10.9741 138.102L12.9722 141.289H11.6187L10.1772 138.91L8.76514 141.289H7.39404L9.35693 138.102L7.41162 134.926H8.78857L10.1772 137.398ZM16.5874 141.418C15.9741 141.418 15.437 141.283 14.9761 141.014C14.519 140.744 14.1675 140.363 13.9214 139.871C13.6753 139.379 13.5522 138.807 13.5522 138.154C13.5522 137.502 13.6753 136.926 13.9214 136.426C14.1675 135.922 14.5132 135.533 14.9585 135.26C15.4038 134.982 15.9175 134.844 16.4995 134.844C17.0151 134.844 17.4858 134.955 17.9116 135.178C18.3374 135.396 18.6792 135.746 18.937 136.227C19.1948 136.703 19.3237 137.307 19.3237 138.037V138.477H14.2554V137.545H18.0991C18.0991 137.221 18.0327 136.934 17.8999 136.684C17.771 136.43 17.5854 136.23 17.3433 136.086C17.1011 135.941 16.8237 135.869 16.5112 135.869C16.1714 135.869 15.8726 135.951 15.6147 136.115C15.3569 136.279 15.1558 136.5 15.0112 136.777C14.8667 137.055 14.7944 137.352 14.7944 137.668V138.395C14.7944 138.812 14.8687 139.172 15.0171 139.473C15.1694 139.773 15.3804 140.002 15.6499 140.158C15.9233 140.314 16.2378 140.393 16.5933 140.393C16.8198 140.393 17.0249 140.361 17.2085 140.299C17.3921 140.232 17.5483 140.15 17.6772 140.053C17.8062 139.951 17.9058 139.832 17.9761 139.695H19.2476C19.1538 140.039 18.9858 140.34 18.7437 140.598C18.5015 140.855 18.1948 141.057 17.8237 141.201C17.4565 141.346 17.0444 141.418 16.5874 141.418ZM23.2495 141.418C22.644 141.418 22.1147 141.277 21.6616 140.996C21.2124 140.715 20.8667 140.326 20.6245 139.83C20.3862 139.334 20.2671 138.77 20.2671 138.137C20.2671 137.492 20.3901 136.922 20.6362 136.426C20.8823 135.926 21.228 135.537 21.6733 135.26C22.1187 134.982 22.6362 134.844 23.2261 134.844C23.7104 134.844 24.144 134.932 24.5269 135.107C24.9097 135.283 25.2163 135.533 25.4468 135.857C25.6772 136.182 25.8159 136.557 25.8628 136.982H24.644C24.6011 136.779 24.5171 136.596 24.3921 136.432C24.271 136.264 24.1147 136.131 23.9233 136.033C23.7319 135.936 23.5093 135.887 23.2554 135.887C22.9116 135.887 22.6089 135.977 22.3472 136.156C22.0894 136.336 21.8882 136.592 21.7437 136.924C21.5991 137.256 21.5269 137.648 21.5269 138.102C21.5269 138.559 21.5972 138.957 21.7378 139.297C21.8823 139.633 22.0835 139.893 22.3413 140.076C22.5991 140.26 22.9038 140.352 23.2554 140.352C23.4897 140.352 23.7026 140.311 23.894 140.229C24.0894 140.143 24.2515 140.018 24.3804 139.854C24.5093 139.689 24.5972 139.494 24.644 139.268H25.8628C25.8159 139.682 25.6792 140.051 25.4526 140.375C25.23 140.699 24.9292 140.955 24.5503 141.143C24.1714 141.326 23.7378 141.418 23.2495 141.418ZM31.0894 134.926H32.3315V141.289H31.1128V140.188H31.0425C30.8823 140.543 30.6401 140.83 30.3159 141.049C29.9956 141.264 29.605 141.371 29.144 141.371C28.73 141.371 28.3667 141.279 28.0542 141.096C27.7417 140.912 27.4956 140.641 27.3159 140.281C27.1401 139.918 27.0522 139.48 27.0522 138.969V134.926H28.3003V138.822C28.3003 139.104 28.353 139.352 28.4585 139.566C28.5679 139.777 28.7202 139.941 28.9155 140.059C29.1147 140.176 29.3394 140.234 29.5894 140.234C29.8354 140.234 30.0737 140.174 30.3042 140.053C30.5347 139.932 30.7222 139.75 30.8667 139.508C31.0151 139.266 31.0894 138.977 31.0894 138.641V134.926ZM36.8257 135.922H33.3452V134.926H36.8257V135.922ZM35.5366 133.402V139.42C35.5366 139.646 35.5698 139.82 35.6362 139.941C35.7026 140.062 35.7905 140.146 35.8999 140.193C36.0093 140.24 36.1401 140.264 36.2925 140.264C36.48 140.264 36.689 140.256 36.9194 140.24V141.318C36.6968 141.354 36.439 141.371 36.146 141.371C35.8062 141.371 35.4937 141.309 35.2085 141.184C34.9272 141.055 34.7007 140.863 34.5288 140.609C34.3608 140.352 34.2769 140.039 34.2769 139.672V133.402H35.5366ZM38.0562 134.926H39.3042V141.289H38.0562V134.926ZM38.6772 133.941C38.5366 133.941 38.4058 133.91 38.2847 133.848C38.1636 133.781 38.0679 133.691 37.9976 133.578C37.9272 133.461 37.8921 133.336 37.8921 133.203C37.8921 133.066 37.9272 132.943 37.9976 132.834C38.0679 132.721 38.1636 132.631 38.2847 132.564C38.4058 132.498 38.5366 132.465 38.6772 132.465C38.8257 132.465 38.9604 132.498 39.0815 132.564C39.2026 132.631 39.2964 132.721 39.3628 132.834C39.4331 132.943 39.4683 133.066 39.4683 133.203C39.4683 133.336 39.4331 133.461 39.3628 133.578C39.2964 133.691 39.2026 133.781 39.0815 133.848C38.9604 133.91 38.8257 133.941 38.6772 133.941ZM43.5229 141.418C42.9292 141.418 42.4058 141.281 41.9526 141.008C41.5034 140.734 41.1558 140.35 40.9097 139.854C40.6636 139.357 40.5405 138.785 40.5405 138.137C40.5405 137.48 40.6636 136.904 40.9097 136.408C41.1558 135.912 41.5034 135.527 41.9526 135.254C42.4058 134.98 42.9292 134.844 43.5229 134.844C44.1128 134.844 44.6323 134.98 45.0815 135.254C45.5308 135.527 45.8765 135.912 46.1187 136.408C46.3608 136.904 46.4819 137.48 46.4819 138.137C46.4819 138.785 46.3608 139.357 46.1187 139.854C45.8765 140.35 45.5308 140.734 45.0815 141.008C44.6323 141.281 44.1128 141.418 43.5229 141.418ZM43.5229 140.375C43.8979 140.375 44.2124 140.275 44.4663 140.076C44.7202 139.873 44.9097 139.604 45.0347 139.268C45.1597 138.928 45.2222 138.549 45.2222 138.131C45.2222 137.713 45.1597 137.334 45.0347 136.994C44.9097 136.654 44.7202 136.385 44.4663 136.186C44.2124 135.982 43.8979 135.881 43.5229 135.881C43.1479 135.881 42.8315 135.982 42.5737 136.186C42.3159 136.385 42.1226 136.654 41.9937 136.994C41.8647 137.334 41.8003 137.713 41.8003 138.131C41.8003 138.549 41.8647 138.928 41.9937 139.268C42.1226 139.604 42.3159 139.873 42.5737 140.076C42.8315 140.275 43.1479 140.375 43.5229 140.375ZM48.9839 141.289H47.7358V134.926H48.9312V135.963H49.0132C49.1694 135.607 49.4038 135.332 49.7163 135.137C50.0327 134.941 50.4253 134.844 50.894 134.844C51.3315 134.844 51.7104 134.936 52.0308 135.119C52.355 135.299 52.605 135.568 52.7808 135.928C52.9604 136.287 53.0503 136.725 53.0503 137.24V141.289H51.8022V137.387C51.8022 137.082 51.7495 136.82 51.644 136.602C51.5386 136.383 51.3862 136.217 51.187 136.104C50.9878 135.986 50.7456 135.928 50.4604 135.928C50.1714 135.928 49.9155 135.99 49.6929 136.115C49.4702 136.236 49.2964 136.418 49.1714 136.66C49.0464 136.898 48.9839 137.184 48.9839 137.516V141.289Z" fill="white"/>
<path d="M325.4 104.139V104.129H239.91H123.66H57.4897V165.679H123.66H239.91H325.4V165.669L356.16 134.899L325.4 104.139Z" fill="#A786D1"/>
<path d="M94.3198 13.6992H57.4897V75.2393H94.3198V75.2295L107.57 44.4688L94.3198 13.6992Z" fill="#78DDAA"/>
<path d="M73.0628 52.5508H70.7896L77.3643 34.6453H79.6025L86.1771 52.5508H83.904L78.5533 37.478H78.4135L73.0628 52.5508ZM73.9021 45.5565H83.0647V47.4799H73.9021V45.5565Z" fill="white"/>
<path d="M342.91 13.6992H306.08V75.2393H342.91V75.2295L356.16 44.4688L342.91 13.6992Z" fill="#78DDAA"/>
<path d="M321.653 52.5508H319.379L325.954 34.6453H328.192L334.767 52.5508H332.494L327.143 37.478H327.003L321.653 52.5508ZM322.492 45.5565H331.655V47.4799H322.492V45.5565Z" fill="white"/>
<path d="M201.383 145.031H199.109L205.684 127.126H207.922L214.497 145.031H212.224L206.873 129.958H206.733L201.383 145.031ZM202.222 138.037H211.384V139.96H202.222V138.037Z" fill="white"/>
<path d="M41.25 89.1914H381.79" stroke="white" stroke-width="0.99" stroke-miterlimit="10" stroke-dasharray="5.67 5.67"/>
<path d="M107.57 90.1816V87.3516" stroke="white" stroke-width="0.99" stroke-miterlimit="10"/>
<path d="M107.57 81.71V5.66016" stroke="white" stroke-width="0.99" stroke-miterlimit="10" stroke-dasharray="5.63 5.63"/>
<path d="M107.57 2.83984V0" stroke="white" stroke-width="0.99" stroke-miterlimit="10"/>
<path d="M356.16 90.1816V87.3516" stroke="white" stroke-width="0.99" stroke-miterlimit="10"/>
<path d="M356.16 81.71V5.66016" stroke="white" stroke-width="0.99" stroke-miterlimit="10" stroke-dasharray="5.63 5.63"/>
<path d="M356.16 2.83984V0" stroke="white" stroke-width="0.99" stroke-miterlimit="10"/>
</svg>
