<svg width="357" height="152" viewBox="0 0 357 152" fill="none" xmlns="http://www.w3.org/2000/svg">
<path d="M6.05273 26.6152C6.05273 27.7285 5.90625 28.75 5.61328 29.6797C5.32031 30.6055 4.8125 31.4707 4.08984 32.2754C3.37109 33.0762 2.39648 33.7812 1.16602 34.3906L0.5625 33.5117C1.64062 32.9883 2.50391 32.3906 3.15234 31.7188C3.80078 31.043 4.26562 30.2988 4.54688 29.4863C4.82812 28.6699 4.96875 27.7578 4.96875 26.75V26.6152H6.05273ZM5.53711 27.5234H1.1543V26.6152H5.53711V27.5234ZM0.779297 30.4531L0.615234 29.4863L4.85156 29.2168V30.0723L0.779297 30.4531ZM9.11719 36.0488H7.99219V25.5488H9.11719V36.0488ZM20.3438 31.5547H10.7578V30.6641H20.3438V31.5547ZM16.0898 31.0332H15.0059V29.0117H16.0898V31.0332ZM19.2305 29.5508H11.959V28.6602H19.2305V29.5508ZM19.166 26.9141H13.0547V29.2168H11.959V26.0352H19.166V26.9141ZM15.5391 32.2344C16.293 32.2344 16.9414 32.3086 17.4844 32.457C18.0312 32.6055 18.4473 32.8223 18.7324 33.1074C19.0215 33.3926 19.166 33.7383 19.166 34.1445C19.166 34.5469 19.0215 34.8906 18.7324 35.1758C18.4473 35.4609 18.0332 35.6777 17.4902 35.8262C16.9473 35.9746 16.2969 36.0508 15.5391 36.0547C14.7812 36.0508 14.1289 35.9746 13.582 35.8262C13.0352 35.6777 12.6172 35.4609 12.3281 35.1758C12.0391 34.8906 11.8945 34.5469 11.8945 34.1445C11.8945 33.7383 12.0391 33.3926 12.3281 33.1074C12.6172 32.8223 13.0352 32.6055 13.582 32.457C14.1289 32.3086 14.7812 32.2344 15.5391 32.2344ZM15.5391 33.1016C15.0039 33.1016 14.5488 33.1426 14.1738 33.2246C13.7988 33.3027 13.5137 33.4199 13.3184 33.5762C13.123 33.7324 13.0254 33.9219 13.0254 34.1445C13.0254 34.3672 13.123 34.5566 13.3184 34.7129C13.5137 34.8691 13.7988 34.9863 14.1738 35.0645C14.5488 35.1426 15.0039 35.1816 15.5391 35.1816C16.0742 35.1816 16.5273 35.1426 16.8984 35.0645C17.2734 34.9863 17.5586 34.8691 17.7539 34.7129C17.9492 34.5527 18.0469 34.3633 18.0469 34.1445C18.0469 33.9219 17.9492 33.7324 17.7539 33.5762C17.5586 33.4199 17.2715 33.3027 16.8926 33.2246C16.5176 33.1426 16.0664 33.1016 15.5391 33.1016ZM24.5859 27.4355C24.5859 28.0762 24.4668 28.6797 24.2285 29.2461C23.9941 29.8086 23.6562 30.2969 23.2148 30.7109C22.7734 31.125 22.25 31.4395 21.6445 31.6543L21.0527 30.793C21.5879 30.6055 22.0527 30.3398 22.4473 29.9961C22.8457 29.6523 23.1523 29.2598 23.3672 28.8184C23.582 28.373 23.6895 27.9121 23.6895 27.4355V26.6328H24.5859V27.4355ZM24.791 27.4355C24.791 27.8848 24.8926 28.3184 25.0957 28.7363C25.2988 29.1504 25.5898 29.5195 25.9688 29.8438C26.3516 30.168 26.8047 30.4199 27.3281 30.5996L26.7656 31.4609C26.1719 31.2539 25.6582 30.9512 25.2246 30.5527C24.791 30.1504 24.459 29.6836 24.2285 29.1523C24.002 28.6172 23.8887 28.0449 23.8887 27.4355V26.6328H24.791V27.4355ZM27.0645 27.1484H21.375V26.252H27.0645V27.1484ZM29.3789 31.8828H28.2715V25.5488H29.3789V31.8828ZM30.9082 29.1875H29.0684V28.25H30.9082V29.1875ZM29.3789 36.0488H28.2715V33.3008H22.4414V32.4043H29.3789V36.0488Z" fill="white"/>
<path d="M9.22266 121.264H8.12695V115.861H9.22266V121.264ZM9.23438 124.398H3.45117V125.734H2.36133V123.549H8.13281V122.646H2.33789V121.768H9.23438V124.398ZM9.58594 126.262H2.36133V125.371H9.58594V126.262ZM4.13672 116.945C4.13672 117.594 4.01367 118.203 3.76758 118.773C3.52148 119.344 3.17188 119.84 2.71875 120.262C2.26562 120.684 1.73438 120.998 1.125 121.205L0.556641 120.326C1.09961 120.143 1.57031 119.881 1.96875 119.541C2.36719 119.197 2.67383 118.801 2.88867 118.352C3.10352 117.898 3.21094 117.43 3.21094 116.945V116.143H4.13672V116.945ZM4.35352 116.945C4.35352 117.418 4.45703 117.867 4.66406 118.293C4.875 118.719 5.17773 119.092 5.57227 119.412C5.9668 119.732 6.42969 119.979 6.96094 120.15L6.41602 121.012C5.81055 120.809 5.28125 120.508 4.82812 120.109C4.37891 119.711 4.03125 119.24 3.78516 118.697C3.53906 118.154 3.41602 117.57 3.41602 116.945V116.143H4.35352V116.945ZM19.9102 126.361H18.8555V115.861H19.9102V126.361ZM17.0508 120.49H15.0879V119.594H17.0508V120.49ZM17.7773 125.84H16.7285V116.096H17.7773V125.84ZM13.8516 118.797C13.8516 119.578 13.7559 120.326 13.5645 121.041C13.377 121.756 13.1035 122.398 12.7441 122.969C12.3848 123.539 11.9473 123.984 11.4316 124.305L10.7402 123.473C11.2246 123.184 11.6367 122.793 11.9766 122.301C12.3164 121.809 12.5703 121.262 12.7383 120.66C12.9062 120.055 12.9902 119.434 12.9902 118.797V117.52H13.8516V118.797ZM14.0625 118.797C14.0625 119.41 14.1445 120.004 14.3086 120.578C14.4727 121.148 14.7207 121.666 15.0527 122.131C15.3848 122.592 15.7891 122.961 16.2656 123.238L15.5977 124.059C15.0859 123.746 14.6523 123.322 14.2969 122.787C13.9453 122.248 13.6797 121.637 13.5 120.953C13.3242 120.27 13.2363 119.551 13.2363 118.797V117.52H14.0625V118.797ZM15.873 117.953H11.0684V117.045H15.873V117.953ZM32.0039 117.426H25.3652V116.523H32.0039V117.426ZM33.7734 121.932H24.1992V121.023H33.7734V121.932ZM29.5137 126.385H28.4004V121.639H29.5137V126.385ZM32.5547 117.449C32.5547 117.957 32.5488 118.395 32.5371 118.762C32.5254 119.125 32.4883 119.547 32.4258 120.027C32.3672 120.504 32.2734 121.021 32.1445 121.58L31.043 121.451C31.1719 120.916 31.2656 120.416 31.3242 119.951C31.3828 119.486 31.418 119.074 31.4297 118.715C31.4414 118.355 31.4473 117.936 31.4473 117.455V116.523H32.5547V117.449ZM43.3242 123.877H42.2109V115.873H43.3242V123.877ZM42.6562 119.518H40.5293V118.609H42.6562V119.518ZM42.6562 121.715H40.5293V120.818H42.6562V121.715ZM40.4883 117.988H34.5879V117.098H40.4883V117.988ZM37.5762 118.498C38.0449 118.498 38.4648 118.582 38.8359 118.75C39.207 118.918 39.4941 119.156 39.6973 119.465C39.9043 119.77 40.0078 120.123 40.0078 120.525C40.0078 120.92 39.9043 121.271 39.6973 121.58C39.4941 121.885 39.207 122.123 38.8359 122.295C38.4648 122.467 38.0449 122.553 37.5762 122.553C37.1113 122.553 36.6973 122.467 36.334 122.295C35.9707 122.123 35.6855 121.885 35.4785 121.58C35.2754 121.271 35.1738 120.92 35.1738 120.525C35.1738 120.127 35.2754 119.773 35.4785 119.465C35.6855 119.156 35.9707 118.918 36.334 118.75C36.6973 118.582 37.1113 118.498 37.5762 118.498ZM37.5762 119.371C37.3145 119.371 37.0781 119.418 36.8672 119.512C36.6562 119.605 36.4941 119.74 36.3809 119.916C36.2676 120.092 36.2109 120.295 36.2109 120.525C36.2109 120.752 36.2676 120.953 36.3809 121.129C36.4941 121.305 36.6543 121.441 36.8613 121.539C37.0723 121.633 37.3105 121.68 37.5762 121.68C37.8496 121.68 38.0898 121.633 38.2969 121.539C38.5039 121.441 38.666 121.305 38.7832 121.129C38.9004 120.953 38.959 120.752 38.959 120.525C38.959 120.295 38.9004 120.092 38.7832 119.916C38.666 119.74 38.5039 119.605 38.2969 119.512C38.0898 119.418 37.8496 119.371 37.5762 119.371ZM38.1445 117.66H37.0371V115.855H38.1445V117.66ZM43.5586 126.156H36.4629V125.236H43.5586V126.156ZM37.5879 125.67H36.4629V123.18H37.5879V125.67Z" fill="white"/>
<path d="M41.2598 75.9492H342.351" stroke="white" stroke-width="0.99" stroke-miterlimit="10" stroke-dasharray="5.67 5.67"/>
<path d="M325.4 90.3574V90.3477H239.92H123.66H57.4902V151.897H123.66H239.92H325.4V151.888L356.17 121.118L325.4 90.3574Z" fill="#A786D1"/>
<path d="M94.3203 0.00976562V0H57.4902V61.5498H94.3203V61.54L107.58 30.7695L94.3203 0.00976562Z" fill="#78DDAA"/>
<path d="M73.0628 40.7305H70.7896L77.3643 22.825H79.6025L86.1771 40.7305H83.904L78.5533 25.6577H78.4135L73.0628 40.7305ZM73.9021 33.7362H83.0647V35.6596H73.9021V33.7362Z" fill="white"/>
<path d="M185.463 129.551H183.19L189.765 111.645H192.003L198.578 129.551H196.304L190.954 114.478H190.814L185.463 129.551ZM186.303 122.556H195.465V124.48H186.303V122.556Z" fill="white"/>
</svg>
