<svg width="357" height="152" viewBox="0 0 357 152" fill="none" xmlns="http://www.w3.org/2000/svg">
<path d="M0.867188 20.5742H2.15625V24.623H2.26172L5.80664 20.5742H7.43555L4.00781 24.3945L7.44727 29.0586H5.88281L3.15234 25.2734L2.15625 26.4277V29.0586H0.867188V20.5742ZM10.6582 29.1875C10.0449 29.1875 9.50781 29.0527 9.04688 28.7832C8.58984 28.5137 8.23828 28.1328 7.99219 27.6406C7.74609 27.1484 7.62305 26.5762 7.62305 25.9238C7.62305 25.2715 7.74609 24.6953 7.99219 24.1953C8.23828 23.6914 8.58398 23.3027 9.0293 23.0293C9.47461 22.752 9.98828 22.6133 10.5703 22.6133C11.0859 22.6133 11.5566 22.7246 11.9824 22.9473C12.4082 23.166 12.75 23.5156 13.0078 23.9961C13.2656 24.4727 13.3945 25.0762 13.3945 25.8066V26.2461H8.32617V25.3145H12.1699C12.1699 24.9902 12.1035 24.7031 11.9707 24.4531C11.8418 24.1992 11.6562 24 11.4141 23.8555C11.1719 23.7109 10.8945 23.6387 10.582 23.6387C10.2422 23.6387 9.94336 23.7207 9.68555 23.8848C9.42773 24.0488 9.22656 24.2695 9.08203 24.5469C8.9375 24.8242 8.86523 25.1211 8.86523 25.4375V26.1641C8.86523 26.582 8.93945 26.9414 9.08789 27.2422C9.24023 27.543 9.45117 27.7715 9.7207 27.9277C9.99414 28.084 10.3086 28.1621 10.6641 28.1621C10.8906 28.1621 11.0957 28.1309 11.2793 28.0684C11.4629 28.002 11.6191 27.9199 11.748 27.8223C11.877 27.7207 11.9766 27.6016 12.0469 27.4648H13.3184C13.2246 27.8086 13.0566 28.1094 12.8145 28.3672C12.5723 28.625 12.2656 28.8262 11.8945 28.9707C11.5273 29.1152 11.1152 29.1875 10.6582 29.1875ZM15.1992 31.4492C14.9492 31.4492 14.7266 31.4414 14.5312 31.4258V30.3711L14.7539 30.3828C14.8359 30.3906 14.9492 30.3945 15.0938 30.3945C15.2539 30.3945 15.3867 30.3789 15.4922 30.3477C15.6016 30.3164 15.707 30.2383 15.8086 30.1133C15.9141 29.9922 16.0098 29.8066 16.0957 29.5566L16.2598 29.1523L13.9219 22.6953H15.2695L16.8691 27.623H16.9395L18.5449 22.6953H19.8926L17.2676 29.9023C17.0762 30.4102 16.8125 30.7949 16.4766 31.0566C16.1406 31.3184 15.7148 31.4492 15.1992 31.4492ZM0.222656 43.0586L3.26953 34.5742H4.76367L7.81641 43.0586H6.43945L4.04883 36.127H3.97852L1.58203 43.0586H0.222656ZM6.2168 39.7363V40.8145H1.81055V39.7363H6.2168ZM11.3906 43.1875C10.7852 43.1875 10.2559 43.0469 9.80273 42.7656C9.35352 42.4844 9.00781 42.0957 8.76562 41.5996C8.52734 41.1035 8.4082 40.5391 8.4082 39.9062C8.4082 39.2617 8.53125 38.6914 8.77734 38.1953C9.02344 37.6953 9.36914 37.3066 9.81445 37.0293C10.2598 36.752 10.7773 36.6133 11.3672 36.6133C11.8516 36.6133 12.2852 36.7012 12.668 36.877C13.0508 37.0527 13.3574 37.3027 13.5879 37.627C13.8184 37.9512 13.957 38.3262 14.0039 38.752H12.7852C12.7422 38.5488 12.6582 38.3652 12.5332 38.2012C12.4121 38.0332 12.2559 37.9004 12.0645 37.8027C11.873 37.7051 11.6504 37.6562 11.3965 37.6562C11.0527 37.6562 10.75 37.7461 10.4883 37.9258C10.2305 38.1055 10.0293 38.3613 9.88477 38.6934C9.74023 39.0254 9.66797 39.418 9.66797 39.8711C9.66797 40.3281 9.73828 40.7266 9.87891 41.0664C10.0234 41.4023 10.2246 41.6621 10.4824 41.8457C10.7402 42.0293 11.0449 42.1211 11.3965 42.1211C11.6309 42.1211 11.8438 42.0801 12.0352 41.998C12.2305 41.9121 12.3926 41.7871 12.5215 41.623C12.6504 41.459 12.7383 41.2637 12.7852 41.0371H14.0039C13.957 41.4512 13.8203 41.8203 13.5938 42.1445C13.3711 42.4688 13.0703 42.7246 12.6914 42.9121C12.3125 43.0957 11.8789 43.1875 11.3906 43.1875ZM18.1582 37.6914H14.6777V36.6953H18.1582V37.6914ZM16.8691 35.1719V41.1895C16.8691 41.416 16.9023 41.5898 16.9688 41.7109C17.0352 41.832 17.123 41.916 17.2324 41.9629C17.3418 42.0098 17.4727 42.0332 17.625 42.0332C17.8125 42.0332 18.0215 42.0254 18.252 42.0098V43.0879C18.0293 43.123 17.7715 43.1406 17.4785 43.1406C17.1387 43.1406 16.8262 43.0781 16.541 42.9531C16.2598 42.8242 16.0332 42.6328 15.8613 42.3789C15.6934 42.1211 15.6094 41.8086 15.6094 41.4414V35.1719H16.8691ZM19.3887 36.6953H20.6367V43.0586H19.3887V36.6953ZM20.0098 35.7109C19.8691 35.7109 19.7383 35.6797 19.6172 35.6172C19.4961 35.5508 19.4004 35.4609 19.3301 35.3477C19.2598 35.2305 19.2246 35.1055 19.2246 34.9727C19.2246 34.8359 19.2598 34.7129 19.3301 34.6035C19.4004 34.4902 19.4961 34.4004 19.6172 34.334C19.7383 34.2676 19.8691 34.2344 20.0098 34.2344C20.1582 34.2344 20.293 34.2676 20.4141 34.334C20.5352 34.4004 20.6289 34.4902 20.6953 34.6035C20.7656 34.7129 20.8008 34.8359 20.8008 34.9727C20.8008 35.1055 20.7656 35.2305 20.6953 35.3477C20.6289 35.4609 20.5352 35.5508 20.4141 35.6172C20.293 35.6797 20.1582 35.7109 20.0098 35.7109ZM24.8555 43.1875C24.2617 43.1875 23.7383 43.0508 23.2852 42.7773C22.8359 42.5039 22.4883 42.1191 22.2422 41.623C21.9961 41.127 21.873 40.5547 21.873 39.9062C21.873 39.25 21.9961 38.6738 22.2422 38.1777C22.4883 37.6816 22.8359 37.2969 23.2852 37.0234C23.7383 36.75 24.2617 36.6133 24.8555 36.6133C25.4453 36.6133 25.9648 36.75 26.4141 37.0234C26.8633 37.2969 27.209 37.6816 27.4512 38.1777C27.6934 38.6738 27.8145 39.25 27.8145 39.9062C27.8145 40.5547 27.6934 41.127 27.4512 41.623C27.209 42.1191 26.8633 42.5039 26.4141 42.7773C25.9648 43.0508 25.4453 43.1875 24.8555 43.1875ZM24.8555 42.1445C25.2305 42.1445 25.5449 42.0449 25.7988 41.8457C26.0527 41.6426 26.2422 41.373 26.3672 41.0371C26.4922 40.6973 26.5547 40.3184 26.5547 39.9004C26.5547 39.4824 26.4922 39.1035 26.3672 38.7637C26.2422 38.4238 26.0527 38.1543 25.7988 37.9551C25.5449 37.752 25.2305 37.6504 24.8555 37.6504C24.4805 37.6504 24.1641 37.752 23.9062 37.9551C23.6484 38.1543 23.4551 38.4238 23.3262 38.7637C23.1973 39.1035 23.1328 39.4824 23.1328 39.9004C23.1328 40.3184 23.1973 40.6973 23.3262 41.0371C23.4551 41.373 23.6484 41.6426 23.9062 41.8457C24.1641 42.0449 24.4805 42.1445 24.8555 42.1445ZM30.3164 43.0586H29.0684V36.6953H30.2637V37.7324H30.3457C30.502 37.377 30.7363 37.1016 31.0488 36.9062C31.3652 36.7109 31.7578 36.6133 32.2266 36.6133C32.6641 36.6133 33.043 36.7051 33.3633 36.8887C33.6875 37.0684 33.9375 37.3379 34.1133 37.6973C34.293 38.0566 34.3828 38.4941 34.3828 39.0098V43.0586H33.1348V39.1562C33.1348 38.8516 33.082 38.5898 32.9766 38.3711C32.8711 38.1523 32.7188 37.9863 32.5195 37.873C32.3203 37.7559 32.0781 37.6973 31.793 37.6973C31.5039 37.6973 31.248 37.7598 31.0254 37.8848C30.8027 38.0059 30.6289 38.1875 30.5039 38.4297C30.3789 38.668 30.3164 38.9531 30.3164 39.2852V43.0586Z" fill="white"/>
<path d="M1.00781 116.887H6.33398V117.994H2.29688V120.572H6.05273V121.674H2.29688V124.264H6.375V125.371H1.00781V116.887ZM10.1777 121.48L11.5898 119.008H12.9609L10.9746 122.184L12.9727 125.371H11.6191L10.1777 122.992L8.76562 125.371H7.39453L9.35742 122.184L7.41211 119.008H8.78906L10.1777 121.48ZM16.5879 125.5C15.9746 125.5 15.4375 125.365 14.9766 125.096C14.5195 124.826 14.168 124.445 13.9219 123.953C13.6758 123.461 13.5527 122.889 13.5527 122.236C13.5527 121.584 13.6758 121.008 13.9219 120.508C14.168 120.004 14.5137 119.615 14.959 119.342C15.4043 119.064 15.918 118.926 16.5 118.926C17.0156 118.926 17.4863 119.037 17.9121 119.26C18.3379 119.479 18.6797 119.828 18.9375 120.309C19.1953 120.785 19.3242 121.389 19.3242 122.119V122.559H14.2559V121.627H18.0996C18.0996 121.303 18.0332 121.016 17.9004 120.766C17.7715 120.512 17.5859 120.312 17.3438 120.168C17.1016 120.023 16.8242 119.951 16.5117 119.951C16.1719 119.951 15.873 120.033 15.6152 120.197C15.3574 120.361 15.1562 120.582 15.0117 120.859C14.8672 121.137 14.7949 121.434 14.7949 121.75V122.477C14.7949 122.895 14.8691 123.254 15.0176 123.555C15.1699 123.855 15.3809 124.084 15.6504 124.24C15.9238 124.396 16.2383 124.475 16.5938 124.475C16.8203 124.475 17.0254 124.443 17.209 124.381C17.3926 124.314 17.5488 124.232 17.6777 124.135C17.8066 124.033 17.9062 123.914 17.9766 123.777H19.248C19.1543 124.121 18.9863 124.422 18.7441 124.68C18.502 124.938 18.1953 125.139 17.8242 125.283C17.457 125.428 17.0449 125.5 16.5879 125.5ZM23.25 125.5C22.6445 125.5 22.1152 125.359 21.6621 125.078C21.2129 124.797 20.8672 124.408 20.625 123.912C20.3867 123.416 20.2676 122.852 20.2676 122.219C20.2676 121.574 20.3906 121.004 20.6367 120.508C20.8828 120.008 21.2285 119.619 21.6738 119.342C22.1191 119.064 22.6367 118.926 23.2266 118.926C23.7109 118.926 24.1445 119.014 24.5273 119.189C24.9102 119.365 25.2168 119.615 25.4473 119.939C25.6777 120.264 25.8164 120.639 25.8633 121.064H24.6445C24.6016 120.861 24.5176 120.678 24.3926 120.514C24.2715 120.346 24.1152 120.213 23.9238 120.115C23.7324 120.018 23.5098 119.969 23.2559 119.969C22.9121 119.969 22.6094 120.059 22.3477 120.238C22.0898 120.418 21.8887 120.674 21.7441 121.006C21.5996 121.338 21.5273 121.73 21.5273 122.184C21.5273 122.641 21.5977 123.039 21.7383 123.379C21.8828 123.715 22.084 123.975 22.3418 124.158C22.5996 124.342 22.9043 124.434 23.2559 124.434C23.4902 124.434 23.7031 124.393 23.8945 124.311C24.0898 124.225 24.252 124.1 24.3809 123.936C24.5098 123.771 24.5977 123.576 24.6445 123.35H25.8633C25.8164 123.764 25.6797 124.133 25.4531 124.457C25.2305 124.781 24.9297 125.037 24.5508 125.225C24.1719 125.408 23.7383 125.5 23.25 125.5ZM31.0898 119.008H32.332V125.371H31.1133V124.27H31.043C30.8828 124.625 30.6406 124.912 30.3164 125.131C29.9961 125.346 29.6055 125.453 29.1445 125.453C28.7305 125.453 28.3672 125.361 28.0547 125.178C27.7422 124.994 27.4961 124.723 27.3164 124.363C27.1406 124 27.0527 123.562 27.0527 123.051V119.008H28.3008V122.904C28.3008 123.186 28.3535 123.434 28.459 123.648C28.5684 123.859 28.7207 124.023 28.916 124.141C29.1152 124.258 29.3398 124.316 29.5898 124.316C29.8359 124.316 30.0742 124.256 30.3047 124.135C30.5352 124.014 30.7227 123.832 30.8672 123.59C31.0156 123.348 31.0898 123.059 31.0898 122.723V119.008ZM36.8262 120.004H33.3457V119.008H36.8262V120.004ZM35.5371 117.484V123.502C35.5371 123.729 35.5703 123.902 35.6367 124.023C35.7031 124.145 35.791 124.229 35.9004 124.275C36.0098 124.322 36.1406 124.346 36.293 124.346C36.4805 124.346 36.6895 124.338 36.9199 124.322V125.4C36.6973 125.436 36.4395 125.453 36.1465 125.453C35.8066 125.453 35.4941 125.391 35.209 125.266C34.9277 125.137 34.7012 124.945 34.5293 124.691C34.3613 124.434 34.2773 124.121 34.2773 123.754V117.484H35.5371ZM38.0566 119.008H39.3047V125.371H38.0566V119.008ZM38.6777 118.023C38.5371 118.023 38.4062 117.992 38.2852 117.93C38.1641 117.863 38.0684 117.773 37.998 117.66C37.9277 117.543 37.8926 117.418 37.8926 117.285C37.8926 117.148 37.9277 117.025 37.998 116.916C38.0684 116.803 38.1641 116.713 38.2852 116.646C38.4062 116.58 38.5371 116.547 38.6777 116.547C38.8262 116.547 38.9609 116.58 39.082 116.646C39.2031 116.713 39.2969 116.803 39.3633 116.916C39.4336 117.025 39.4688 117.148 39.4688 117.285C39.4688 117.418 39.4336 117.543 39.3633 117.66C39.2969 117.773 39.2031 117.863 39.082 117.93C38.9609 117.992 38.8262 118.023 38.6777 118.023ZM43.5234 125.5C42.9297 125.5 42.4062 125.363 41.9531 125.09C41.5039 124.816 41.1562 124.432 40.9102 123.936C40.6641 123.439 40.541 122.867 40.541 122.219C40.541 121.562 40.6641 120.986 40.9102 120.49C41.1562 119.994 41.5039 119.609 41.9531 119.336C42.4062 119.062 42.9297 118.926 43.5234 118.926C44.1133 118.926 44.6328 119.062 45.082 119.336C45.5312 119.609 45.877 119.994 46.1191 120.49C46.3613 120.986 46.4824 121.562 46.4824 122.219C46.4824 122.867 46.3613 123.439 46.1191 123.936C45.877 124.432 45.5312 124.816 45.082 125.09C44.6328 125.363 44.1133 125.5 43.5234 125.5ZM43.5234 124.457C43.8984 124.457 44.2129 124.357 44.4668 124.158C44.7207 123.955 44.9102 123.686 45.0352 123.35C45.1602 123.01 45.2227 122.631 45.2227 122.213C45.2227 121.795 45.1602 121.416 45.0352 121.076C44.9102 120.736 44.7207 120.467 44.4668 120.268C44.2129 120.064 43.8984 119.963 43.5234 119.963C43.1484 119.963 42.832 120.064 42.5742 120.268C42.3164 120.467 42.123 120.736 41.9941 121.076C41.8652 121.416 41.8008 121.795 41.8008 122.213C41.8008 122.631 41.8652 123.01 41.9941 123.35C42.123 123.686 42.3164 123.955 42.5742 124.158C42.832 124.357 43.1484 124.457 43.5234 124.457ZM48.9844 125.371H47.7363V119.008H48.9316V120.045H49.0137C49.1699 119.689 49.4043 119.414 49.7168 119.219C50.0332 119.023 50.4258 118.926 50.8945 118.926C51.332 118.926 51.7109 119.018 52.0312 119.201C52.3555 119.381 52.6055 119.65 52.7812 120.01C52.9609 120.369 53.0508 120.807 53.0508 121.322V125.371H51.8027V121.469C51.8027 121.164 51.75 120.902 51.6445 120.684C51.5391 120.465 51.3867 120.299 51.1875 120.186C50.9883 120.068 50.7461 120.01 50.4609 120.01C50.1719 120.01 49.916 120.072 49.6934 120.197C49.4707 120.318 49.2969 120.5 49.1719 120.742C49.0469 120.98 48.9844 121.266 48.9844 121.598V125.371Z" fill="white"/>
<path d="M41.2598 75.9492H342.351" stroke="white" stroke-width="0.99" stroke-miterlimit="10" stroke-dasharray="5.67 5.67"/>
<path d="M325.4 90.3574V90.3477H239.92H123.66H57.4902V151.897H123.66H239.92H325.4V151.888L356.17 121.118L325.4 90.3574Z" fill="#A786D1"/>
<path d="M94.3203 0.00976562V0H57.4902V61.5498H94.3203V61.54L107.58 30.7695L94.3203 0.00976562Z" fill="#78DDAA"/>
<path d="M73.0628 40.7305H70.7896L77.3643 22.825H79.6025L86.1771 40.7305H83.904L78.5533 25.6577H78.4135L73.0628 40.7305ZM73.9021 33.7362H83.0647V35.6596H73.9021V33.7362Z" fill="white"/>
<path d="M185.463 129.551H183.19L189.765 111.645H192.003L198.578 129.551H196.304L190.954 114.478H190.814L185.463 129.551ZM186.303 122.556H195.465V124.48H186.303V122.556Z" fill="white"/>
</svg>
