<svg width="385" height="167" viewBox="0 0 385 167" fill="none" xmlns="http://www.w3.org/2000/svg">
<path d="M6.05273 25.5762C6.05273 26.6895 5.90625 27.7109 5.61328 28.6406C5.32031 29.5664 4.8125 30.4316 4.08984 31.2363C3.37109 32.0371 2.39648 32.7422 1.16602 33.3516L0.5625 32.4727C1.64062 31.9492 2.50391 31.3516 3.15234 30.6797C3.80078 30.0039 4.26562 29.2598 4.54688 28.4473C4.82812 27.6309 4.96875 26.7188 4.96875 25.7109V25.5762H6.05273ZM5.53711 26.4844H1.1543V25.5762H5.53711V26.4844ZM0.779297 29.4141L0.615234 28.4473L4.85156 28.1777V29.0332L0.779297 29.4141ZM9.11719 35.0098H7.99219V24.5098H9.11719V35.0098ZM20.3438 30.5156H10.7578V29.625H20.3438V30.5156ZM16.0898 29.9941H15.0059V27.9727H16.0898V29.9941ZM19.2305 28.5117H11.959V27.6211H19.2305V28.5117ZM19.166 25.875H13.0547V28.1777H11.959V24.9961H19.166V25.875ZM15.5391 31.1953C16.293 31.1953 16.9414 31.2695 17.4844 31.418C18.0312 31.5664 18.4473 31.7832 18.7324 32.0684C19.0215 32.3535 19.166 32.6992 19.166 33.1055C19.166 33.5078 19.0215 33.8516 18.7324 34.1367C18.4473 34.4219 18.0332 34.6387 17.4902 34.7871C16.9473 34.9355 16.2969 35.0117 15.5391 35.0156C14.7812 35.0117 14.1289 34.9355 13.582 34.7871C13.0352 34.6387 12.6172 34.4219 12.3281 34.1367C12.0391 33.8516 11.8945 33.5078 11.8945 33.1055C11.8945 32.6992 12.0391 32.3535 12.3281 32.0684C12.6172 31.7832 13.0352 31.5664 13.582 31.418C14.1289 31.2695 14.7812 31.1953 15.5391 31.1953ZM15.5391 32.0625C15.0039 32.0625 14.5488 32.1035 14.1738 32.1855C13.7988 32.2637 13.5137 32.3809 13.3184 32.5371C13.123 32.6934 13.0254 32.8828 13.0254 33.1055C13.0254 33.3281 13.123 33.5176 13.3184 33.6738C13.5137 33.8301 13.7988 33.9473 14.1738 34.0254C14.5488 34.1035 15.0039 34.1426 15.5391 34.1426C16.0742 34.1426 16.5273 34.1035 16.8984 34.0254C17.2734 33.9473 17.5586 33.8301 17.7539 33.6738C17.9492 33.5137 18.0469 33.3242 18.0469 33.1055C18.0469 32.8828 17.9492 32.6934 17.7539 32.5371C17.5586 32.3809 17.2715 32.2637 16.8926 32.1855C16.5176 32.1035 16.0664 32.0625 15.5391 32.0625ZM24.5859 26.3965C24.5859 27.0371 24.4668 27.6406 24.2285 28.207C23.9941 28.7695 23.6562 29.2578 23.2148 29.6719C22.7734 30.0859 22.25 30.4004 21.6445 30.6152L21.0527 29.7539C21.5879 29.5664 22.0527 29.3008 22.4473 28.957C22.8457 28.6133 23.1523 28.2207 23.3672 27.7793C23.582 27.334 23.6895 26.873 23.6895 26.3965V25.5938H24.5859V26.3965ZM24.791 26.3965C24.791 26.8457 24.8926 27.2793 25.0957 27.6973C25.2988 28.1113 25.5898 28.4805 25.9688 28.8047C26.3516 29.1289 26.8047 29.3809 27.3281 29.5605L26.7656 30.4219C26.1719 30.2148 25.6582 29.9121 25.2246 29.5137C24.791 29.1113 24.459 28.6445 24.2285 28.1133C24.002 27.5781 23.8887 27.0059 23.8887 26.3965V25.5938H24.791V26.3965ZM27.0645 26.1094H21.375V25.2129H27.0645V26.1094ZM29.3789 30.8438H28.2715V24.5098H29.3789V30.8438ZM30.9082 28.1484H29.0684V27.2109H30.9082V28.1484ZM29.3789 35.0098H28.2715V32.2617H22.4414V31.3652H29.3789V35.0098Z" fill="white"/>
<path d="M9.22168 120.361H8.12598V114.959H9.22168V120.361ZM9.2334 123.496H3.4502V124.832H2.36035V122.646H8.13184V121.744H2.33691V120.865H9.2334V123.496ZM9.58496 125.359H2.36035V124.469H9.58496V125.359ZM4.13574 116.043C4.13574 116.691 4.0127 117.301 3.7666 117.871C3.52051 118.441 3.1709 118.938 2.71777 119.359C2.26465 119.781 1.7334 120.096 1.12402 120.303L0.555664 119.424C1.09863 119.24 1.56934 118.979 1.96777 118.639C2.36621 118.295 2.67285 117.898 2.8877 117.449C3.10254 116.996 3.20996 116.527 3.20996 116.043V115.24H4.13574V116.043ZM4.35254 116.043C4.35254 116.516 4.45605 116.965 4.66309 117.391C4.87402 117.816 5.17676 118.189 5.57129 118.51C5.96582 118.83 6.42871 119.076 6.95996 119.248L6.41504 120.109C5.80957 119.906 5.28027 119.605 4.82715 119.207C4.37793 118.809 4.03027 118.338 3.78418 117.795C3.53809 117.252 3.41504 116.668 3.41504 116.043V115.24H4.35254V116.043ZM19.9092 125.459H18.8545V114.959H19.9092V125.459ZM17.0498 119.588H15.0869V118.691H17.0498V119.588ZM17.7764 124.938H16.7275V115.193H17.7764V124.938ZM13.8506 117.895C13.8506 118.676 13.7549 119.424 13.5635 120.139C13.376 120.854 13.1025 121.496 12.7432 122.066C12.3838 122.637 11.9463 123.082 11.4307 123.402L10.7393 122.57C11.2236 122.281 11.6357 121.891 11.9756 121.398C12.3154 120.906 12.5693 120.359 12.7373 119.758C12.9053 119.152 12.9893 118.531 12.9893 117.895V116.617H13.8506V117.895ZM14.0615 117.895C14.0615 118.508 14.1436 119.102 14.3076 119.676C14.4717 120.246 14.7197 120.764 15.0518 121.229C15.3838 121.689 15.7881 122.059 16.2646 122.336L15.5967 123.156C15.085 122.844 14.6514 122.42 14.2959 121.885C13.9443 121.346 13.6787 120.734 13.499 120.051C13.3232 119.367 13.2354 118.648 13.2354 117.895V116.617H14.0615V117.895ZM15.8721 117.051H11.0674V116.143H15.8721V117.051ZM32.0029 116.523H25.3643V115.621H32.0029V116.523ZM33.7725 121.029H24.1982V120.121H33.7725V121.029ZM29.5127 125.482H28.3994V120.736H29.5127V125.482ZM32.5537 116.547C32.5537 117.055 32.5479 117.492 32.5361 117.859C32.5244 118.223 32.4873 118.645 32.4248 119.125C32.3662 119.602 32.2725 120.119 32.1436 120.678L31.042 120.549C31.1709 120.014 31.2646 119.514 31.3232 119.049C31.3818 118.584 31.417 118.172 31.4287 117.812C31.4404 117.453 31.4463 117.033 31.4463 116.553V115.621H32.5537V116.547ZM43.3232 122.975H42.21V114.971H43.3232V122.975ZM42.6553 118.615H40.5283V117.707H42.6553V118.615ZM42.6553 120.812H40.5283V119.916H42.6553V120.812ZM40.4873 117.086H34.5869V116.195H40.4873V117.086ZM37.5752 117.596C38.0439 117.596 38.4639 117.68 38.835 117.848C39.2061 118.016 39.4932 118.254 39.6963 118.562C39.9033 118.867 40.0068 119.221 40.0068 119.623C40.0068 120.018 39.9033 120.369 39.6963 120.678C39.4932 120.982 39.2061 121.221 38.835 121.393C38.4639 121.564 38.0439 121.65 37.5752 121.65C37.1104 121.65 36.6963 121.564 36.333 121.393C35.9697 121.221 35.6846 120.982 35.4775 120.678C35.2744 120.369 35.1729 120.018 35.1729 119.623C35.1729 119.225 35.2744 118.871 35.4775 118.562C35.6846 118.254 35.9697 118.016 36.333 117.848C36.6963 117.68 37.1104 117.596 37.5752 117.596ZM37.5752 118.469C37.3135 118.469 37.0771 118.516 36.8662 118.609C36.6553 118.703 36.4932 118.838 36.3799 119.014C36.2666 119.189 36.21 119.393 36.21 119.623C36.21 119.85 36.2666 120.051 36.3799 120.227C36.4932 120.402 36.6533 120.539 36.8604 120.637C37.0713 120.73 37.3096 120.777 37.5752 120.777C37.8486 120.777 38.0889 120.73 38.2959 120.637C38.5029 120.539 38.665 120.402 38.7822 120.227C38.8994 120.051 38.958 119.85 38.958 119.623C38.958 119.393 38.8994 119.189 38.7822 119.014C38.665 118.838 38.5029 118.703 38.2959 118.609C38.0889 118.516 37.8486 118.469 37.5752 118.469ZM38.1436 116.758H37.0361V114.953H38.1436V116.758ZM43.5576 125.254H36.4619V124.334H43.5576V125.254ZM37.5869 124.768H36.4619V122.277H37.5869V124.768Z" fill="white"/>
<path d="M41.25 78.9922H384.29" stroke="white" stroke-width="0.99" stroke-miterlimit="10" stroke-dasharray="5.67 5.67"/>
<path d="M103.8 90.4395V90.4297H58.0703V151.979H103.8V151.97L120.26 121.2L103.8 90.4395Z" fill="#A786D1"/>
<path d="M78.8821 129.629H76.609L83.1836 111.723H85.4218L91.9965 129.629H89.7233L84.3727 114.556H84.2328L78.8821 129.629ZM79.7215 122.635H88.884V124.558H79.7215V122.635Z" fill="white"/>
<path d="M165.37 90.4395V90.4297H120.26V151.979H165.37V151.97L181.61 121.2L165.37 90.4395Z" fill="#A786D1"/>
<path d="M141.082 129.629H138.809L145.384 111.723H147.622L154.197 129.629H151.924L146.573 114.556H146.433L141.082 129.629ZM141.922 122.635H151.084V124.558H141.922V122.635Z" fill="white"/>
<path d="M226.72 90.4395V90.4297H181.61V151.979H226.72V151.97L242.95 121.2L226.72 90.4395Z" fill="#A786D1"/>
<path d="M202.433 129.629H200.16L206.734 111.723H208.973L215.547 129.629H213.274L207.923 114.556H207.784L202.433 129.629ZM203.272 122.635H212.435V124.558H203.272V122.635Z" fill="white"/>
<path d="M288.07 90.4395V90.4297H242.95V151.979H288.07V151.97L304.3 121.2L288.07 90.4395Z" fill="#A786D1"/>
<path d="M263.773 129.629H261.5L268.074 111.723H270.312L276.887 129.629H274.614L269.263 114.556H269.123L263.773 129.629ZM264.612 122.635H273.775V124.558H264.612V122.635Z" fill="white"/>
<path d="M350.04 90.4395V90.4297H304.3V151.979H350.04V151.97L366.5 121.2L350.04 90.4395Z" fill="#A786D1"/>
<path d="M325.122 129.629H322.849L329.424 111.723H331.662L338.237 129.629H335.964L330.613 114.556H330.473L325.122 129.629ZM325.962 122.635H335.124V124.558H325.962V122.635Z" fill="white"/>
<path d="M120.26 166.416V163.586" stroke="white" stroke-width="0.99" stroke-miterlimit="10"/>
<path d="M120.26 157.606V88.9062" stroke="white" stroke-width="0.99" stroke-miterlimit="10" stroke-dasharray="5.97 5.97"/>
<path d="M120.26 85.918V83.0781" stroke="white" stroke-width="0.99" stroke-miterlimit="10"/>
<path d="M182.46 166.416V163.586" stroke="white" stroke-width="0.99" stroke-miterlimit="10"/>
<path d="M182.46 157.606V88.9062" stroke="white" stroke-width="0.99" stroke-miterlimit="10" stroke-dasharray="5.97 5.97"/>
<path d="M182.46 85.918V83.0781" stroke="white" stroke-width="0.99" stroke-miterlimit="10"/>
<path d="M243.8 166.416V163.586" stroke="white" stroke-width="0.99" stroke-miterlimit="10"/>
<path d="M243.8 157.606V88.9062" stroke="white" stroke-width="0.99" stroke-miterlimit="10" stroke-dasharray="5.97 5.97"/>
<path d="M243.8 85.918V83.0781" stroke="white" stroke-width="0.99" stroke-miterlimit="10"/>
<path d="M305.149 166.416V163.586" stroke="white" stroke-width="0.99" stroke-miterlimit="10"/>
<path d="M305.149 157.606V88.9062" stroke="white" stroke-width="0.99" stroke-miterlimit="10" stroke-dasharray="5.97 5.97"/>
<path d="M305.149 85.918V83.0781" stroke="white" stroke-width="0.99" stroke-miterlimit="10"/>
<path d="M366.5 166.416V163.586" stroke="white" stroke-width="0.99" stroke-miterlimit="10"/>
<path d="M366.5 157.606V88.9062" stroke="white" stroke-width="0.99" stroke-miterlimit="10" stroke-dasharray="5.97 5.97"/>
<path d="M366.5 85.918V83.0781" stroke="white" stroke-width="0.99" stroke-miterlimit="10"/>
<path d="M334.64 0H246.12H125.729H57.21V61.54H125.729H246.12H334.64V61.5303L366.5 30.7695L334.64 0Z" fill="#78DDAA"/>
<path d="M202.433 38.8516H200.16L206.734 20.9461H208.973L215.547 38.8516H213.274L207.923 23.7788H207.784L202.433 38.8516ZM203.272 31.8572H212.435V33.7807H203.272V31.8572Z" fill="white"/>
</svg>
