<svg width="385" height="167" viewBox="0 0 385 167" fill="none" xmlns="http://www.w3.org/2000/svg">
<path d="M0.867188 19.5352H2.15625V23.584H2.26172L5.80664 19.5352H7.43555L4.00781 23.3555L7.44727 28.0195H5.88281L3.15234 24.2344L2.15625 25.3887V28.0195H0.867188V19.5352ZM10.6582 28.1484C10.0449 28.1484 9.50781 28.0137 9.04688 27.7441C8.58984 27.4746 8.23828 27.0938 7.99219 26.6016C7.74609 26.1094 7.62305 25.5371 7.62305 24.8848C7.62305 24.2324 7.74609 23.6562 7.99219 23.1562C8.23828 22.6523 8.58398 22.2637 9.0293 21.9902C9.47461 21.7129 9.98828 21.5742 10.5703 21.5742C11.0859 21.5742 11.5566 21.6855 11.9824 21.9082C12.4082 22.127 12.75 22.4766 13.0078 22.957C13.2656 23.4336 13.3945 24.0371 13.3945 24.7676V25.207H8.32617V24.2754H12.1699C12.1699 23.9512 12.1035 23.6641 11.9707 23.4141C11.8418 23.1602 11.6562 22.9609 11.4141 22.8164C11.1719 22.6719 10.8945 22.5996 10.582 22.5996C10.2422 22.5996 9.94336 22.6816 9.68555 22.8457C9.42773 23.0098 9.22656 23.2305 9.08203 23.5078C8.9375 23.7852 8.86523 24.082 8.86523 24.3984V25.125C8.86523 25.543 8.93945 25.9023 9.08789 26.2031C9.24023 26.5039 9.45117 26.7324 9.7207 26.8887C9.99414 27.0449 10.3086 27.123 10.6641 27.123C10.8906 27.123 11.0957 27.0918 11.2793 27.0293C11.4629 26.9629 11.6191 26.8809 11.748 26.7832C11.877 26.6816 11.9766 26.5625 12.0469 26.4258H13.3184C13.2246 26.7695 13.0566 27.0703 12.8145 27.3281C12.5723 27.5859 12.2656 27.7871 11.8945 27.9316C11.5273 28.0762 11.1152 28.1484 10.6582 28.1484ZM15.1992 30.4102C14.9492 30.4102 14.7266 30.4023 14.5312 30.3867V29.332L14.7539 29.3438C14.8359 29.3516 14.9492 29.3555 15.0938 29.3555C15.2539 29.3555 15.3867 29.3398 15.4922 29.3086C15.6016 29.2773 15.707 29.1992 15.8086 29.0742C15.9141 28.9531 16.0098 28.7676 16.0957 28.5176L16.2598 28.1133L13.9219 21.6562H15.2695L16.8691 26.584H16.9395L18.5449 21.6562H19.8926L17.2676 28.8633C17.0762 29.3711 16.8125 29.7559 16.4766 30.0176C16.1406 30.2793 15.7148 30.4102 15.1992 30.4102ZM0.222656 42.0195L3.26953 33.5352H4.76367L7.81641 42.0195H6.43945L4.04883 35.0879H3.97852L1.58203 42.0195H0.222656ZM6.2168 38.6973V39.7754H1.81055V38.6973H6.2168ZM11.3906 42.1484C10.7852 42.1484 10.2559 42.0078 9.80273 41.7266C9.35352 41.4453 9.00781 41.0566 8.76562 40.5605C8.52734 40.0645 8.4082 39.5 8.4082 38.8672C8.4082 38.2227 8.53125 37.6523 8.77734 37.1562C9.02344 36.6562 9.36914 36.2676 9.81445 35.9902C10.2598 35.7129 10.7773 35.5742 11.3672 35.5742C11.8516 35.5742 12.2852 35.6621 12.668 35.8379C13.0508 36.0137 13.3574 36.2637 13.5879 36.5879C13.8184 36.9121 13.957 37.2871 14.0039 37.7129H12.7852C12.7422 37.5098 12.6582 37.3262 12.5332 37.1621C12.4121 36.9941 12.2559 36.8613 12.0645 36.7637C11.873 36.666 11.6504 36.6172 11.3965 36.6172C11.0527 36.6172 10.75 36.707 10.4883 36.8867C10.2305 37.0664 10.0293 37.3223 9.88477 37.6543C9.74023 37.9863 9.66797 38.3789 9.66797 38.832C9.66797 39.2891 9.73828 39.6875 9.87891 40.0273C10.0234 40.3633 10.2246 40.623 10.4824 40.8066C10.7402 40.9902 11.0449 41.082 11.3965 41.082C11.6309 41.082 11.8438 41.041 12.0352 40.959C12.2305 40.873 12.3926 40.748 12.5215 40.584C12.6504 40.4199 12.7383 40.2246 12.7852 39.998H14.0039C13.957 40.4121 13.8203 40.7812 13.5938 41.1055C13.3711 41.4297 13.0703 41.6855 12.6914 41.873C12.3125 42.0566 11.8789 42.1484 11.3906 42.1484ZM18.1582 36.6523H14.6777V35.6562H18.1582V36.6523ZM16.8691 34.1328V40.1504C16.8691 40.377 16.9023 40.5508 16.9688 40.6719C17.0352 40.793 17.123 40.877 17.2324 40.9238C17.3418 40.9707 17.4727 40.9941 17.625 40.9941C17.8125 40.9941 18.0215 40.9863 18.252 40.9707V42.0488C18.0293 42.084 17.7715 42.1016 17.4785 42.1016C17.1387 42.1016 16.8262 42.0391 16.541 41.9141C16.2598 41.7852 16.0332 41.5938 15.8613 41.3398C15.6934 41.082 15.6094 40.7695 15.6094 40.4023V34.1328H16.8691ZM19.3887 35.6562H20.6367V42.0195H19.3887V35.6562ZM20.0098 34.6719C19.8691 34.6719 19.7383 34.6406 19.6172 34.5781C19.4961 34.5117 19.4004 34.4219 19.3301 34.3086C19.2598 34.1914 19.2246 34.0664 19.2246 33.9336C19.2246 33.7969 19.2598 33.6738 19.3301 33.5645C19.4004 33.4512 19.4961 33.3613 19.6172 33.2949C19.7383 33.2285 19.8691 33.1953 20.0098 33.1953C20.1582 33.1953 20.293 33.2285 20.4141 33.2949C20.5352 33.3613 20.6289 33.4512 20.6953 33.5645C20.7656 33.6738 20.8008 33.7969 20.8008 33.9336C20.8008 34.0664 20.7656 34.1914 20.6953 34.3086C20.6289 34.4219 20.5352 34.5117 20.4141 34.5781C20.293 34.6406 20.1582 34.6719 20.0098 34.6719ZM24.8555 42.1484C24.2617 42.1484 23.7383 42.0117 23.2852 41.7383C22.8359 41.4648 22.4883 41.0801 22.2422 40.584C21.9961 40.0879 21.873 39.5156 21.873 38.8672C21.873 38.2109 21.9961 37.6348 22.2422 37.1387C22.4883 36.6426 22.8359 36.2578 23.2852 35.9844C23.7383 35.7109 24.2617 35.5742 24.8555 35.5742C25.4453 35.5742 25.9648 35.7109 26.4141 35.9844C26.8633 36.2578 27.209 36.6426 27.4512 37.1387C27.6934 37.6348 27.8145 38.2109 27.8145 38.8672C27.8145 39.5156 27.6934 40.0879 27.4512 40.584C27.209 41.0801 26.8633 41.4648 26.4141 41.7383C25.9648 42.0117 25.4453 42.1484 24.8555 42.1484ZM24.8555 41.1055C25.2305 41.1055 25.5449 41.0059 25.7988 40.8066C26.0527 40.6035 26.2422 40.334 26.3672 39.998C26.4922 39.6582 26.5547 39.2793 26.5547 38.8613C26.5547 38.4434 26.4922 38.0645 26.3672 37.7246C26.2422 37.3848 26.0527 37.1152 25.7988 36.916C25.5449 36.7129 25.2305 36.6113 24.8555 36.6113C24.4805 36.6113 24.1641 36.7129 23.9062 36.916C23.6484 37.1152 23.4551 37.3848 23.3262 37.7246C23.1973 38.0645 23.1328 38.4434 23.1328 38.8613C23.1328 39.2793 23.1973 39.6582 23.3262 39.998C23.4551 40.334 23.6484 40.6035 23.9062 40.8066C24.1641 41.0059 24.4805 41.1055 24.8555 41.1055ZM30.3164 42.0195H29.0684V35.6562H30.2637V36.6934H30.3457C30.502 36.3379 30.7363 36.0625 31.0488 35.8672C31.3652 35.6719 31.7578 35.5742 32.2266 35.5742C32.6641 35.5742 33.043 35.666 33.3633 35.8496C33.6875 36.0293 33.9375 36.2988 34.1133 36.6582C34.293 37.0176 34.3828 37.4551 34.3828 37.9707V42.0195H33.1348V38.1172C33.1348 37.8125 33.082 37.5508 32.9766 37.332C32.8711 37.1133 32.7188 36.9473 32.5195 36.834C32.3203 36.7168 32.0781 36.6582 31.793 36.6582C31.5039 36.6582 31.248 36.7207 31.0254 36.8457C30.8027 36.9668 30.6289 37.1484 30.5039 37.3906C30.3789 37.6289 30.3164 37.9141 30.3164 38.2461V42.0195Z" fill="white"/>
<path d="M1.00684 115.984H6.33301V117.092H2.2959V119.67H6.05176V120.771H2.2959V123.361H6.37402V124.469H1.00684V115.984ZM10.1768 120.578L11.5889 118.105H12.96L10.9736 121.281L12.9717 124.469H11.6182L10.1768 122.09L8.76465 124.469H7.39355L9.35645 121.281L7.41113 118.105H8.78809L10.1768 120.578ZM16.5869 124.598C15.9736 124.598 15.4365 124.463 14.9756 124.193C14.5186 123.924 14.167 123.543 13.9209 123.051C13.6748 122.559 13.5518 121.986 13.5518 121.334C13.5518 120.682 13.6748 120.105 13.9209 119.605C14.167 119.102 14.5127 118.713 14.958 118.439C15.4033 118.162 15.917 118.023 16.499 118.023C17.0146 118.023 17.4854 118.135 17.9111 118.357C18.3369 118.576 18.6787 118.926 18.9365 119.406C19.1943 119.883 19.3232 120.486 19.3232 121.217V121.656H14.2549V120.725H18.0986C18.0986 120.4 18.0322 120.113 17.8994 119.863C17.7705 119.609 17.585 119.41 17.3428 119.266C17.1006 119.121 16.8232 119.049 16.5107 119.049C16.1709 119.049 15.8721 119.131 15.6143 119.295C15.3564 119.459 15.1553 119.68 15.0107 119.957C14.8662 120.234 14.7939 120.531 14.7939 120.848V121.574C14.7939 121.992 14.8682 122.352 15.0166 122.652C15.1689 122.953 15.3799 123.182 15.6494 123.338C15.9229 123.494 16.2373 123.572 16.5928 123.572C16.8193 123.572 17.0244 123.541 17.208 123.479C17.3916 123.412 17.5479 123.33 17.6768 123.232C17.8057 123.131 17.9053 123.012 17.9756 122.875H19.2471C19.1533 123.219 18.9854 123.52 18.7432 123.777C18.501 124.035 18.1943 124.236 17.8232 124.381C17.4561 124.525 17.0439 124.598 16.5869 124.598ZM23.249 124.598C22.6436 124.598 22.1143 124.457 21.6611 124.176C21.2119 123.895 20.8662 123.506 20.624 123.01C20.3857 122.514 20.2666 121.949 20.2666 121.316C20.2666 120.672 20.3896 120.102 20.6357 119.605C20.8818 119.105 21.2275 118.717 21.6729 118.439C22.1182 118.162 22.6357 118.023 23.2256 118.023C23.71 118.023 24.1436 118.111 24.5264 118.287C24.9092 118.463 25.2158 118.713 25.4463 119.037C25.6768 119.361 25.8154 119.736 25.8623 120.162H24.6436C24.6006 119.959 24.5166 119.775 24.3916 119.611C24.2705 119.443 24.1143 119.311 23.9229 119.213C23.7314 119.115 23.5088 119.066 23.2549 119.066C22.9111 119.066 22.6084 119.156 22.3467 119.336C22.0889 119.516 21.8877 119.771 21.7432 120.104C21.5986 120.436 21.5264 120.828 21.5264 121.281C21.5264 121.738 21.5967 122.137 21.7373 122.477C21.8818 122.812 22.083 123.072 22.3408 123.256C22.5986 123.439 22.9033 123.531 23.2549 123.531C23.4893 123.531 23.7021 123.49 23.8936 123.408C24.0889 123.322 24.251 123.197 24.3799 123.033C24.5088 122.869 24.5967 122.674 24.6436 122.447H25.8623C25.8154 122.861 25.6787 123.23 25.4521 123.555C25.2295 123.879 24.9287 124.135 24.5498 124.322C24.1709 124.506 23.7373 124.598 23.249 124.598ZM31.0889 118.105H32.3311V124.469H31.1123V123.367H31.042C30.8818 123.723 30.6396 124.01 30.3154 124.229C29.9951 124.443 29.6045 124.551 29.1436 124.551C28.7295 124.551 28.3662 124.459 28.0537 124.275C27.7412 124.092 27.4951 123.82 27.3154 123.461C27.1396 123.098 27.0518 122.66 27.0518 122.148V118.105H28.2998V122.002C28.2998 122.283 28.3525 122.531 28.458 122.746C28.5674 122.957 28.7197 123.121 28.915 123.238C29.1143 123.355 29.3389 123.414 29.5889 123.414C29.835 123.414 30.0732 123.354 30.3037 123.232C30.5342 123.111 30.7217 122.93 30.8662 122.688C31.0146 122.445 31.0889 122.156 31.0889 121.82V118.105ZM36.8252 119.102H33.3447V118.105H36.8252V119.102ZM35.5361 116.582V122.6C35.5361 122.826 35.5693 123 35.6357 123.121C35.7021 123.242 35.79 123.326 35.8994 123.373C36.0088 123.42 36.1396 123.443 36.292 123.443C36.4795 123.443 36.6885 123.436 36.9189 123.42V124.498C36.6963 124.533 36.4385 124.551 36.1455 124.551C35.8057 124.551 35.4932 124.488 35.208 124.363C34.9268 124.234 34.7002 124.043 34.5283 123.789C34.3604 123.531 34.2764 123.219 34.2764 122.852V116.582H35.5361ZM38.0557 118.105H39.3037V124.469H38.0557V118.105ZM38.6768 117.121C38.5361 117.121 38.4053 117.09 38.2842 117.027C38.1631 116.961 38.0674 116.871 37.9971 116.758C37.9268 116.641 37.8916 116.516 37.8916 116.383C37.8916 116.246 37.9268 116.123 37.9971 116.014C38.0674 115.9 38.1631 115.811 38.2842 115.744C38.4053 115.678 38.5361 115.645 38.6768 115.645C38.8252 115.645 38.96 115.678 39.0811 115.744C39.2021 115.811 39.2959 115.9 39.3623 116.014C39.4326 116.123 39.4678 116.246 39.4678 116.383C39.4678 116.516 39.4326 116.641 39.3623 116.758C39.2959 116.871 39.2021 116.961 39.0811 117.027C38.96 117.09 38.8252 117.121 38.6768 117.121ZM43.5225 124.598C42.9287 124.598 42.4053 124.461 41.9521 124.188C41.5029 123.914 41.1553 123.529 40.9092 123.033C40.6631 122.537 40.54 121.965 40.54 121.316C40.54 120.66 40.6631 120.084 40.9092 119.588C41.1553 119.092 41.5029 118.707 41.9521 118.434C42.4053 118.16 42.9287 118.023 43.5225 118.023C44.1123 118.023 44.6318 118.16 45.0811 118.434C45.5303 118.707 45.876 119.092 46.1182 119.588C46.3604 120.084 46.4814 120.66 46.4814 121.316C46.4814 121.965 46.3604 122.537 46.1182 123.033C45.876 123.529 45.5303 123.914 45.0811 124.188C44.6318 124.461 44.1123 124.598 43.5225 124.598ZM43.5225 123.555C43.8975 123.555 44.2119 123.455 44.4658 123.256C44.7197 123.053 44.9092 122.783 45.0342 122.447C45.1592 122.107 45.2217 121.729 45.2217 121.311C45.2217 120.893 45.1592 120.514 45.0342 120.174C44.9092 119.834 44.7197 119.564 44.4658 119.365C44.2119 119.162 43.8975 119.061 43.5225 119.061C43.1475 119.061 42.8311 119.162 42.5732 119.365C42.3154 119.564 42.1221 119.834 41.9932 120.174C41.8643 120.514 41.7998 120.893 41.7998 121.311C41.7998 121.729 41.8643 122.107 41.9932 122.447C42.1221 122.783 42.3154 123.053 42.5732 123.256C42.8311 123.455 43.1475 123.555 43.5225 123.555ZM48.9834 124.469H47.7354V118.105H48.9307V119.143H49.0127C49.1689 118.787 49.4033 118.512 49.7158 118.316C50.0322 118.121 50.4248 118.023 50.8936 118.023C51.3311 118.023 51.71 118.115 52.0303 118.299C52.3545 118.479 52.6045 118.748 52.7803 119.107C52.96 119.467 53.0498 119.904 53.0498 120.42V124.469H51.8018V120.566C51.8018 120.262 51.749 120 51.6436 119.781C51.5381 119.562 51.3857 119.396 51.1865 119.283C50.9873 119.166 50.7451 119.107 50.46 119.107C50.1709 119.107 49.915 119.17 49.6924 119.295C49.4697 119.416 49.2959 119.598 49.1709 119.84C49.0459 120.078 48.9834 120.363 48.9834 120.695V124.469Z" fill="white"/>
<path d="M41.25 78.9922H384.29" stroke="white" stroke-width="0.99" stroke-miterlimit="10" stroke-dasharray="5.67 5.67"/>
<path d="M103.8 90.4395V90.4297H58.0703V151.979H103.8V151.97L120.26 121.2L103.8 90.4395Z" fill="#A786D1"/>
<path d="M78.8821 129.629H76.609L83.1836 111.723H85.4218L91.9965 129.629H89.7233L84.3727 114.556H84.2328L78.8821 129.629ZM79.7215 122.635H88.884V124.558H79.7215V122.635Z" fill="white"/>
<path d="M165.37 90.4395V90.4297H120.26V151.979H165.37V151.97L181.61 121.2L165.37 90.4395Z" fill="#A786D1"/>
<path d="M141.082 129.629H138.809L145.384 111.723H147.622L154.197 129.629H151.924L146.573 114.556H146.433L141.082 129.629ZM141.922 122.635H151.084V124.558H141.922V122.635Z" fill="white"/>
<path d="M226.72 90.4395V90.4297H181.61V151.979H226.72V151.97L242.95 121.2L226.72 90.4395Z" fill="#A786D1"/>
<path d="M202.433 129.629H200.16L206.734 111.723H208.973L215.547 129.629H213.274L207.923 114.556H207.784L202.433 129.629ZM203.272 122.635H212.435V124.558H203.272V122.635Z" fill="white"/>
<path d="M288.07 90.4395V90.4297H242.95V151.979H288.07V151.97L304.3 121.2L288.07 90.4395Z" fill="#A786D1"/>
<path d="M263.773 129.629H261.5L268.074 111.723H270.312L276.887 129.629H274.614L269.263 114.556H269.123L263.773 129.629ZM264.612 122.635H273.775V124.558H264.612V122.635Z" fill="white"/>
<path d="M350.04 90.4395V90.4297H304.3V151.979H350.04V151.97L366.5 121.2L350.04 90.4395Z" fill="#A786D1"/>
<path d="M325.122 129.629H322.849L329.424 111.723H331.662L338.237 129.629H335.964L330.613 114.556H330.473L325.122 129.629ZM325.962 122.635H335.124V124.558H325.962V122.635Z" fill="white"/>
<path d="M120.26 166.416V163.586" stroke="white" stroke-width="0.99" stroke-miterlimit="10"/>
<path d="M120.26 157.606V88.9062" stroke="white" stroke-width="0.99" stroke-miterlimit="10" stroke-dasharray="5.97 5.97"/>
<path d="M120.26 85.918V83.0781" stroke="white" stroke-width="0.99" stroke-miterlimit="10"/>
<path d="M182.46 166.416V163.586" stroke="white" stroke-width="0.99" stroke-miterlimit="10"/>
<path d="M182.46 157.606V88.9062" stroke="white" stroke-width="0.99" stroke-miterlimit="10" stroke-dasharray="5.97 5.97"/>
<path d="M182.46 85.918V83.0781" stroke="white" stroke-width="0.99" stroke-miterlimit="10"/>
<path d="M243.8 166.416V163.586" stroke="white" stroke-width="0.99" stroke-miterlimit="10"/>
<path d="M243.8 157.606V88.9062" stroke="white" stroke-width="0.99" stroke-miterlimit="10" stroke-dasharray="5.97 5.97"/>
<path d="M243.8 85.918V83.0781" stroke="white" stroke-width="0.99" stroke-miterlimit="10"/>
<path d="M305.149 166.416V163.586" stroke="white" stroke-width="0.99" stroke-miterlimit="10"/>
<path d="M305.149 157.606V88.9062" stroke="white" stroke-width="0.99" stroke-miterlimit="10" stroke-dasharray="5.97 5.97"/>
<path d="M305.149 85.918V83.0781" stroke="white" stroke-width="0.99" stroke-miterlimit="10"/>
<path d="M366.5 166.416V163.586" stroke="white" stroke-width="0.99" stroke-miterlimit="10"/>
<path d="M366.5 157.606V88.9062" stroke="white" stroke-width="0.99" stroke-miterlimit="10" stroke-dasharray="5.97 5.97"/>
<path d="M366.5 85.918V83.0781" stroke="white" stroke-width="0.99" stroke-miterlimit="10"/>
<path d="M334.64 0H246.12H125.729H57.21V61.54H125.729H246.12H334.64V61.5303L366.5 30.7695L334.64 0Z" fill="#78DDAA"/>
<path d="M202.433 38.8516H200.16L206.734 20.9461H208.973L215.547 38.8516H213.274L207.923 23.7788H207.784L202.433 38.8516ZM203.272 31.8572H212.435V33.7807H203.272V31.8572Z" fill="white"/>
</svg>
