<svg width="378" height="182" viewBox="0 0 378 182" fill="none" xmlns="http://www.w3.org/2000/svg">
<path d="M6.05273 52.6855C6.05273 53.7988 5.90625 54.8203 5.61328 55.75C5.32031 56.6758 4.8125 57.541 4.08984 58.3457C3.37109 59.1465 2.39648 59.8516 1.16602 60.4609L0.5625 59.582C1.64062 59.0586 2.50391 58.4609 3.15234 57.7891C3.80078 57.1133 4.26562 56.3691 4.54688 55.5566C4.82812 54.7402 4.96875 53.8281 4.96875 52.8203V52.6855H6.05273ZM5.53711 53.5938H1.1543V52.6855H5.53711V53.5938ZM0.779297 56.5234L0.615234 55.5566L4.85156 55.2871V56.1426L0.779297 56.5234ZM9.11719 62.1191H7.99219V51.6191H9.11719V62.1191ZM20.3438 57.625H10.7578V56.7344H20.3438V57.625ZM16.0898 57.1035H15.0059V55.082H16.0898V57.1035ZM19.2305 55.6211H11.959V54.7305H19.2305V55.6211ZM19.166 52.9844H13.0547V55.2871H11.959V52.1055H19.166V52.9844ZM15.5391 58.3047C16.293 58.3047 16.9414 58.3789 17.4844 58.5273C18.0312 58.6758 18.4473 58.8926 18.7324 59.1777C19.0215 59.4629 19.166 59.8086 19.166 60.2148C19.166 60.6172 19.0215 60.9609 18.7324 61.2461C18.4473 61.5312 18.0332 61.748 17.4902 61.8965C16.9473 62.0449 16.2969 62.1211 15.5391 62.125C14.7812 62.1211 14.1289 62.0449 13.582 61.8965C13.0352 61.748 12.6172 61.5312 12.3281 61.2461C12.0391 60.9609 11.8945 60.6172 11.8945 60.2148C11.8945 59.8086 12.0391 59.4629 12.3281 59.1777C12.6172 58.8926 13.0352 58.6758 13.582 58.5273C14.1289 58.3789 14.7812 58.3047 15.5391 58.3047ZM15.5391 59.1719C15.0039 59.1719 14.5488 59.2129 14.1738 59.2949C13.7988 59.373 13.5137 59.4902 13.3184 59.6465C13.123 59.8027 13.0254 59.9922 13.0254 60.2148C13.0254 60.4375 13.123 60.627 13.3184 60.7832C13.5137 60.9395 13.7988 61.0566 14.1738 61.1348C14.5488 61.2129 15.0039 61.252 15.5391 61.252C16.0742 61.252 16.5273 61.2129 16.8984 61.1348C17.2734 61.0566 17.5586 60.9395 17.7539 60.7832C17.9492 60.623 18.0469 60.4336 18.0469 60.2148C18.0469 59.9922 17.9492 59.8027 17.7539 59.6465C17.5586 59.4902 17.2715 59.373 16.8926 59.2949C16.5176 59.2129 16.0664 59.1719 15.5391 59.1719ZM24.5859 53.5059C24.5859 54.1465 24.4668 54.75 24.2285 55.3164C23.9941 55.8789 23.6562 56.3672 23.2148 56.7812C22.7734 57.1953 22.25 57.5098 21.6445 57.7246L21.0527 56.8633C21.5879 56.6758 22.0527 56.4102 22.4473 56.0664C22.8457 55.7227 23.1523 55.3301 23.3672 54.8887C23.582 54.4434 23.6895 53.9824 23.6895 53.5059V52.7031H24.5859V53.5059ZM24.791 53.5059C24.791 53.9551 24.8926 54.3887 25.0957 54.8066C25.2988 55.2207 25.5898 55.5898 25.9688 55.9141C26.3516 56.2383 26.8047 56.4902 27.3281 56.6699L26.7656 57.5312C26.1719 57.3242 25.6582 57.0215 25.2246 56.623C24.791 56.2207 24.459 55.7539 24.2285 55.2227C24.002 54.6875 23.8887 54.1152 23.8887 53.5059V52.7031H24.791V53.5059ZM27.0645 53.2188H21.375V52.3223H27.0645V53.2188ZM29.3789 57.9531H28.2715V51.6191H29.3789V57.9531ZM30.9082 55.2578H29.0684V54.3203H30.9082V55.2578ZM29.3789 62.1191H28.2715V59.3711H22.4414V58.4746H29.3789V62.1191Z" fill="white"/>
<path d="M9.22168 151.682H8.12598V146.279H9.22168V151.682ZM9.2334 154.816H3.4502V156.152H2.36035V153.967H8.13184V153.064H2.33691V152.186H9.2334V154.816ZM9.58496 156.68H2.36035V155.789H9.58496V156.68ZM4.13574 147.363C4.13574 148.012 4.0127 148.621 3.7666 149.191C3.52051 149.762 3.1709 150.258 2.71777 150.68C2.26465 151.102 1.7334 151.416 1.12402 151.623L0.555664 150.744C1.09863 150.561 1.56934 150.299 1.96777 149.959C2.36621 149.615 2.67285 149.219 2.8877 148.77C3.10254 148.316 3.20996 147.848 3.20996 147.363V146.561H4.13574V147.363ZM4.35254 147.363C4.35254 147.836 4.45605 148.285 4.66309 148.711C4.87402 149.137 5.17676 149.51 5.57129 149.83C5.96582 150.15 6.42871 150.396 6.95996 150.568L6.41504 151.43C5.80957 151.227 5.28027 150.926 4.82715 150.527C4.37793 150.129 4.03027 149.658 3.78418 149.115C3.53809 148.572 3.41504 147.988 3.41504 147.363V146.561H4.35254V147.363ZM19.9092 156.779H18.8545V146.279H19.9092V156.779ZM17.0498 150.908H15.0869V150.012H17.0498V150.908ZM17.7764 156.258H16.7275V146.514H17.7764V156.258ZM13.8506 149.215C13.8506 149.996 13.7549 150.744 13.5635 151.459C13.376 152.174 13.1025 152.816 12.7432 153.387C12.3838 153.957 11.9463 154.402 11.4307 154.723L10.7393 153.891C11.2236 153.602 11.6357 153.211 11.9756 152.719C12.3154 152.227 12.5693 151.68 12.7373 151.078C12.9053 150.473 12.9893 149.852 12.9893 149.215V147.938H13.8506V149.215ZM14.0615 149.215C14.0615 149.828 14.1436 150.422 14.3076 150.996C14.4717 151.566 14.7197 152.084 15.0518 152.549C15.3838 153.01 15.7881 153.379 16.2646 153.656L15.5967 154.477C15.085 154.164 14.6514 153.74 14.2959 153.205C13.9443 152.666 13.6787 152.055 13.499 151.371C13.3232 150.688 13.2354 149.969 13.2354 149.215V147.938H14.0615V149.215ZM15.8721 148.371H11.0674V147.463H15.8721V148.371ZM32.0029 147.844H25.3643V146.941H32.0029V147.844ZM33.7725 152.35H24.1982V151.441H33.7725V152.35ZM29.5127 156.803H28.3994V152.057H29.5127V156.803ZM32.5537 147.867C32.5537 148.375 32.5479 148.812 32.5361 149.18C32.5244 149.543 32.4873 149.965 32.4248 150.445C32.3662 150.922 32.2725 151.439 32.1436 151.998L31.042 151.869C31.1709 151.334 31.2646 150.834 31.3232 150.369C31.3818 149.904 31.417 149.492 31.4287 149.133C31.4404 148.773 31.4463 148.354 31.4463 147.873V146.941H32.5537V147.867ZM43.3232 154.295H42.21V146.291H43.3232V154.295ZM42.6553 149.936H40.5283V149.027H42.6553V149.936ZM42.6553 152.133H40.5283V151.236H42.6553V152.133ZM40.4873 148.406H34.5869V147.516H40.4873V148.406ZM37.5752 148.916C38.0439 148.916 38.4639 149 38.835 149.168C39.2061 149.336 39.4932 149.574 39.6963 149.883C39.9033 150.188 40.0068 150.541 40.0068 150.943C40.0068 151.338 39.9033 151.689 39.6963 151.998C39.4932 152.303 39.2061 152.541 38.835 152.713C38.4639 152.885 38.0439 152.971 37.5752 152.971C37.1104 152.971 36.6963 152.885 36.333 152.713C35.9697 152.541 35.6846 152.303 35.4775 151.998C35.2744 151.689 35.1729 151.338 35.1729 150.943C35.1729 150.545 35.2744 150.191 35.4775 149.883C35.6846 149.574 35.9697 149.336 36.333 149.168C36.6963 149 37.1104 148.916 37.5752 148.916ZM37.5752 149.789C37.3135 149.789 37.0771 149.836 36.8662 149.93C36.6553 150.023 36.4932 150.158 36.3799 150.334C36.2666 150.51 36.21 150.713 36.21 150.943C36.21 151.17 36.2666 151.371 36.3799 151.547C36.4932 151.723 36.6533 151.859 36.8604 151.957C37.0713 152.051 37.3096 152.098 37.5752 152.098C37.8486 152.098 38.0889 152.051 38.2959 151.957C38.5029 151.859 38.665 151.723 38.7822 151.547C38.8994 151.371 38.958 151.17 38.958 150.943C38.958 150.713 38.8994 150.51 38.7822 150.334C38.665 150.158 38.5029 150.023 38.2959 149.93C38.0889 149.836 37.8486 149.789 37.5752 149.789ZM38.1436 148.078H37.0361V146.273H38.1436V148.078ZM43.5576 156.574H36.4619V155.654H43.5576V156.574ZM37.5869 156.088H36.4619V153.598H37.5869V156.088Z" fill="white"/>
<path d="M51.96 118.23H377.77" stroke="white" stroke-width="0.99" stroke-miterlimit="10" stroke-dasharray="5.67 5.67"/>
<path d="M333.97 0.0107422V0H248.1H131.33H64.8701V45H131.33H248.1H333.97L364.87 22.5L333.97 0.0107422Z" fill="#78DDAA"/>
<path d="M200.503 24.3264H202.881L204.874 26.9493L205.399 27.6487L208.372 31.6005H205.994L204.035 28.9776L203.546 28.3132L200.503 24.3264ZM209.106 20.9691C209.106 22.8576 208.765 24.4896 208.083 25.8652C207.401 27.2407 206.466 28.3015 205.277 29.0476C204.088 29.7936 202.73 30.1667 201.202 30.1667C199.675 30.1667 198.317 29.7936 197.128 29.0476C195.939 28.3015 195.004 27.2407 194.322 25.8652C193.64 24.4896 193.299 22.8576 193.299 20.9691C193.299 19.0807 193.64 17.4487 194.322 16.0731C195.004 14.6976 195.939 13.6368 197.128 12.8907C198.317 12.1446 199.675 11.7716 201.202 11.7716C202.73 11.7716 204.088 12.1446 205.277 12.8907C206.466 13.6368 207.401 14.6976 208.083 16.0731C208.765 17.4487 209.106 19.0807 209.106 20.9691ZM207.008 20.9691C207.008 19.4187 206.748 18.1102 206.23 17.0436C205.717 15.977 205.02 15.1697 204.14 14.6218C203.266 14.0739 202.287 13.8 201.202 13.8C200.118 13.8 199.136 14.0739 198.256 14.6218C197.382 15.1697 196.685 15.977 196.167 17.0436C195.654 18.1102 195.397 19.4187 195.397 20.9691C195.397 22.5196 195.654 23.8281 196.167 24.8947C196.685 25.9613 197.382 26.7686 198.256 27.3165C199.136 27.8644 200.118 28.1383 201.202 28.1383C202.287 28.1383 203.266 27.8644 204.14 27.3165C205.02 26.7686 205.717 25.9613 206.23 24.8947C206.748 23.8281 207.008 22.5196 207.008 20.9691Z" fill="white"/>
<path d="M333.97 136.408V136.398H248.1H131.33H64.8701V181.398H131.33H248.1H333.97L364.87 158.898L333.97 136.408Z" fill="#A786D1"/>
<path d="M134.183 160.131H136.561L138.554 162.754L139.079 163.453L142.051 167.405H139.673L137.715 164.782L137.225 164.118L134.183 160.131ZM142.786 156.774C142.786 158.662 142.445 160.294 141.763 161.67C141.081 163.045 140.145 164.106 138.956 164.852C137.767 165.598 136.409 165.971 134.882 165.971C133.355 165.971 131.997 165.598 130.808 164.852C129.619 164.106 128.683 163.045 128.001 161.67C127.32 160.294 126.979 158.662 126.979 156.774C126.979 154.885 127.32 153.253 128.001 151.878C128.683 150.502 129.619 149.441 130.808 148.695C131.997 147.949 133.355 147.576 134.882 147.576C136.409 147.576 137.767 147.949 138.956 148.695C140.145 149.441 141.081 150.502 141.763 151.878C142.445 153.253 142.786 154.885 142.786 156.774ZM140.687 156.774C140.687 155.223 140.428 153.915 139.909 152.848C139.396 151.782 138.7 150.974 137.82 150.426C136.945 149.879 135.966 149.605 134.882 149.605C133.798 149.605 132.816 149.879 131.936 150.426C131.062 150.974 130.365 151.782 129.846 152.848C129.333 153.915 129.077 155.223 129.077 156.774C129.077 158.324 129.333 159.633 129.846 160.699C130.365 161.766 131.062 162.573 131.936 163.121C132.816 163.669 133.798 163.943 134.882 163.943C135.966 163.943 136.945 163.669 137.82 163.121C138.7 162.573 139.396 161.766 139.909 160.699C140.428 159.633 140.687 158.324 140.687 156.774Z" fill="white"/>
<path d="M256.773 160.131H259.151L261.144 162.754L261.669 163.453L264.641 167.405H262.263L260.305 164.782L259.815 164.118L256.773 160.131ZM265.376 156.774C265.376 158.662 265.035 160.294 264.353 161.67C263.671 163.045 262.735 164.106 261.546 164.852C260.357 165.598 258.999 165.971 257.472 165.971C255.945 165.971 254.587 165.598 253.398 164.852C252.209 164.106 251.273 163.045 250.591 161.67C249.909 160.294 249.568 158.662 249.568 156.774C249.568 154.885 249.909 153.253 250.591 151.878C251.273 150.502 252.209 149.441 253.398 148.695C254.587 147.949 255.945 147.576 257.472 147.576C258.999 147.576 260.357 147.949 261.546 148.695C262.735 149.441 263.671 150.502 264.353 151.878C265.035 153.253 265.376 154.885 265.376 156.774ZM263.277 156.774C263.277 155.223 263.018 153.915 262.499 152.848C261.986 151.782 261.29 150.974 260.41 150.426C259.535 149.879 258.556 149.605 257.472 149.605C256.388 149.605 255.406 149.879 254.526 150.426C253.651 150.974 252.955 151.782 252.436 152.848C251.923 153.915 251.667 155.223 251.667 156.774C251.667 158.324 251.923 159.633 252.436 160.699C252.955 161.766 253.651 162.573 254.526 163.121C255.406 163.669 256.388 163.943 257.472 163.943C258.556 163.943 259.535 163.669 260.41 163.121C261.29 162.573 261.986 161.766 262.499 160.699C263.018 159.633 263.277 158.324 263.277 156.774ZM272.274 165.727L267.378 147.821H269.581L273.323 162.404H273.498L277.31 147.821H279.758L283.57 162.404H283.744L287.486 147.821H289.69L284.794 165.727H282.555L278.604 151.458H278.464L274.512 165.727H272.274Z" fill="white"/>
<path d="M334.1 55.0107V55H248.61H204.52V100H248.61H334.1L364.87 77.5L334.1 55.0107Z" fill="#57BAF7"/>
<path d="M262.491 85.5781L257.595 67.6727H259.798L263.54 82.2558H263.715L267.527 67.6727H269.975L273.787 82.2558H273.962L277.704 67.6727H279.907L275.011 85.5781H272.773L268.821 71.3097H268.681L264.729 85.5781H262.491Z" fill="white"/>
<path d="M203.85 181.4V178.57" stroke="white" stroke-width="0.99" stroke-miterlimit="10"/>
<path d="M203.85 173.34V123.68" stroke="white" stroke-width="0.99" stroke-miterlimit="10" stroke-dasharray="5.23 5.23"/>
<path d="M203.85 121.07V118.23" stroke="white" stroke-width="0.99" stroke-miterlimit="10"/>
</svg>
