<svg width="378" height="182" viewBox="0 0 378 182" fill="none" xmlns="http://www.w3.org/2000/svg">
<path d="M0.867188 46.6445H2.15625V50.6934H2.26172L5.80664 46.6445H7.43555L4.00781 50.4648L7.44727 55.1289H5.88281L3.15234 51.3438L2.15625 52.498V55.1289H0.867188V46.6445ZM10.6582 55.2578C10.0449 55.2578 9.50781 55.123 9.04688 54.8535C8.58984 54.584 8.23828 54.2031 7.99219 53.7109C7.74609 53.2188 7.62305 52.6465 7.62305 51.9941C7.62305 51.3418 7.74609 50.7656 7.99219 50.2656C8.23828 49.7617 8.58398 49.373 9.0293 49.0996C9.47461 48.8223 9.98828 48.6836 10.5703 48.6836C11.0859 48.6836 11.5566 48.7949 11.9824 49.0176C12.4082 49.2363 12.75 49.5859 13.0078 50.0664C13.2656 50.543 13.3945 51.1465 13.3945 51.877V52.3164H8.32617V51.3848H12.1699C12.1699 51.0605 12.1035 50.7734 11.9707 50.5234C11.8418 50.2695 11.6562 50.0703 11.4141 49.9258C11.1719 49.7812 10.8945 49.709 10.582 49.709C10.2422 49.709 9.94336 49.791 9.68555 49.9551C9.42773 50.1191 9.22656 50.3398 9.08203 50.6172C8.9375 50.8945 8.86523 51.1914 8.86523 51.5078V52.2344C8.86523 52.6523 8.93945 53.0117 9.08789 53.3125C9.24023 53.6133 9.45117 53.8418 9.7207 53.998C9.99414 54.1543 10.3086 54.2324 10.6641 54.2324C10.8906 54.2324 11.0957 54.2012 11.2793 54.1387C11.4629 54.0723 11.6191 53.9902 11.748 53.8926C11.877 53.791 11.9766 53.6719 12.0469 53.5352H13.3184C13.2246 53.8789 13.0566 54.1797 12.8145 54.4375C12.5723 54.6953 12.2656 54.8965 11.8945 55.041C11.5273 55.1855 11.1152 55.2578 10.6582 55.2578ZM15.1992 57.5195C14.9492 57.5195 14.7266 57.5117 14.5312 57.4961V56.4414L14.7539 56.4531C14.8359 56.4609 14.9492 56.4648 15.0938 56.4648C15.2539 56.4648 15.3867 56.4492 15.4922 56.418C15.6016 56.3867 15.707 56.3086 15.8086 56.1836C15.9141 56.0625 16.0098 55.877 16.0957 55.627L16.2598 55.2227L13.9219 48.7656H15.2695L16.8691 53.6934H16.9395L18.5449 48.7656H19.8926L17.2676 55.9727C17.0762 56.4805 16.8125 56.8652 16.4766 57.127C16.1406 57.3887 15.7148 57.5195 15.1992 57.5195ZM0.222656 69.1289L3.26953 60.6445H4.76367L7.81641 69.1289H6.43945L4.04883 62.1973H3.97852L1.58203 69.1289H0.222656ZM6.2168 65.8066V66.8848H1.81055V65.8066H6.2168ZM11.3906 69.2578C10.7852 69.2578 10.2559 69.1172 9.80273 68.8359C9.35352 68.5547 9.00781 68.166 8.76562 67.6699C8.52734 67.1738 8.4082 66.6094 8.4082 65.9766C8.4082 65.332 8.53125 64.7617 8.77734 64.2656C9.02344 63.7656 9.36914 63.377 9.81445 63.0996C10.2598 62.8223 10.7773 62.6836 11.3672 62.6836C11.8516 62.6836 12.2852 62.7715 12.668 62.9473C13.0508 63.123 13.3574 63.373 13.5879 63.6973C13.8184 64.0215 13.957 64.3965 14.0039 64.8223H12.7852C12.7422 64.6191 12.6582 64.4355 12.5332 64.2715C12.4121 64.1035 12.2559 63.9707 12.0645 63.873C11.873 63.7754 11.6504 63.7266 11.3965 63.7266C11.0527 63.7266 10.75 63.8164 10.4883 63.9961C10.2305 64.1758 10.0293 64.4316 9.88477 64.7637C9.74023 65.0957 9.66797 65.4883 9.66797 65.9414C9.66797 66.3984 9.73828 66.7969 9.87891 67.1367C10.0234 67.4727 10.2246 67.7324 10.4824 67.916C10.7402 68.0996 11.0449 68.1914 11.3965 68.1914C11.6309 68.1914 11.8438 68.1504 12.0352 68.0684C12.2305 67.9824 12.3926 67.8574 12.5215 67.6934C12.6504 67.5293 12.7383 67.334 12.7852 67.1074H14.0039C13.957 67.5215 13.8203 67.8906 13.5938 68.2148C13.3711 68.5391 13.0703 68.7949 12.6914 68.9824C12.3125 69.166 11.8789 69.2578 11.3906 69.2578ZM18.1582 63.7617H14.6777V62.7656H18.1582V63.7617ZM16.8691 61.2422V67.2598C16.8691 67.4863 16.9023 67.6602 16.9688 67.7812C17.0352 67.9023 17.123 67.9863 17.2324 68.0332C17.3418 68.0801 17.4727 68.1035 17.625 68.1035C17.8125 68.1035 18.0215 68.0957 18.252 68.0801V69.1582C18.0293 69.1934 17.7715 69.2109 17.4785 69.2109C17.1387 69.2109 16.8262 69.1484 16.541 69.0234C16.2598 68.8945 16.0332 68.7031 15.8613 68.4492C15.6934 68.1914 15.6094 67.8789 15.6094 67.5117V61.2422H16.8691ZM19.3887 62.7656H20.6367V69.1289H19.3887V62.7656ZM20.0098 61.7812C19.8691 61.7812 19.7383 61.75 19.6172 61.6875C19.4961 61.6211 19.4004 61.5312 19.3301 61.418C19.2598 61.3008 19.2246 61.1758 19.2246 61.043C19.2246 60.9062 19.2598 60.7832 19.3301 60.6738C19.4004 60.5605 19.4961 60.4707 19.6172 60.4043C19.7383 60.3379 19.8691 60.3047 20.0098 60.3047C20.1582 60.3047 20.293 60.3379 20.4141 60.4043C20.5352 60.4707 20.6289 60.5605 20.6953 60.6738C20.7656 60.7832 20.8008 60.9062 20.8008 61.043C20.8008 61.1758 20.7656 61.3008 20.6953 61.418C20.6289 61.5312 20.5352 61.6211 20.4141 61.6875C20.293 61.75 20.1582 61.7812 20.0098 61.7812ZM24.8555 69.2578C24.2617 69.2578 23.7383 69.1211 23.2852 68.8477C22.8359 68.5742 22.4883 68.1895 22.2422 67.6934C21.9961 67.1973 21.873 66.625 21.873 65.9766C21.873 65.3203 21.9961 64.7441 22.2422 64.248C22.4883 63.752 22.8359 63.3672 23.2852 63.0938C23.7383 62.8203 24.2617 62.6836 24.8555 62.6836C25.4453 62.6836 25.9648 62.8203 26.4141 63.0938C26.8633 63.3672 27.209 63.752 27.4512 64.248C27.6934 64.7441 27.8145 65.3203 27.8145 65.9766C27.8145 66.625 27.6934 67.1973 27.4512 67.6934C27.209 68.1895 26.8633 68.5742 26.4141 68.8477C25.9648 69.1211 25.4453 69.2578 24.8555 69.2578ZM24.8555 68.2148C25.2305 68.2148 25.5449 68.1152 25.7988 67.916C26.0527 67.7129 26.2422 67.4434 26.3672 67.1074C26.4922 66.7676 26.5547 66.3887 26.5547 65.9707C26.5547 65.5527 26.4922 65.1738 26.3672 64.834C26.2422 64.4941 26.0527 64.2246 25.7988 64.0254C25.5449 63.8223 25.2305 63.7207 24.8555 63.7207C24.4805 63.7207 24.1641 63.8223 23.9062 64.0254C23.6484 64.2246 23.4551 64.4941 23.3262 64.834C23.1973 65.1738 23.1328 65.5527 23.1328 65.9707C23.1328 66.3887 23.1973 66.7676 23.3262 67.1074C23.4551 67.4434 23.6484 67.7129 23.9062 67.916C24.1641 68.1152 24.4805 68.2148 24.8555 68.2148ZM30.3164 69.1289H29.0684V62.7656H30.2637V63.8027H30.3457C30.502 63.4473 30.7363 63.1719 31.0488 62.9766C31.3652 62.7812 31.7578 62.6836 32.2266 62.6836C32.6641 62.6836 33.043 62.7754 33.3633 62.959C33.6875 63.1387 33.9375 63.4082 34.1133 63.7676C34.293 64.127 34.3828 64.5645 34.3828 65.0801V69.1289H33.1348V65.2266C33.1348 64.9219 33.082 64.6602 32.9766 64.4414C32.8711 64.2227 32.7188 64.0566 32.5195 63.9434C32.3203 63.8262 32.0781 63.7676 31.793 63.7676C31.5039 63.7676 31.248 63.8301 31.0254 63.9551C30.8027 64.0762 30.6289 64.2578 30.5039 64.5C30.3789 64.7383 30.3164 65.0234 30.3164 65.3555V69.1289Z" fill="white"/>
<path d="M1.00684 147.305H6.33301V148.412H2.2959V150.99H6.05176V152.092H2.2959V154.682H6.37402V155.789H1.00684V147.305ZM10.1768 151.898L11.5889 149.426H12.96L10.9736 152.602L12.9717 155.789H11.6182L10.1768 153.41L8.76465 155.789H7.39355L9.35645 152.602L7.41113 149.426H8.78809L10.1768 151.898ZM16.5869 155.918C15.9736 155.918 15.4365 155.783 14.9756 155.514C14.5186 155.244 14.167 154.863 13.9209 154.371C13.6748 153.879 13.5518 153.307 13.5518 152.654C13.5518 152.002 13.6748 151.426 13.9209 150.926C14.167 150.422 14.5127 150.033 14.958 149.76C15.4033 149.482 15.917 149.344 16.499 149.344C17.0146 149.344 17.4854 149.455 17.9111 149.678C18.3369 149.896 18.6787 150.246 18.9365 150.727C19.1943 151.203 19.3232 151.807 19.3232 152.537V152.977H14.2549V152.045H18.0986C18.0986 151.721 18.0322 151.434 17.8994 151.184C17.7705 150.93 17.585 150.73 17.3428 150.586C17.1006 150.441 16.8232 150.369 16.5107 150.369C16.1709 150.369 15.8721 150.451 15.6143 150.615C15.3564 150.779 15.1553 151 15.0107 151.277C14.8662 151.555 14.7939 151.852 14.7939 152.168V152.895C14.7939 153.312 14.8682 153.672 15.0166 153.973C15.1689 154.273 15.3799 154.502 15.6494 154.658C15.9229 154.814 16.2373 154.893 16.5928 154.893C16.8193 154.893 17.0244 154.861 17.208 154.799C17.3916 154.732 17.5479 154.65 17.6768 154.553C17.8057 154.451 17.9053 154.332 17.9756 154.195H19.2471C19.1533 154.539 18.9854 154.84 18.7432 155.098C18.501 155.355 18.1943 155.557 17.8232 155.701C17.4561 155.846 17.0439 155.918 16.5869 155.918ZM23.249 155.918C22.6436 155.918 22.1143 155.777 21.6611 155.496C21.2119 155.215 20.8662 154.826 20.624 154.33C20.3857 153.834 20.2666 153.27 20.2666 152.637C20.2666 151.992 20.3896 151.422 20.6357 150.926C20.8818 150.426 21.2275 150.037 21.6729 149.76C22.1182 149.482 22.6357 149.344 23.2256 149.344C23.71 149.344 24.1436 149.432 24.5264 149.607C24.9092 149.783 25.2158 150.033 25.4463 150.357C25.6768 150.682 25.8154 151.057 25.8623 151.482H24.6436C24.6006 151.279 24.5166 151.096 24.3916 150.932C24.2705 150.764 24.1143 150.631 23.9229 150.533C23.7314 150.436 23.5088 150.387 23.2549 150.387C22.9111 150.387 22.6084 150.477 22.3467 150.656C22.0889 150.836 21.8877 151.092 21.7432 151.424C21.5986 151.756 21.5264 152.148 21.5264 152.602C21.5264 153.059 21.5967 153.457 21.7373 153.797C21.8818 154.133 22.083 154.393 22.3408 154.576C22.5986 154.76 22.9033 154.852 23.2549 154.852C23.4893 154.852 23.7021 154.811 23.8936 154.729C24.0889 154.643 24.251 154.518 24.3799 154.354C24.5088 154.189 24.5967 153.994 24.6436 153.768H25.8623C25.8154 154.182 25.6787 154.551 25.4521 154.875C25.2295 155.199 24.9287 155.455 24.5498 155.643C24.1709 155.826 23.7373 155.918 23.249 155.918ZM31.0889 149.426H32.3311V155.789H31.1123V154.688H31.042C30.8818 155.043 30.6396 155.33 30.3154 155.549C29.9951 155.764 29.6045 155.871 29.1436 155.871C28.7295 155.871 28.3662 155.779 28.0537 155.596C27.7412 155.412 27.4951 155.141 27.3154 154.781C27.1396 154.418 27.0518 153.98 27.0518 153.469V149.426H28.2998V153.322C28.2998 153.604 28.3525 153.852 28.458 154.066C28.5674 154.277 28.7197 154.441 28.915 154.559C29.1143 154.676 29.3389 154.734 29.5889 154.734C29.835 154.734 30.0732 154.674 30.3037 154.553C30.5342 154.432 30.7217 154.25 30.8662 154.008C31.0146 153.766 31.0889 153.477 31.0889 153.141V149.426ZM36.8252 150.422H33.3447V149.426H36.8252V150.422ZM35.5361 147.902V153.92C35.5361 154.146 35.5693 154.32 35.6357 154.441C35.7021 154.562 35.79 154.646 35.8994 154.693C36.0088 154.74 36.1396 154.764 36.292 154.764C36.4795 154.764 36.6885 154.756 36.9189 154.74V155.818C36.6963 155.854 36.4385 155.871 36.1455 155.871C35.8057 155.871 35.4932 155.809 35.208 155.684C34.9268 155.555 34.7002 155.363 34.5283 155.109C34.3604 154.852 34.2764 154.539 34.2764 154.172V147.902H35.5361ZM38.0557 149.426H39.3037V155.789H38.0557V149.426ZM38.6768 148.441C38.5361 148.441 38.4053 148.41 38.2842 148.348C38.1631 148.281 38.0674 148.191 37.9971 148.078C37.9268 147.961 37.8916 147.836 37.8916 147.703C37.8916 147.566 37.9268 147.443 37.9971 147.334C38.0674 147.221 38.1631 147.131 38.2842 147.064C38.4053 146.998 38.5361 146.965 38.6768 146.965C38.8252 146.965 38.96 146.998 39.0811 147.064C39.2021 147.131 39.2959 147.221 39.3623 147.334C39.4326 147.443 39.4678 147.566 39.4678 147.703C39.4678 147.836 39.4326 147.961 39.3623 148.078C39.2959 148.191 39.2021 148.281 39.0811 148.348C38.96 148.41 38.8252 148.441 38.6768 148.441ZM43.5225 155.918C42.9287 155.918 42.4053 155.781 41.9521 155.508C41.5029 155.234 41.1553 154.85 40.9092 154.354C40.6631 153.857 40.54 153.285 40.54 152.637C40.54 151.98 40.6631 151.404 40.9092 150.908C41.1553 150.412 41.5029 150.027 41.9521 149.754C42.4053 149.48 42.9287 149.344 43.5225 149.344C44.1123 149.344 44.6318 149.48 45.0811 149.754C45.5303 150.027 45.876 150.412 46.1182 150.908C46.3604 151.404 46.4814 151.98 46.4814 152.637C46.4814 153.285 46.3604 153.857 46.1182 154.354C45.876 154.85 45.5303 155.234 45.0811 155.508C44.6318 155.781 44.1123 155.918 43.5225 155.918ZM43.5225 154.875C43.8975 154.875 44.2119 154.775 44.4658 154.576C44.7197 154.373 44.9092 154.104 45.0342 153.768C45.1592 153.428 45.2217 153.049 45.2217 152.631C45.2217 152.213 45.1592 151.834 45.0342 151.494C44.9092 151.154 44.7197 150.885 44.4658 150.686C44.2119 150.482 43.8975 150.381 43.5225 150.381C43.1475 150.381 42.8311 150.482 42.5732 150.686C42.3154 150.885 42.1221 151.154 41.9932 151.494C41.8643 151.834 41.7998 152.213 41.7998 152.631C41.7998 153.049 41.8643 153.428 41.9932 153.768C42.1221 154.104 42.3154 154.373 42.5732 154.576C42.8311 154.775 43.1475 154.875 43.5225 154.875ZM48.9834 155.789H47.7354V149.426H48.9307V150.463H49.0127C49.1689 150.107 49.4033 149.832 49.7158 149.637C50.0322 149.441 50.4248 149.344 50.8936 149.344C51.3311 149.344 51.71 149.436 52.0303 149.619C52.3545 149.799 52.6045 150.068 52.7803 150.428C52.96 150.787 53.0498 151.225 53.0498 151.74V155.789H51.8018V151.887C51.8018 151.582 51.749 151.32 51.6436 151.102C51.5381 150.883 51.3857 150.717 51.1865 150.604C50.9873 150.486 50.7451 150.428 50.46 150.428C50.1709 150.428 49.915 150.49 49.6924 150.615C49.4697 150.736 49.2959 150.918 49.1709 151.16C49.0459 151.398 48.9834 151.684 48.9834 152.016V155.789Z" fill="white"/>
<path d="M51.96 118.23H377.77" stroke="white" stroke-width="0.99" stroke-miterlimit="10" stroke-dasharray="5.67 5.67"/>
<path d="M333.97 0.0107422V0H248.1H131.33H64.8701V45H131.33H248.1H333.97L364.87 22.5L333.97 0.0107422Z" fill="#78DDAA"/>
<path d="M200.503 24.3264H202.881L204.874 26.9493L205.399 27.6487L208.372 31.6005H205.994L204.035 28.9776L203.546 28.3132L200.503 24.3264ZM209.106 20.9691C209.106 22.8576 208.765 24.4896 208.083 25.8652C207.401 27.2407 206.466 28.3015 205.277 29.0476C204.088 29.7936 202.73 30.1667 201.202 30.1667C199.675 30.1667 198.317 29.7936 197.128 29.0476C195.939 28.3015 195.004 27.2407 194.322 25.8652C193.64 24.4896 193.299 22.8576 193.299 20.9691C193.299 19.0807 193.64 17.4487 194.322 16.0731C195.004 14.6976 195.939 13.6368 197.128 12.8907C198.317 12.1446 199.675 11.7716 201.202 11.7716C202.73 11.7716 204.088 12.1446 205.277 12.8907C206.466 13.6368 207.401 14.6976 208.083 16.0731C208.765 17.4487 209.106 19.0807 209.106 20.9691ZM207.008 20.9691C207.008 19.4187 206.748 18.1102 206.23 17.0436C205.717 15.977 205.02 15.1697 204.14 14.6218C203.266 14.0739 202.287 13.8 201.202 13.8C200.118 13.8 199.136 14.0739 198.256 14.6218C197.382 15.1697 196.685 15.977 196.167 17.0436C195.654 18.1102 195.397 19.4187 195.397 20.9691C195.397 22.5196 195.654 23.8281 196.167 24.8947C196.685 25.9613 197.382 26.7686 198.256 27.3165C199.136 27.8644 200.118 28.1383 201.202 28.1383C202.287 28.1383 203.266 27.8644 204.14 27.3165C205.02 26.7686 205.717 25.9613 206.23 24.8947C206.748 23.8281 207.008 22.5196 207.008 20.9691Z" fill="white"/>
<path d="M333.97 136.408V136.398H248.1H131.33H64.8701V181.398H131.33H248.1H333.97L364.87 158.898L333.97 136.408Z" fill="#A786D1"/>
<path d="M134.183 160.131H136.561L138.554 162.754L139.079 163.453L142.051 167.405H139.673L137.715 164.782L137.225 164.118L134.183 160.131ZM142.786 156.774C142.786 158.662 142.445 160.294 141.763 161.67C141.081 163.045 140.145 164.106 138.956 164.852C137.767 165.598 136.409 165.971 134.882 165.971C133.355 165.971 131.997 165.598 130.808 164.852C129.619 164.106 128.683 163.045 128.001 161.67C127.32 160.294 126.979 158.662 126.979 156.774C126.979 154.885 127.32 153.253 128.001 151.878C128.683 150.502 129.619 149.441 130.808 148.695C131.997 147.949 133.355 147.576 134.882 147.576C136.409 147.576 137.767 147.949 138.956 148.695C140.145 149.441 141.081 150.502 141.763 151.878C142.445 153.253 142.786 154.885 142.786 156.774ZM140.687 156.774C140.687 155.223 140.428 153.915 139.909 152.848C139.396 151.782 138.7 150.974 137.82 150.426C136.945 149.879 135.966 149.605 134.882 149.605C133.798 149.605 132.816 149.879 131.936 150.426C131.062 150.974 130.365 151.782 129.846 152.848C129.333 153.915 129.077 155.223 129.077 156.774C129.077 158.324 129.333 159.633 129.846 160.699C130.365 161.766 131.062 162.573 131.936 163.121C132.816 163.669 133.798 163.943 134.882 163.943C135.966 163.943 136.945 163.669 137.82 163.121C138.7 162.573 139.396 161.766 139.909 160.699C140.428 159.633 140.687 158.324 140.687 156.774Z" fill="white"/>
<path d="M256.773 160.131H259.151L261.144 162.754L261.669 163.453L264.641 167.405H262.263L260.305 164.782L259.815 164.118L256.773 160.131ZM265.376 156.774C265.376 158.662 265.035 160.294 264.353 161.67C263.671 163.045 262.735 164.106 261.546 164.852C260.357 165.598 258.999 165.971 257.472 165.971C255.945 165.971 254.587 165.598 253.398 164.852C252.209 164.106 251.273 163.045 250.591 161.67C249.909 160.294 249.568 158.662 249.568 156.774C249.568 154.885 249.909 153.253 250.591 151.878C251.273 150.502 252.209 149.441 253.398 148.695C254.587 147.949 255.945 147.576 257.472 147.576C258.999 147.576 260.357 147.949 261.546 148.695C262.735 149.441 263.671 150.502 264.353 151.878C265.035 153.253 265.376 154.885 265.376 156.774ZM263.277 156.774C263.277 155.223 263.018 153.915 262.499 152.848C261.986 151.782 261.29 150.974 260.41 150.426C259.535 149.879 258.556 149.605 257.472 149.605C256.388 149.605 255.406 149.879 254.526 150.426C253.651 150.974 252.955 151.782 252.436 152.848C251.923 153.915 251.667 155.223 251.667 156.774C251.667 158.324 251.923 159.633 252.436 160.699C252.955 161.766 253.651 162.573 254.526 163.121C255.406 163.669 256.388 163.943 257.472 163.943C258.556 163.943 259.535 163.669 260.41 163.121C261.29 162.573 261.986 161.766 262.499 160.699C263.018 159.633 263.277 158.324 263.277 156.774ZM272.274 165.727L267.378 147.821H269.581L273.323 162.404H273.498L277.31 147.821H279.758L283.57 162.404H283.744L287.486 147.821H289.69L284.794 165.727H282.555L278.604 151.458H278.464L274.512 165.727H272.274Z" fill="white"/>
<path d="M334.1 55.0107V55H248.61H204.52V100H248.61H334.1L364.87 77.5L334.1 55.0107Z" fill="#57BAF7"/>
<path d="M262.491 85.5781L257.595 67.6727H259.798L263.54 82.2558H263.715L267.527 67.6727H269.975L273.787 82.2558H273.962L277.704 67.6727H279.907L275.011 85.5781H272.773L268.821 71.3097H268.681L264.729 85.5781H262.491Z" fill="white"/>
<path d="M203.85 181.4V178.57" stroke="white" stroke-width="0.99" stroke-miterlimit="10"/>
<path d="M203.85 173.34V123.68" stroke="white" stroke-width="0.99" stroke-miterlimit="10" stroke-dasharray="5.23 5.23"/>
<path d="M203.85 121.07V118.23" stroke="white" stroke-width="0.99" stroke-miterlimit="10"/>
</svg>
