<svg width="251" height="184" viewBox="0 0 251 184" fill="none" xmlns="http://www.w3.org/2000/svg">
<path d="M17.2305 3.68164H15.4023V2.78516H17.2305V3.68164ZM17.2305 5.76172H15.4023V4.83594H17.2305V5.76172ZM15.7363 7.10352H14.6289V1.49023H15.7363V7.10352ZM15.7949 8.44531H10.1348V11.4395H9.03906V7.625H15.7949V8.44531ZM16.0234 11.8613H9.03906V11.0527H16.0234V11.8613ZM15.6836 10.1152H9.77148V9.32422H15.6836V10.1152ZM10.4395 1.98828C10.9707 1.98047 11.4473 2.07812 11.8691 2.28125C12.291 2.48438 12.6191 2.76953 12.8535 3.13672C13.0918 3.5 13.2109 3.91602 13.2109 4.38477C13.2109 4.85352 13.0918 5.27148 12.8535 5.63867C12.6191 6.00586 12.291 6.29102 11.8691 6.49414C11.4473 6.69727 10.9707 6.79883 10.4395 6.79883C9.9043 6.79883 9.42773 6.69727 9.00977 6.49414C8.5918 6.29102 8.26172 6.00586 8.01953 5.63867C7.78125 5.27148 7.66211 4.85352 7.66211 4.38477C7.66211 3.91602 7.78125 3.5 8.01953 3.13672C8.26172 2.76953 8.5918 2.48438 9.00977 2.28125C9.42773 2.07812 9.9043 1.98047 10.4395 1.98828ZM10.4395 2.90234C10.1152 2.89844 9.82422 2.95898 9.56641 3.08398C9.3125 3.20898 9.11133 3.38477 8.96289 3.61133C8.81836 3.83398 8.74609 4.0918 8.74609 4.38477C8.74609 4.67383 8.81836 4.93359 8.96289 5.16406C9.11133 5.39062 9.3125 5.56641 9.56641 5.69141C9.82422 5.81641 10.1152 5.87891 10.4395 5.87891C10.7637 5.87891 11.0547 5.81641 11.3125 5.69141C11.5703 5.56641 11.7734 5.39062 11.9219 5.16406C12.0703 4.93359 12.1445 4.67383 12.1445 4.38477C12.1445 4.0918 12.0703 3.83398 11.9219 3.61133C11.7734 3.38477 11.5703 3.20898 11.3125 3.08398C11.0547 2.95898 10.7637 2.89844 10.4395 2.90234ZM27.4316 7.87109H17.8574V6.97461H27.4316V7.87109ZM26.3594 11.7852H19.0703V10.8652H26.3594V11.7852ZM20.1836 11.1523H19.0703V8.7207H20.1836V11.1523ZM22.6445 1.85352C23.3945 1.8457 24.0527 1.92578 24.6191 2.09375C25.1855 2.26172 25.6211 2.50586 25.9258 2.82617C26.2344 3.14258 26.3887 3.51758 26.3887 3.95117C26.3887 4.38867 26.2344 4.76562 25.9258 5.08203C25.6211 5.39844 25.1855 5.64258 24.6191 5.81445C24.0527 5.98633 23.3945 6.07227 22.6445 6.07227C21.8828 6.07227 21.2188 5.98633 20.6523 5.81445C20.0898 5.64258 19.6543 5.39844 19.3457 5.08203C19.0371 4.76562 18.8828 4.38867 18.8828 3.95117C18.8828 3.51758 19.0371 3.14258 19.3457 2.82617C19.6543 2.50586 20.0898 2.26172 20.6523 2.09375C21.2188 1.92578 21.8828 1.8457 22.6445 1.85352ZM22.6445 2.73242C22.1094 2.73242 21.6445 2.78125 21.25 2.87891C20.8594 2.97656 20.5586 3.11719 20.3477 3.30078C20.1406 3.48047 20.0371 3.69727 20.0371 3.95117C20.0371 4.20117 20.1406 4.41797 20.3477 4.60156C20.5586 4.78516 20.8594 4.92578 21.25 5.02344C21.6445 5.11719 22.1094 5.16406 22.6445 5.16406C23.1758 5.16406 23.6367 5.11719 24.0273 5.02344C24.4219 4.92578 24.7227 4.78516 24.9297 4.60156C25.1406 4.41797 25.2461 4.20117 25.2461 3.95117C25.2461 3.69727 25.1406 3.48047 24.9297 3.30078C24.7227 3.11719 24.4219 2.97656 24.0273 2.87891C23.6367 2.78125 23.1758 2.73242 22.6445 2.73242ZM39.8652 7.13281H38.7578V1.49023H39.8652V7.13281ZM34.0938 8.80859H38.7637V7.63672H39.8652V11.8613H32.9922V7.63672H34.0938V8.80859ZM38.7637 10.959V9.6875H34.0938V10.959H38.7637ZM34.1699 1.98242C34.7012 1.97461 35.1777 2.07422 35.5996 2.28125C36.0254 2.48438 36.3594 2.77344 36.6016 3.14844C36.8438 3.51953 36.9648 3.94336 36.9648 4.41992C36.9648 4.88477 36.8438 5.30273 36.6016 5.67383C36.3594 6.04102 36.0254 6.32812 35.5996 6.53516C35.1777 6.74219 34.7012 6.8457 34.1699 6.8457C33.6387 6.8457 33.1602 6.74219 32.7344 6.53516C32.3125 6.32812 31.9805 6.04102 31.7383 5.67383C31.4961 5.30273 31.375 4.88477 31.375 4.41992C31.375 3.94336 31.4961 3.51953 31.7383 3.14844C31.9805 2.77344 32.3125 2.48438 32.7344 2.28125C33.1602 2.07422 33.6387 1.97461 34.1699 1.98242ZM34.1699 2.91406C33.8418 2.90625 33.5469 2.9668 33.2852 3.0957C33.0273 3.22461 32.8262 3.4043 32.6816 3.63477C32.5371 3.86133 32.4648 4.12305 32.4648 4.41992C32.4648 4.71289 32.5371 4.97461 32.6816 5.20508C32.8262 5.43164 33.0273 5.60938 33.2852 5.73828C33.5469 5.86719 33.8418 5.93164 34.1699 5.93164C34.498 5.93164 34.791 5.86719 35.0488 5.73828C35.3066 5.60938 35.5078 5.43164 35.6523 5.20508C35.7969 4.97461 35.8691 4.71289 35.8691 4.41992C35.8691 4.12305 35.7949 3.86133 35.6465 3.63477C35.502 3.4043 35.3008 3.22461 35.043 3.0957C34.7891 2.9668 34.498 2.90625 34.1699 2.91406ZM42.7246 6.64062C43.8418 6.64062 44.6973 6.625 45.291 6.59375C45.8887 6.5625 46.4805 6.49219 47.0664 6.38281L47.1777 7.29102C46.5684 7.39258 45.9512 7.45898 45.3262 7.49023C44.7051 7.52148 43.8379 7.53711 42.7246 7.53711H41.9629V6.64062H42.7246ZM46.5332 5.18164H43.0703V7.19727H41.9629V4.34375H45.4258V3.01367H41.9453V2.12891H46.5332V5.18164ZM50.2832 7.95898H49.1699V1.50195H50.2832V7.95898ZM49.4102 3.92188H47.2012V3.02539H49.4102V3.92188ZM49.4102 6.125H47.2012V5.2168H49.4102V6.125ZM50.2832 12.0078H49.1699V9.38867H43.1523V8.49219H50.2832V12.0078Z" fill="white"/>
<path d="M162.57 2.19336C162.57 3.07617 162.367 3.86719 161.961 4.56641C161.555 5.26562 160.979 5.85547 160.232 6.33594C159.49 6.8125 158.602 7.17773 157.566 7.43164L157.104 6.53516C158.014 6.33203 158.789 6.04688 159.43 5.67969C160.07 5.30859 160.557 4.875 160.889 4.37891C161.225 3.88281 161.393 3.3457 161.393 2.76758V2.19336H162.57ZM162.025 3.10156H157.654V2.19336H162.025V3.10156ZM165.611 7.2207H164.492V1.50195H165.611V7.2207ZM165.781 8.65039H158.656V7.77148H165.781V8.65039ZM165.893 11.832H158.568V10.9297H165.893V11.832ZM161.152 11.3867H160.057V8.16406H161.152V11.3867ZM164.375 11.3867H163.279V8.16406H164.375V11.3867ZM176.861 7.87109H167.287V6.97461H176.861V7.87109ZM175.789 11.7852H168.5V10.8652H175.789V11.7852ZM169.613 11.1523H168.5V8.7207H169.613V11.1523ZM172.074 1.85352C172.824 1.8457 173.482 1.92578 174.049 2.09375C174.615 2.26172 175.051 2.50586 175.355 2.82617C175.664 3.14258 175.818 3.51758 175.818 3.95117C175.818 4.38867 175.664 4.76562 175.355 5.08203C175.051 5.39844 174.615 5.64258 174.049 5.81445C173.482 5.98633 172.824 6.07227 172.074 6.07227C171.312 6.07227 170.648 5.98633 170.082 5.81445C169.52 5.64258 169.084 5.39844 168.775 5.08203C168.467 4.76562 168.312 4.38867 168.312 3.95117C168.312 3.51758 168.467 3.14258 168.775 2.82617C169.084 2.50586 169.52 2.26172 170.082 2.09375C170.648 1.92578 171.312 1.8457 172.074 1.85352ZM172.074 2.73242C171.539 2.73242 171.074 2.78125 170.68 2.87891C170.289 2.97656 169.988 3.11719 169.777 3.30078C169.57 3.48047 169.467 3.69727 169.467 3.95117C169.467 4.20117 169.57 4.41797 169.777 4.60156C169.988 4.78516 170.289 4.92578 170.68 5.02344C171.074 5.11719 171.539 5.16406 172.074 5.16406C172.605 5.16406 173.066 5.11719 173.457 5.02344C173.852 4.92578 174.152 4.78516 174.359 4.60156C174.57 4.41797 174.676 4.20117 174.676 3.95117C174.676 3.69727 174.57 3.48047 174.359 3.30078C174.152 3.11719 173.852 2.97656 173.457 2.87891C173.066 2.78125 172.605 2.73242 172.074 2.73242ZM189.295 7.13281H188.188V1.49023H189.295V7.13281ZM183.523 8.80859H188.193V7.63672H189.295V11.8613H182.422V7.63672H183.523V8.80859ZM188.193 10.959V9.6875H183.523V10.959H188.193ZM183.6 1.98242C184.131 1.97461 184.607 2.07422 185.029 2.28125C185.455 2.48438 185.789 2.77344 186.031 3.14844C186.273 3.51953 186.395 3.94336 186.395 4.41992C186.395 4.88477 186.273 5.30273 186.031 5.67383C185.789 6.04102 185.455 6.32812 185.029 6.53516C184.607 6.74219 184.131 6.8457 183.6 6.8457C183.068 6.8457 182.59 6.74219 182.164 6.53516C181.742 6.32812 181.41 6.04102 181.168 5.67383C180.926 5.30273 180.805 4.88477 180.805 4.41992C180.805 3.94336 180.926 3.51953 181.168 3.14844C181.41 2.77344 181.742 2.48438 182.164 2.28125C182.59 2.07422 183.068 1.97461 183.6 1.98242ZM183.6 2.91406C183.271 2.90625 182.977 2.9668 182.715 3.0957C182.457 3.22461 182.256 3.4043 182.111 3.63477C181.967 3.86133 181.895 4.12305 181.895 4.41992C181.895 4.71289 181.967 4.97461 182.111 5.20508C182.256 5.43164 182.457 5.60938 182.715 5.73828C182.977 5.86719 183.271 5.93164 183.6 5.93164C183.928 5.93164 184.221 5.86719 184.479 5.73828C184.736 5.60938 184.938 5.43164 185.082 5.20508C185.227 4.97461 185.299 4.71289 185.299 4.41992C185.299 4.12305 185.225 3.86133 185.076 3.63477C184.932 3.4043 184.73 3.22461 184.473 3.0957C184.219 2.9668 183.928 2.90625 183.6 2.91406ZM192.154 6.64062C193.271 6.64062 194.127 6.625 194.721 6.59375C195.318 6.5625 195.91 6.49219 196.496 6.38281L196.607 7.29102C195.998 7.39258 195.381 7.45898 194.756 7.49023C194.135 7.52148 193.268 7.53711 192.154 7.53711H191.393V6.64062H192.154ZM195.963 5.18164H192.5V7.19727H191.393V4.34375H194.855V3.01367H191.375V2.12891H195.963V5.18164ZM199.713 7.95898H198.6V1.50195H199.713V7.95898ZM198.84 3.92188H196.631V3.02539H198.84V3.92188ZM198.84 6.125H196.631V5.2168H198.84V6.125ZM199.713 12.0078H198.6V9.38867H192.582V8.49219H199.713V12.0078Z" fill="white"/>
<path d="M109.13 101.844V145.714L139.899 168.334L170.659 145.714H170.67V101.844H109.13Z" fill="#78DDAA"/>
<path d="M0 35.0625V78.9326L30.7695 101.553L61.5391 78.9326V35.0625H0Z" fill="#78DDAA"/>
<path d="M188.829 101.844V145.714H188.84L219.609 168.334L250.369 145.714H250.38V101.844H188.829Z" fill="#57BAF7"/>
<path d="M26.012 67.4609H23.7389L30.3135 49.5555H32.5517L39.1264 67.4609H36.8532L31.5026 52.3882H31.3627L26.012 67.4609ZM26.8513 60.4666H36.0139V62.3901H26.8513V60.4666Z" fill="white"/>
<path d="M135.153 139.543H132.879L139.454 121.638H141.692L148.267 139.543H145.994L140.643 124.47H140.503L135.153 139.543ZM135.992 132.549H145.155V134.472H135.992V132.549Z" fill="white"/>
<path d="M214.077 139.543V121.638H220.337C221.585 121.638 222.613 121.853 223.424 122.284C224.234 122.71 224.837 123.284 225.233 124.007C225.63 124.724 225.828 125.519 225.828 126.394C225.828 127.163 225.691 127.798 225.417 128.3C225.149 128.801 224.793 129.197 224.35 129.489C223.913 129.78 223.438 129.996 222.925 130.136V130.31C223.473 130.345 224.024 130.538 224.578 130.887C225.131 131.237 225.595 131.738 225.968 132.391C226.341 133.044 226.527 133.843 226.527 134.787C226.527 135.684 226.323 136.492 225.915 137.209C225.507 137.926 224.863 138.494 223.983 138.913C223.103 139.333 221.958 139.543 220.547 139.543H214.077ZM216.246 137.62H220.547C221.964 137.62 222.969 137.346 223.563 136.798C224.164 136.244 224.464 135.574 224.464 134.787C224.464 134.181 224.31 133.621 224.001 133.108C223.692 132.589 223.252 132.176 222.68 131.867C222.109 131.552 221.433 131.395 220.652 131.395H216.246V137.62ZM216.246 129.506H220.267C220.92 129.506 221.509 129.378 222.033 129.121C222.564 128.865 222.984 128.504 223.292 128.037C223.607 127.571 223.765 127.023 223.765 126.394C223.765 125.607 223.491 124.939 222.943 124.392C222.395 123.838 221.526 123.561 220.337 123.561H216.246V129.506Z" fill="white"/>
<path d="M85.3291 183.381V180.551" stroke="white" stroke-width="0.99" stroke-miterlimit="10"/>
<path d="M85.3291 174.91V8.75" stroke="white" stroke-width="0.99" stroke-miterlimit="10" stroke-dasharray="5.63 5.63"/>
<path d="M85.3291 5.94141V3.10156" stroke="white" stroke-width="0.99" stroke-miterlimit="10"/>
</svg>
