<svg width="251" height="184" viewBox="0 0 251 184" fill="none" xmlns="http://www.w3.org/2000/svg">
<path d="M1.9668 2.51562H3.25586V9.89258H7.09375V11H1.9668V2.51562ZM8.3125 4.63672H9.56055V11H8.3125V4.63672ZM8.93359 3.65234C8.79297 3.65234 8.66211 3.62109 8.54102 3.55859C8.41992 3.49219 8.32422 3.40234 8.25391 3.28906C8.18359 3.17188 8.14844 3.04688 8.14844 2.91406C8.14844 2.77734 8.18359 2.6543 8.25391 2.54492C8.32422 2.43164 8.41992 2.3418 8.54102 2.27539C8.66211 2.20898 8.79297 2.17578 8.93359 2.17578C9.08203 2.17578 9.2168 2.20898 9.33789 2.27539C9.45898 2.3418 9.55273 2.43164 9.61914 2.54492C9.68945 2.6543 9.72461 2.77734 9.72461 2.91406C9.72461 3.04688 9.68945 3.17188 9.61914 3.28906C9.55273 3.40234 9.45898 3.49219 9.33789 3.55859C9.2168 3.62109 9.08203 3.65234 8.93359 3.65234ZM13.7559 13.5195C13.2285 13.5195 12.7617 13.4434 12.3555 13.291C11.9492 13.1426 11.627 12.9258 11.3887 12.6406C11.1543 12.3555 11.0195 12.0156 10.9844 11.6211H12.2559C12.3184 11.918 12.4805 12.1406 12.7422 12.2891C13.0078 12.4375 13.3516 12.5117 13.7734 12.5117C14.2891 12.5117 14.6875 12.3965 14.9688 12.166C15.25 11.9355 15.3906 11.5781 15.3906 11.0938V9.8457H15.3145C15.209 10.0371 15.0898 10.207 14.957 10.3555C14.8242 10.5 14.6328 10.6289 14.3828 10.7422C14.1328 10.8516 13.8281 10.9062 13.4688 10.9062C12.9648 10.9062 12.5098 10.7832 12.1035 10.5371C11.7012 10.291 11.3828 9.92969 11.1484 9.45312C10.918 8.97656 10.8027 8.4082 10.8027 7.74805C10.8027 7.08789 10.918 6.51758 11.1484 6.03711C11.3789 5.55273 11.6953 5.18555 12.0977 4.93555C12.5039 4.68164 12.9648 4.55469 13.4805 4.55469C13.8398 4.55469 14.1426 4.61328 14.3887 4.73047C14.6348 4.84766 14.8164 4.97461 14.9336 5.11133C15.0508 5.24805 15.1816 5.43164 15.3262 5.66211H15.4023V4.63672H16.6328V11.1406C16.6328 11.6641 16.5098 12.1035 16.2637 12.459C16.0176 12.8184 15.6797 13.084 15.25 13.2559C14.8203 13.4316 14.3223 13.5195 13.7559 13.5195ZM13.7441 9.86914C14.0957 9.86914 14.3965 9.78516 14.6465 9.61719C14.8965 9.44922 15.0859 9.21094 15.2148 8.90234C15.3438 8.58984 15.4082 8.21484 15.4082 7.77734C15.4082 7.34375 15.3438 6.96484 15.2148 6.64062C15.0859 6.3125 14.8965 6.06055 14.6465 5.88477C14.4004 5.70898 14.0996 5.62109 13.7441 5.62109C13.3887 5.62109 13.0859 5.71484 12.8359 5.90234C12.5859 6.08594 12.3965 6.3418 12.2676 6.66992C12.1387 6.99414 12.0742 7.36328 12.0742 7.77734C12.0742 8.19531 12.1387 8.5625 12.2676 8.87891C12.3965 9.19141 12.5859 9.43555 12.8359 9.61133C13.0859 9.7832 13.3887 9.86914 13.7441 9.86914ZM19.4043 11H18.1562V2.51562H19.3867V5.67383H19.4688C19.6211 5.31836 19.8516 5.04297 20.1602 4.84766C20.4727 4.65234 20.8691 4.55469 21.3496 4.55469C21.7949 4.55469 22.1797 4.64648 22.5039 4.83008C22.832 5.00977 23.084 5.2793 23.2598 5.63867C23.4395 5.99805 23.5293 6.43555 23.5293 6.95117V11H22.2812V7.09766C22.2812 6.79297 22.2266 6.53125 22.1172 6.3125C22.0078 6.08984 21.8516 5.92188 21.6484 5.80859C21.4453 5.69531 21.2031 5.63867 20.9219 5.63867C20.625 5.63867 20.3633 5.70117 20.1367 5.82617C19.9141 5.94727 19.7363 6.12891 19.6035 6.37109C19.4707 6.60938 19.4043 6.89453 19.4043 7.22656V11ZM28.0234 5.63281H24.543V4.63672H28.0234V5.63281ZM26.7344 3.11328V9.13086C26.7344 9.35742 26.7676 9.53125 26.834 9.65234C26.9004 9.77344 26.9883 9.85742 27.0977 9.9043C27.207 9.95117 27.3379 9.97461 27.4902 9.97461C27.6777 9.97461 27.8867 9.9668 28.1172 9.95117V11.0293C27.8945 11.0645 27.6367 11.082 27.3438 11.082C27.0039 11.082 26.6914 11.0195 26.4062 10.8945C26.125 10.7656 25.8984 10.5742 25.7266 10.3203C25.5586 10.0625 25.4746 9.75 25.4746 9.38281V3.11328H26.7344ZM32.2832 2.51562H35.3066C35.9473 2.51562 36.4883 2.63477 36.9297 2.87305C37.3711 3.10742 37.7012 3.43164 37.9199 3.8457C38.1426 4.25586 38.2539 4.73047 38.2539 5.26953C38.2539 5.80078 38.1426 6.27344 37.9199 6.6875C37.6973 7.10156 37.3652 7.42773 36.9238 7.66602C36.4824 7.9043 35.9414 8.02344 35.3008 8.02344H33.2148V6.92773H35.1777C35.584 6.92773 35.9199 6.85742 36.1855 6.7168C36.4512 6.57227 36.6445 6.37695 36.7656 6.13086C36.8906 5.88086 36.9531 5.59375 36.9531 5.26953C36.9531 4.9375 36.8906 4.64844 36.7656 4.40234C36.6445 4.15625 36.4492 3.96484 36.1797 3.82812C35.9141 3.69141 35.5781 3.62305 35.1719 3.62305H33.5723V11H32.2832V2.51562ZM39.5078 4.63672H40.7148V5.65625H40.7852C40.8984 5.30469 41.1016 5.03125 41.3945 4.83594C41.6875 4.63672 42.0176 4.53711 42.3848 4.53711C42.5801 4.53711 42.7598 4.54883 42.9238 4.57227V5.76758C42.873 5.74805 42.7812 5.73047 42.6484 5.71484C42.5156 5.69531 42.3887 5.68555 42.2676 5.68555C41.9863 5.68555 41.7305 5.74805 41.5 5.87305C41.2695 5.99414 41.0879 6.16406 40.9551 6.38281C40.8223 6.60156 40.7559 6.84766 40.7559 7.12109V11H39.5078V4.63672ZM46.3984 11.1289C45.7852 11.1289 45.248 10.9941 44.7871 10.7246C44.3301 10.4551 43.9785 10.0742 43.7324 9.58203C43.4863 9.08984 43.3633 8.51758 43.3633 7.86523C43.3633 7.21289 43.4863 6.63672 43.7324 6.13672C43.9785 5.63281 44.3242 5.24414 44.7695 4.9707C45.2148 4.69336 45.7285 4.55469 46.3105 4.55469C46.8262 4.55469 47.2969 4.66602 47.7227 4.88867C48.1484 5.10742 48.4902 5.45703 48.748 5.9375C49.0059 6.41406 49.1348 7.01758 49.1348 7.74805V8.1875H44.0664V7.25586H47.9102C47.9102 6.93164 47.8438 6.64453 47.7109 6.39453C47.582 6.14062 47.3965 5.94141 47.1543 5.79688C46.9121 5.65234 46.6348 5.58008 46.3223 5.58008C45.9824 5.58008 45.6836 5.66211 45.4258 5.82617C45.168 5.99023 44.9668 6.21094 44.8223 6.48828C44.6777 6.76562 44.6055 7.0625 44.6055 7.37891V8.10547C44.6055 8.52344 44.6797 8.88281 44.8281 9.18359C44.9805 9.48438 45.1914 9.71289 45.4609 9.86914C45.7344 10.0254 46.0488 10.1035 46.4043 10.1035C46.6309 10.1035 46.8359 10.0723 47.0195 10.0098C47.2031 9.94336 47.3594 9.86133 47.4883 9.76367C47.6172 9.66211 47.7168 9.54297 47.7871 9.40625H49.0586C48.9648 9.75 48.7969 10.0508 48.5547 10.3086C48.3125 10.5664 48.0059 10.7676 47.6348 10.9121C47.2676 11.0566 46.8555 11.1289 46.3984 11.1289ZM53.9395 6.37109C53.8809 6.10547 53.748 5.90039 53.541 5.75586C53.3379 5.61133 53.0684 5.53906 52.7324 5.53906C52.498 5.53906 52.2871 5.57617 52.0996 5.65039C51.916 5.7207 51.7695 5.82227 51.6602 5.95508C51.5547 6.08398 51.502 6.23047 51.502 6.39453C51.502 6.58203 51.584 6.74414 51.748 6.88086C51.9121 7.01758 52.1641 7.12305 52.5039 7.19727L53.5176 7.43164C54.1035 7.56445 54.541 7.77344 54.8301 8.05859C55.1191 8.33984 55.2637 8.70508 55.2637 9.1543C55.2637 9.53711 55.1582 9.87891 54.9473 10.1797C54.7402 10.4766 54.4414 10.709 54.0508 10.877C53.6602 11.0449 53.1953 11.1289 52.6562 11.1289C52.1523 11.1289 51.7168 11.0566 51.3496 10.9121C50.9824 10.7637 50.6895 10.5508 50.4707 10.2734C50.2559 9.99219 50.1211 9.65625 50.0664 9.26562H51.3496C51.4082 9.54688 51.5449 9.75977 51.7598 9.9043C51.9785 10.0488 52.2734 10.1211 52.6445 10.1211C52.9102 10.1211 53.1426 10.0879 53.3418 10.0215C53.5449 9.95117 53.7012 9.84961 53.8105 9.7168C53.9238 9.58398 53.9805 9.42969 53.9805 9.25391C53.9805 9.04688 53.9004 8.875 53.7402 8.73828C53.584 8.60156 53.3359 8.49805 52.9961 8.42773L52.0059 8.20508C51.4316 8.07617 50.9961 7.86328 50.6992 7.56641C50.4023 7.26953 50.2559 6.90234 50.2598 6.46484C50.2598 6.08984 50.3613 5.75781 50.5645 5.46875C50.7715 5.17969 51.0605 4.95508 51.4316 4.79492C51.8027 4.63477 52.2344 4.55469 52.7266 4.55469C53.1875 4.55469 53.5938 4.63086 53.9453 4.7832C54.2969 4.93164 54.5742 5.14258 54.7773 5.41602C54.9805 5.68945 55.0996 6.00781 55.1348 6.37109H53.9395ZM60.0684 6.37109C60.0098 6.10547 59.877 5.90039 59.6699 5.75586C59.4668 5.61133 59.1973 5.53906 58.8613 5.53906C58.627 5.53906 58.416 5.57617 58.2285 5.65039C58.0449 5.7207 57.8984 5.82227 57.7891 5.95508C57.6836 6.08398 57.6309 6.23047 57.6309 6.39453C57.6309 6.58203 57.7129 6.74414 57.877 6.88086C58.041 7.01758 58.293 7.12305 58.6328 7.19727L59.6465 7.43164C60.2324 7.56445 60.6699 7.77344 60.959 8.05859C61.248 8.33984 61.3926 8.70508 61.3926 9.1543C61.3926 9.53711 61.2871 9.87891 61.0762 10.1797C60.8691 10.4766 60.5703 10.709 60.1797 10.877C59.7891 11.0449 59.3242 11.1289 58.7852 11.1289C58.2812 11.1289 57.8457 11.0566 57.4785 10.9121C57.1113 10.7637 56.8184 10.5508 56.5996 10.2734C56.3848 9.99219 56.25 9.65625 56.1953 9.26562H57.4785C57.5371 9.54688 57.6738 9.75977 57.8887 9.9043C58.1074 10.0488 58.4023 10.1211 58.7734 10.1211C59.0391 10.1211 59.2715 10.0879 59.4707 10.0215C59.6738 9.95117 59.8301 9.84961 59.9395 9.7168C60.0527 9.58398 60.1094 9.42969 60.1094 9.25391C60.1094 9.04688 60.0293 8.875 59.8691 8.73828C59.7129 8.60156 59.4648 8.49805 59.125 8.42773L58.1348 8.20508C57.5605 8.07617 57.125 7.86328 56.8281 7.56641C56.5312 7.26953 56.3848 6.90234 56.3887 6.46484C56.3887 6.08984 56.4902 5.75781 56.6934 5.46875C56.9004 5.17969 57.1895 4.95508 57.5605 4.79492C57.9316 4.63477 58.3633 4.55469 58.8555 4.55469C59.3164 4.55469 59.7227 4.63086 60.0742 4.7832C60.4258 4.93164 60.7031 5.14258 60.9062 5.41602C61.1094 5.68945 61.2285 6.00781 61.2637 6.37109H60.0684Z" fill="white"/>
<path d="M152.047 11V9.86914H154.074C154.715 9.86914 155.248 9.74805 155.674 9.50586C156.1 9.26367 156.418 8.91211 156.629 8.45117C156.844 7.98633 156.951 7.41797 156.951 6.74609C156.951 6.08203 156.846 5.51953 156.635 5.05859C156.428 4.59375 156.115 4.24219 155.697 4.00391C155.283 3.76562 154.768 3.64648 154.15 3.64648H152V2.51562H154.227C155.059 2.51562 155.773 2.68359 156.371 3.01953C156.973 3.35547 157.432 3.8418 157.748 4.47852C158.068 5.11523 158.229 5.87109 158.229 6.74609C158.229 7.62891 158.066 8.38867 157.742 9.02539C157.422 9.66211 156.955 10.1504 156.342 10.4902C155.732 10.8301 155.002 11 154.15 11H152.047ZM152.686 11H151.396V2.51562H152.686V11ZM162.324 11.1289C161.711 11.1289 161.174 10.9941 160.713 10.7246C160.256 10.4551 159.904 10.0742 159.658 9.58203C159.412 9.08984 159.289 8.51758 159.289 7.86523C159.289 7.21289 159.412 6.63672 159.658 6.13672C159.904 5.63281 160.25 5.24414 160.695 4.9707C161.141 4.69336 161.654 4.55469 162.236 4.55469C162.752 4.55469 163.223 4.66602 163.648 4.88867C164.074 5.10742 164.416 5.45703 164.674 5.9375C164.932 6.41406 165.061 7.01758 165.061 7.74805V8.1875H159.992V7.25586H163.836C163.836 6.93164 163.77 6.64453 163.637 6.39453C163.508 6.14062 163.322 5.94141 163.08 5.79688C162.838 5.65234 162.561 5.58008 162.248 5.58008C161.908 5.58008 161.609 5.66211 161.352 5.82617C161.094 5.99023 160.893 6.21094 160.748 6.48828C160.604 6.76562 160.531 7.0625 160.531 7.37891V8.10547C160.531 8.52344 160.605 8.88281 160.754 9.18359C160.906 9.48438 161.117 9.71289 161.387 9.86914C161.66 10.0254 161.975 10.1035 162.33 10.1035C162.557 10.1035 162.762 10.0723 162.945 10.0098C163.129 9.94336 163.285 9.86133 163.414 9.76367C163.543 9.66211 163.643 9.54297 163.713 9.40625H164.984C164.891 9.75 164.723 10.0508 164.48 10.3086C164.238 10.5664 163.932 10.7676 163.561 10.9121C163.193 11.0566 162.781 11.1289 162.324 11.1289ZM169.039 11.1289C168.426 11.1289 167.889 10.9941 167.428 10.7246C166.971 10.4551 166.619 10.0742 166.373 9.58203C166.127 9.08984 166.004 8.51758 166.004 7.86523C166.004 7.21289 166.127 6.63672 166.373 6.13672C166.619 5.63281 166.965 5.24414 167.41 4.9707C167.855 4.69336 168.369 4.55469 168.951 4.55469C169.467 4.55469 169.938 4.66602 170.363 4.88867C170.789 5.10742 171.131 5.45703 171.389 5.9375C171.646 6.41406 171.775 7.01758 171.775 7.74805V8.1875H166.707V7.25586H170.551C170.551 6.93164 170.484 6.64453 170.352 6.39453C170.223 6.14062 170.037 5.94141 169.795 5.79688C169.553 5.65234 169.275 5.58008 168.963 5.58008C168.623 5.58008 168.324 5.66211 168.066 5.82617C167.809 5.99023 167.607 6.21094 167.463 6.48828C167.318 6.76562 167.246 7.0625 167.246 7.37891V8.10547C167.246 8.52344 167.32 8.88281 167.469 9.18359C167.621 9.48438 167.832 9.71289 168.102 9.86914C168.375 10.0254 168.689 10.1035 169.045 10.1035C169.271 10.1035 169.477 10.0723 169.66 10.0098C169.844 9.94336 170 9.86133 170.129 9.76367C170.258 9.66211 170.357 9.54297 170.428 9.40625H171.699C171.605 9.75 171.438 10.0508 171.195 10.3086C170.953 10.5664 170.646 10.7676 170.275 10.9121C169.908 11.0566 169.496 11.1289 169.039 11.1289ZM173.012 4.63672H174.225V5.66211H174.33C174.451 5.45508 174.574 5.27734 174.699 5.12891C174.824 4.98047 175.008 4.84766 175.25 4.73047C175.496 4.61328 175.801 4.55469 176.164 4.55469C176.676 4.55469 177.133 4.68555 177.535 4.94727C177.941 5.20508 178.258 5.58203 178.484 6.07812C178.711 6.57031 178.824 7.1543 178.824 7.83008C178.824 8.49805 178.711 9.08203 178.484 9.58203C178.262 10.0781 177.947 10.459 177.541 10.7246C177.139 10.9863 176.682 11.1172 176.17 11.1172C175.818 11.1172 175.518 11.0586 175.268 10.9414C175.021 10.8203 174.832 10.6855 174.699 10.5371C174.566 10.3887 174.443 10.2148 174.33 10.0156H174.26V13.3906H173.012V4.63672ZM174.23 7.8125C174.23 8.25781 174.295 8.65039 174.424 8.99023C174.553 9.32617 174.742 9.58789 174.992 9.77539C175.242 9.96289 175.543 10.0566 175.895 10.0566C176.25 10.0566 176.555 9.96094 176.809 9.76953C177.062 9.57422 177.252 9.30859 177.377 8.97266C177.502 8.63281 177.564 8.24609 177.564 7.8125C177.564 7.38672 177.502 7.00781 177.377 6.67578C177.252 6.34375 177.064 6.08594 176.814 5.90234C176.564 5.71484 176.258 5.62109 175.895 5.62109C175.539 5.62109 175.236 5.71094 174.986 5.89062C174.74 6.07031 174.553 6.32422 174.424 6.65234C174.295 6.98047 174.23 7.36719 174.23 7.8125ZM183.107 2.51562H186.131C186.771 2.51562 187.312 2.63477 187.754 2.87305C188.195 3.10742 188.525 3.43164 188.744 3.8457C188.967 4.25586 189.078 4.73047 189.078 5.26953C189.078 5.80078 188.967 6.27344 188.744 6.6875C188.521 7.10156 188.189 7.42773 187.748 7.66602C187.307 7.9043 186.766 8.02344 186.125 8.02344H184.039V6.92773H186.002C186.408 6.92773 186.744 6.85742 187.01 6.7168C187.275 6.57227 187.469 6.37695 187.59 6.13086C187.715 5.88086 187.777 5.59375 187.777 5.26953C187.777 4.9375 187.715 4.64844 187.59 4.40234C187.469 4.15625 187.273 3.96484 187.004 3.82812C186.738 3.69141 186.402 3.62305 185.996 3.62305H184.396V11H183.107V2.51562ZM190.332 4.63672H191.539V5.65625H191.609C191.723 5.30469 191.926 5.03125 192.219 4.83594C192.512 4.63672 192.842 4.53711 193.209 4.53711C193.404 4.53711 193.584 4.54883 193.748 4.57227V5.76758C193.697 5.74805 193.605 5.73047 193.473 5.71484C193.34 5.69531 193.213 5.68555 193.092 5.68555C192.811 5.68555 192.555 5.74805 192.324 5.87305C192.094 5.99414 191.912 6.16406 191.779 6.38281C191.646 6.60156 191.58 6.84766 191.58 7.12109V11H190.332V4.63672ZM197.223 11.1289C196.609 11.1289 196.072 10.9941 195.611 10.7246C195.154 10.4551 194.803 10.0742 194.557 9.58203C194.311 9.08984 194.188 8.51758 194.188 7.86523C194.188 7.21289 194.311 6.63672 194.557 6.13672C194.803 5.63281 195.148 5.24414 195.594 4.9707C196.039 4.69336 196.553 4.55469 197.135 4.55469C197.65 4.55469 198.121 4.66602 198.547 4.88867C198.973 5.10742 199.314 5.45703 199.572 5.9375C199.83 6.41406 199.959 7.01758 199.959 7.74805V8.1875H194.891V7.25586H198.734C198.734 6.93164 198.668 6.64453 198.535 6.39453C198.406 6.14062 198.221 5.94141 197.979 5.79688C197.736 5.65234 197.459 5.58008 197.146 5.58008C196.807 5.58008 196.508 5.66211 196.25 5.82617C195.992 5.99023 195.791 6.21094 195.646 6.48828C195.502 6.76562 195.43 7.0625 195.43 7.37891V8.10547C195.43 8.52344 195.504 8.88281 195.652 9.18359C195.805 9.48438 196.016 9.71289 196.285 9.86914C196.559 10.0254 196.873 10.1035 197.229 10.1035C197.455 10.1035 197.66 10.0723 197.844 10.0098C198.027 9.94336 198.184 9.86133 198.312 9.76367C198.441 9.66211 198.541 9.54297 198.611 9.40625H199.883C199.789 9.75 199.621 10.0508 199.379 10.3086C199.137 10.5664 198.83 10.7676 198.459 10.9121C198.092 11.0566 197.68 11.1289 197.223 11.1289ZM204.764 6.37109C204.705 6.10547 204.572 5.90039 204.365 5.75586C204.162 5.61133 203.893 5.53906 203.557 5.53906C203.322 5.53906 203.111 5.57617 202.924 5.65039C202.74 5.7207 202.594 5.82227 202.484 5.95508C202.379 6.08398 202.326 6.23047 202.326 6.39453C202.326 6.58203 202.408 6.74414 202.572 6.88086C202.736 7.01758 202.988 7.12305 203.328 7.19727L204.342 7.43164C204.928 7.56445 205.365 7.77344 205.654 8.05859C205.943 8.33984 206.088 8.70508 206.088 9.1543C206.088 9.53711 205.982 9.87891 205.771 10.1797C205.564 10.4766 205.266 10.709 204.875 10.877C204.484 11.0449 204.02 11.1289 203.48 11.1289C202.977 11.1289 202.541 11.0566 202.174 10.9121C201.807 10.7637 201.514 10.5508 201.295 10.2734C201.08 9.99219 200.945 9.65625 200.891 9.26562H202.174C202.232 9.54688 202.369 9.75977 202.584 9.9043C202.803 10.0488 203.098 10.1211 203.469 10.1211C203.734 10.1211 203.967 10.0879 204.166 10.0215C204.369 9.95117 204.525 9.84961 204.635 9.7168C204.748 9.58398 204.805 9.42969 204.805 9.25391C204.805 9.04688 204.725 8.875 204.564 8.73828C204.408 8.60156 204.16 8.49805 203.82 8.42773L202.83 8.20508C202.256 8.07617 201.82 7.86328 201.523 7.56641C201.227 7.26953 201.08 6.90234 201.084 6.46484C201.084 6.08984 201.186 5.75781 201.389 5.46875C201.596 5.17969 201.885 4.95508 202.256 4.79492C202.627 4.63477 203.059 4.55469 203.551 4.55469C204.012 4.55469 204.418 4.63086 204.77 4.7832C205.121 4.93164 205.398 5.14258 205.602 5.41602C205.805 5.68945 205.924 6.00781 205.959 6.37109H204.764ZM210.893 6.37109C210.834 6.10547 210.701 5.90039 210.494 5.75586C210.291 5.61133 210.021 5.53906 209.686 5.53906C209.451 5.53906 209.24 5.57617 209.053 5.65039C208.869 5.7207 208.723 5.82227 208.613 5.95508C208.508 6.08398 208.455 6.23047 208.455 6.39453C208.455 6.58203 208.537 6.74414 208.701 6.88086C208.865 7.01758 209.117 7.12305 209.457 7.19727L210.471 7.43164C211.057 7.56445 211.494 7.77344 211.783 8.05859C212.072 8.33984 212.217 8.70508 212.217 9.1543C212.217 9.53711 212.111 9.87891 211.9 10.1797C211.693 10.4766 211.395 10.709 211.004 10.877C210.613 11.0449 210.148 11.1289 209.609 11.1289C209.105 11.1289 208.67 11.0566 208.303 10.9121C207.936 10.7637 207.643 10.5508 207.424 10.2734C207.209 9.99219 207.074 9.65625 207.02 9.26562H208.303C208.361 9.54688 208.498 9.75977 208.713 9.9043C208.932 10.0488 209.227 10.1211 209.598 10.1211C209.863 10.1211 210.096 10.0879 210.295 10.0215C210.498 9.95117 210.654 9.84961 210.764 9.7168C210.877 9.58398 210.934 9.42969 210.934 9.25391C210.934 9.04688 210.854 8.875 210.693 8.73828C210.537 8.60156 210.289 8.49805 209.949 8.42773L208.959 8.20508C208.385 8.07617 207.949 7.86328 207.652 7.56641C207.355 7.26953 207.209 6.90234 207.213 6.46484C207.213 6.08984 207.314 5.75781 207.518 5.46875C207.725 5.17969 208.014 4.95508 208.385 4.79492C208.756 4.63477 209.188 4.55469 209.68 4.55469C210.141 4.55469 210.547 4.63086 210.898 4.7832C211.25 4.93164 211.527 5.14258 211.73 5.41602C211.934 5.68945 212.053 6.00781 212.088 6.37109H210.893Z" fill="white"/>
<path d="M109.13 101.844V145.714L139.899 168.334L170.659 145.714H170.67V101.844H109.13Z" fill="#78DDAA"/>
<path d="M0 35.0625V78.9326L30.7695 101.553L61.5391 78.9326V35.0625H0Z" fill="#78DDAA"/>
<path d="M188.829 101.844V145.714H188.84L219.609 168.334L250.369 145.714H250.38V101.844H188.829Z" fill="#57BAF7"/>
<path d="M26.012 67.4609H23.7389L30.3135 49.5555H32.5517L39.1264 67.4609H36.8532L31.5026 52.3882H31.3627L26.012 67.4609ZM26.8513 60.4666H36.0139V62.3901H26.8513V60.4666Z" fill="white"/>
<path d="M135.153 139.543H132.879L139.454 121.638H141.692L148.267 139.543H145.994L140.643 124.47H140.503L135.153 139.543ZM135.992 132.549H145.155V134.472H135.992V132.549Z" fill="white"/>
<path d="M214.077 139.543V121.638H220.337C221.585 121.638 222.613 121.853 223.424 122.284C224.234 122.71 224.837 123.284 225.233 124.007C225.63 124.724 225.828 125.519 225.828 126.394C225.828 127.163 225.691 127.798 225.417 128.3C225.149 128.801 224.793 129.197 224.35 129.489C223.913 129.78 223.438 129.996 222.925 130.136V130.31C223.473 130.345 224.024 130.538 224.578 130.887C225.131 131.237 225.595 131.738 225.968 132.391C226.341 133.044 226.527 133.843 226.527 134.787C226.527 135.684 226.323 136.492 225.915 137.209C225.507 137.926 224.863 138.494 223.983 138.913C223.103 139.333 221.958 139.543 220.547 139.543H214.077ZM216.246 137.62H220.547C221.964 137.62 222.969 137.346 223.563 136.798C224.164 136.244 224.464 135.574 224.464 134.787C224.464 134.181 224.31 133.621 224.001 133.108C223.692 132.589 223.252 132.176 222.68 131.867C222.109 131.552 221.433 131.395 220.652 131.395H216.246V137.62ZM216.246 129.506H220.267C220.92 129.506 221.509 129.378 222.033 129.121C222.564 128.865 222.984 128.504 223.292 128.037C223.607 127.571 223.765 127.023 223.765 126.394C223.765 125.607 223.491 124.939 222.943 124.392C222.395 123.838 221.526 123.561 220.337 123.561H216.246V129.506Z" fill="white"/>
<path d="M85.3291 183.381V180.551" stroke="white" stroke-width="0.99" stroke-miterlimit="10"/>
<path d="M85.3291 174.91V8.75" stroke="white" stroke-width="0.99" stroke-miterlimit="10" stroke-dasharray="5.63 5.63"/>
<path d="M85.3291 5.94141V3.10156" stroke="white" stroke-width="0.99" stroke-miterlimit="10"/>
</svg>
