<svg width="171" height="184" viewBox="0 0 171 184" fill="none" xmlns="http://www.w3.org/2000/svg">
<path d="M17.2314 3.68164H15.4033V2.78516H17.2314V3.68164ZM17.2314 5.76172H15.4033V4.83594H17.2314V5.76172ZM15.7373 7.10352H14.6299V1.49023H15.7373V7.10352ZM15.7959 8.44531H10.1357V11.4395H9.04004V7.625H15.7959V8.44531ZM16.0244 11.8613H9.04004V11.0527H16.0244V11.8613ZM15.6846 10.1152H9.77246V9.32422H15.6846V10.1152ZM10.4404 1.98828C10.9717 1.98047 11.4482 2.07812 11.8701 2.28125C12.292 2.48438 12.6201 2.76953 12.8545 3.13672C13.0928 3.5 13.2119 3.91602 13.2119 4.38477C13.2119 4.85352 13.0928 5.27148 12.8545 5.63867C12.6201 6.00586 12.292 6.29102 11.8701 6.49414C11.4482 6.69727 10.9717 6.79883 10.4404 6.79883C9.90527 6.79883 9.42871 6.69727 9.01074 6.49414C8.59277 6.29102 8.2627 6.00586 8.02051 5.63867C7.78223 5.27148 7.66309 4.85352 7.66309 4.38477C7.66309 3.91602 7.78223 3.5 8.02051 3.13672C8.2627 2.76953 8.59277 2.48438 9.01074 2.28125C9.42871 2.07812 9.90527 1.98047 10.4404 1.98828ZM10.4404 2.90234C10.1162 2.89844 9.8252 2.95898 9.56738 3.08398C9.31348 3.20898 9.1123 3.38477 8.96387 3.61133C8.81934 3.83398 8.74707 4.0918 8.74707 4.38477C8.74707 4.67383 8.81934 4.93359 8.96387 5.16406C9.1123 5.39062 9.31348 5.56641 9.56738 5.69141C9.8252 5.81641 10.1162 5.87891 10.4404 5.87891C10.7646 5.87891 11.0557 5.81641 11.3135 5.69141C11.5713 5.56641 11.7744 5.39062 11.9229 5.16406C12.0713 4.93359 12.1455 4.67383 12.1455 4.38477C12.1455 4.0918 12.0713 3.83398 11.9229 3.61133C11.7744 3.38477 11.5713 3.20898 11.3135 3.08398C11.0557 2.95898 10.7646 2.89844 10.4404 2.90234ZM27.4326 7.87109H17.8584V6.97461H27.4326V7.87109ZM26.3604 11.7852H19.0713V10.8652H26.3604V11.7852ZM20.1846 11.1523H19.0713V8.7207H20.1846V11.1523ZM22.6455 1.85352C23.3955 1.8457 24.0537 1.92578 24.6201 2.09375C25.1865 2.26172 25.6221 2.50586 25.9268 2.82617C26.2354 3.14258 26.3896 3.51758 26.3896 3.95117C26.3896 4.38867 26.2354 4.76562 25.9268 5.08203C25.6221 5.39844 25.1865 5.64258 24.6201 5.81445C24.0537 5.98633 23.3955 6.07227 22.6455 6.07227C21.8838 6.07227 21.2197 5.98633 20.6533 5.81445C20.0908 5.64258 19.6553 5.39844 19.3467 5.08203C19.0381 4.76562 18.8838 4.38867 18.8838 3.95117C18.8838 3.51758 19.0381 3.14258 19.3467 2.82617C19.6553 2.50586 20.0908 2.26172 20.6533 2.09375C21.2197 1.92578 21.8838 1.8457 22.6455 1.85352ZM22.6455 2.73242C22.1104 2.73242 21.6455 2.78125 21.251 2.87891C20.8604 2.97656 20.5596 3.11719 20.3486 3.30078C20.1416 3.48047 20.0381 3.69727 20.0381 3.95117C20.0381 4.20117 20.1416 4.41797 20.3486 4.60156C20.5596 4.78516 20.8604 4.92578 21.251 5.02344C21.6455 5.11719 22.1104 5.16406 22.6455 5.16406C23.1768 5.16406 23.6377 5.11719 24.0283 5.02344C24.4229 4.92578 24.7236 4.78516 24.9307 4.60156C25.1416 4.41797 25.2471 4.20117 25.2471 3.95117C25.2471 3.69727 25.1416 3.48047 24.9307 3.30078C24.7236 3.11719 24.4229 2.97656 24.0283 2.87891C23.6377 2.78125 23.1768 2.73242 22.6455 2.73242ZM39.8662 7.13281H38.7588V1.49023H39.8662V7.13281ZM34.0947 8.80859H38.7646V7.63672H39.8662V11.8613H32.9932V7.63672H34.0947V8.80859ZM38.7646 10.959V9.6875H34.0947V10.959H38.7646ZM34.1709 1.98242C34.7021 1.97461 35.1787 2.07422 35.6006 2.28125C36.0264 2.48438 36.3604 2.77344 36.6025 3.14844C36.8447 3.51953 36.9658 3.94336 36.9658 4.41992C36.9658 4.88477 36.8447 5.30273 36.6025 5.67383C36.3604 6.04102 36.0264 6.32812 35.6006 6.53516C35.1787 6.74219 34.7021 6.8457 34.1709 6.8457C33.6396 6.8457 33.1611 6.74219 32.7354 6.53516C32.3135 6.32812 31.9814 6.04102 31.7393 5.67383C31.4971 5.30273 31.376 4.88477 31.376 4.41992C31.376 3.94336 31.4971 3.51953 31.7393 3.14844C31.9814 2.77344 32.3135 2.48438 32.7354 2.28125C33.1611 2.07422 33.6396 1.97461 34.1709 1.98242ZM34.1709 2.91406C33.8428 2.90625 33.5479 2.9668 33.2861 3.0957C33.0283 3.22461 32.8271 3.4043 32.6826 3.63477C32.5381 3.86133 32.4658 4.12305 32.4658 4.41992C32.4658 4.71289 32.5381 4.97461 32.6826 5.20508C32.8271 5.43164 33.0283 5.60938 33.2861 5.73828C33.5479 5.86719 33.8428 5.93164 34.1709 5.93164C34.499 5.93164 34.792 5.86719 35.0498 5.73828C35.3076 5.60938 35.5088 5.43164 35.6533 5.20508C35.7979 4.97461 35.8701 4.71289 35.8701 4.41992C35.8701 4.12305 35.7959 3.86133 35.6475 3.63477C35.5029 3.4043 35.3018 3.22461 35.0439 3.0957C34.79 2.9668 34.499 2.90625 34.1709 2.91406ZM42.7256 6.64062C43.8428 6.64062 44.6982 6.625 45.292 6.59375C45.8896 6.5625 46.4814 6.49219 47.0674 6.38281L47.1787 7.29102C46.5693 7.39258 45.9521 7.45898 45.3271 7.49023C44.7061 7.52148 43.8389 7.53711 42.7256 7.53711H41.9639V6.64062H42.7256ZM46.5342 5.18164H43.0713V7.19727H41.9639V4.34375H45.4268V3.01367H41.9463V2.12891H46.5342V5.18164ZM50.2842 7.95898H49.1709V1.50195H50.2842V7.95898ZM49.4111 3.92188H47.2021V3.02539H49.4111V3.92188ZM49.4111 6.125H47.2021V5.2168H49.4111V6.125ZM50.2842 12.0078H49.1709V9.38867H43.1533V8.49219H50.2842V12.0078Z" fill="white"/>
<path d="M122.271 2.19336C122.271 3.07617 122.068 3.86719 121.662 4.56641C121.256 5.26562 120.68 5.85547 119.934 6.33594C119.191 6.8125 118.303 7.17773 117.268 7.43164L116.805 6.53516C117.715 6.33203 118.49 6.04688 119.131 5.67969C119.771 5.30859 120.258 4.875 120.59 4.37891C120.926 3.88281 121.094 3.3457 121.094 2.76758V2.19336H122.271ZM121.727 3.10156H117.355V2.19336H121.727V3.10156ZM125.312 7.2207H124.193V1.50195H125.312V7.2207ZM125.482 8.65039H118.357V7.77148H125.482V8.65039ZM125.594 11.832H118.27V10.9297H125.594V11.832ZM120.854 11.3867H119.758V8.16406H120.854V11.3867ZM124.076 11.3867H122.98V8.16406H124.076V11.3867ZM136.562 7.87109H126.988V6.97461H136.562V7.87109ZM135.49 11.7852H128.201V10.8652H135.49V11.7852ZM129.314 11.1523H128.201V8.7207H129.314V11.1523ZM131.775 1.85352C132.525 1.8457 133.184 1.92578 133.75 2.09375C134.316 2.26172 134.752 2.50586 135.057 2.82617C135.365 3.14258 135.52 3.51758 135.52 3.95117C135.52 4.38867 135.365 4.76562 135.057 5.08203C134.752 5.39844 134.316 5.64258 133.75 5.81445C133.184 5.98633 132.525 6.07227 131.775 6.07227C131.014 6.07227 130.35 5.98633 129.783 5.81445C129.221 5.64258 128.785 5.39844 128.477 5.08203C128.168 4.76562 128.014 4.38867 128.014 3.95117C128.014 3.51758 128.168 3.14258 128.477 2.82617C128.785 2.50586 129.221 2.26172 129.783 2.09375C130.35 1.92578 131.014 1.8457 131.775 1.85352ZM131.775 2.73242C131.24 2.73242 130.775 2.78125 130.381 2.87891C129.99 2.97656 129.689 3.11719 129.479 3.30078C129.271 3.48047 129.168 3.69727 129.168 3.95117C129.168 4.20117 129.271 4.41797 129.479 4.60156C129.689 4.78516 129.99 4.92578 130.381 5.02344C130.775 5.11719 131.24 5.16406 131.775 5.16406C132.307 5.16406 132.768 5.11719 133.158 5.02344C133.553 4.92578 133.854 4.78516 134.061 4.60156C134.271 4.41797 134.377 4.20117 134.377 3.95117C134.377 3.69727 134.271 3.48047 134.061 3.30078C133.854 3.11719 133.553 2.97656 133.158 2.87891C132.768 2.78125 132.307 2.73242 131.775 2.73242ZM148.996 7.13281H147.889V1.49023H148.996V7.13281ZM143.225 8.80859H147.895V7.63672H148.996V11.8613H142.123V7.63672H143.225V8.80859ZM147.895 10.959V9.6875H143.225V10.959H147.895ZM143.301 1.98242C143.832 1.97461 144.309 2.07422 144.73 2.28125C145.156 2.48438 145.49 2.77344 145.732 3.14844C145.975 3.51953 146.096 3.94336 146.096 4.41992C146.096 4.88477 145.975 5.30273 145.732 5.67383C145.49 6.04102 145.156 6.32812 144.73 6.53516C144.309 6.74219 143.832 6.8457 143.301 6.8457C142.77 6.8457 142.291 6.74219 141.865 6.53516C141.443 6.32812 141.111 6.04102 140.869 5.67383C140.627 5.30273 140.506 4.88477 140.506 4.41992C140.506 3.94336 140.627 3.51953 140.869 3.14844C141.111 2.77344 141.443 2.48438 141.865 2.28125C142.291 2.07422 142.77 1.97461 143.301 1.98242ZM143.301 2.91406C142.973 2.90625 142.678 2.9668 142.416 3.0957C142.158 3.22461 141.957 3.4043 141.812 3.63477C141.668 3.86133 141.596 4.12305 141.596 4.41992C141.596 4.71289 141.668 4.97461 141.812 5.20508C141.957 5.43164 142.158 5.60938 142.416 5.73828C142.678 5.86719 142.973 5.93164 143.301 5.93164C143.629 5.93164 143.922 5.86719 144.18 5.73828C144.438 5.60938 144.639 5.43164 144.783 5.20508C144.928 4.97461 145 4.71289 145 4.41992C145 4.12305 144.926 3.86133 144.777 3.63477C144.633 3.4043 144.432 3.22461 144.174 3.0957C143.92 2.9668 143.629 2.90625 143.301 2.91406ZM151.855 6.64062C152.973 6.64062 153.828 6.625 154.422 6.59375C155.02 6.5625 155.611 6.49219 156.197 6.38281L156.309 7.29102C155.699 7.39258 155.082 7.45898 154.457 7.49023C153.836 7.52148 152.969 7.53711 151.855 7.53711H151.094V6.64062H151.855ZM155.664 5.18164H152.201V7.19727H151.094V4.34375H154.557V3.01367H151.076V2.12891H155.664V5.18164ZM159.414 7.95898H158.301V1.50195H159.414V7.95898ZM158.541 3.92188H156.332V3.02539H158.541V3.92188ZM158.541 6.125H156.332V5.2168H158.541V6.125ZM159.414 12.0078H158.301V9.38867H152.283V8.49219H159.414V12.0078Z" fill="white"/>
<path d="M0 35.0508V78.8105L30.7705 101.381L61.54 78.8105V35.0508H0Z" fill="#78DDAA"/>
<path d="M109.131 107.219V147.819L139.9 168.769L170.66 147.819H170.67V107.219H109.131Z" fill="#57BAF7"/>
<path d="M26.013 67.4492H23.7398L30.3145 49.5438H32.5527L39.1273 67.4492H36.8542L31.5035 52.3765H31.3636L26.013 67.4492ZM26.8523 60.4549H36.0149V62.3783H26.8523V60.4549Z" fill="white"/>
<path d="M134.378 144.531V126.626H140.638C141.885 126.626 142.914 126.841 143.724 127.273C144.535 127.698 145.138 128.272 145.534 128.995C145.93 129.712 146.129 130.508 146.129 131.382C146.129 132.151 145.992 132.787 145.718 133.288C145.45 133.789 145.094 134.185 144.651 134.477C144.214 134.768 143.739 134.984 143.226 135.124V135.299C143.774 135.334 144.325 135.526 144.878 135.876C145.432 136.225 145.896 136.727 146.269 137.38C146.642 138.032 146.828 138.831 146.828 139.775C146.828 140.673 146.624 141.48 146.216 142.197C145.808 142.914 145.164 143.482 144.284 143.902C143.404 144.321 142.258 144.531 140.848 144.531H134.378ZM136.546 142.608H140.848C142.264 142.608 143.27 142.334 143.864 141.786C144.465 141.232 144.765 140.562 144.765 139.775C144.765 139.169 144.61 138.609 144.301 138.096C143.992 137.578 143.552 137.164 142.981 136.855C142.41 136.54 141.734 136.383 140.953 136.383H136.546V142.608ZM136.546 134.494H140.568C141.221 134.494 141.81 134.366 142.334 134.11C142.865 133.853 143.284 133.492 143.593 133.026C143.908 132.559 144.065 132.011 144.065 131.382C144.065 130.595 143.791 129.928 143.243 129.38C142.696 128.826 141.827 128.549 140.638 128.549H136.546V134.494Z" fill="white"/>
<path d="M85.3301 183.209V180.379" stroke="white" stroke-width="0.99" stroke-miterlimit="10"/>
<path d="M85.3301 174.752V8.74219" stroke="white" stroke-width="0.99" stroke-miterlimit="10" stroke-dasharray="5.63 5.63"/>
<path d="M85.3301 5.92969V3.08984" stroke="white" stroke-width="0.99" stroke-miterlimit="10"/>
</svg>
