<svg width="174" height="184" viewBox="0 0 174 184" fill="none" xmlns="http://www.w3.org/2000/svg">
<path d="M1.96777 2.51562H3.25684V9.89258H7.09473V11H1.96777V2.51562ZM8.31348 4.63672H9.56152V11H8.31348V4.63672ZM8.93457 3.65234C8.79395 3.65234 8.66309 3.62109 8.54199 3.55859C8.4209 3.49219 8.3252 3.40234 8.25488 3.28906C8.18457 3.17188 8.14941 3.04688 8.14941 2.91406C8.14941 2.77734 8.18457 2.6543 8.25488 2.54492C8.3252 2.43164 8.4209 2.3418 8.54199 2.27539C8.66309 2.20898 8.79395 2.17578 8.93457 2.17578C9.08301 2.17578 9.21777 2.20898 9.33887 2.27539C9.45996 2.3418 9.55371 2.43164 9.62012 2.54492C9.69043 2.6543 9.72559 2.77734 9.72559 2.91406C9.72559 3.04688 9.69043 3.17188 9.62012 3.28906C9.55371 3.40234 9.45996 3.49219 9.33887 3.55859C9.21777 3.62109 9.08301 3.65234 8.93457 3.65234ZM13.7568 13.5195C13.2295 13.5195 12.7627 13.4434 12.3564 13.291C11.9502 13.1426 11.6279 12.9258 11.3896 12.6406C11.1553 12.3555 11.0205 12.0156 10.9854 11.6211H12.2568C12.3193 11.918 12.4814 12.1406 12.7432 12.2891C13.0088 12.4375 13.3525 12.5117 13.7744 12.5117C14.29 12.5117 14.6885 12.3965 14.9697 12.166C15.251 11.9355 15.3916 11.5781 15.3916 11.0938V9.8457H15.3154C15.21 10.0371 15.0908 10.207 14.958 10.3555C14.8252 10.5 14.6338 10.6289 14.3838 10.7422C14.1338 10.8516 13.8291 10.9062 13.4697 10.9062C12.9658 10.9062 12.5107 10.7832 12.1045 10.5371C11.7021 10.291 11.3838 9.92969 11.1494 9.45312C10.9189 8.97656 10.8037 8.4082 10.8037 7.74805C10.8037 7.08789 10.9189 6.51758 11.1494 6.03711C11.3799 5.55273 11.6963 5.18555 12.0986 4.93555C12.5049 4.68164 12.9658 4.55469 13.4814 4.55469C13.8408 4.55469 14.1436 4.61328 14.3896 4.73047C14.6357 4.84766 14.8174 4.97461 14.9346 5.11133C15.0518 5.24805 15.1826 5.43164 15.3271 5.66211H15.4033V4.63672H16.6338V11.1406C16.6338 11.6641 16.5107 12.1035 16.2646 12.459C16.0186 12.8184 15.6807 13.084 15.251 13.2559C14.8213 13.4316 14.3232 13.5195 13.7568 13.5195ZM13.7451 9.86914C14.0967 9.86914 14.3975 9.78516 14.6475 9.61719C14.8975 9.44922 15.0869 9.21094 15.2158 8.90234C15.3447 8.58984 15.4092 8.21484 15.4092 7.77734C15.4092 7.34375 15.3447 6.96484 15.2158 6.64062C15.0869 6.3125 14.8975 6.06055 14.6475 5.88477C14.4014 5.70898 14.1006 5.62109 13.7451 5.62109C13.3896 5.62109 13.0869 5.71484 12.8369 5.90234C12.5869 6.08594 12.3975 6.3418 12.2686 6.66992C12.1396 6.99414 12.0752 7.36328 12.0752 7.77734C12.0752 8.19531 12.1396 8.5625 12.2686 8.87891C12.3975 9.19141 12.5869 9.43555 12.8369 9.61133C13.0869 9.7832 13.3896 9.86914 13.7451 9.86914ZM19.4053 11H18.1572V2.51562H19.3877V5.67383H19.4697C19.6221 5.31836 19.8525 5.04297 20.1611 4.84766C20.4736 4.65234 20.8701 4.55469 21.3506 4.55469C21.7959 4.55469 22.1807 4.64648 22.5049 4.83008C22.833 5.00977 23.085 5.2793 23.2607 5.63867C23.4404 5.99805 23.5303 6.43555 23.5303 6.95117V11H22.2822V7.09766C22.2822 6.79297 22.2275 6.53125 22.1182 6.3125C22.0088 6.08984 21.8525 5.92188 21.6494 5.80859C21.4463 5.69531 21.2041 5.63867 20.9229 5.63867C20.626 5.63867 20.3643 5.70117 20.1377 5.82617C19.915 5.94727 19.7373 6.12891 19.6045 6.37109C19.4717 6.60938 19.4053 6.89453 19.4053 7.22656V11ZM28.0244 5.63281H24.5439V4.63672H28.0244V5.63281ZM26.7354 3.11328V9.13086C26.7354 9.35742 26.7686 9.53125 26.835 9.65234C26.9014 9.77344 26.9893 9.85742 27.0986 9.9043C27.208 9.95117 27.3389 9.97461 27.4912 9.97461C27.6787 9.97461 27.8877 9.9668 28.1182 9.95117V11.0293C27.8955 11.0645 27.6377 11.082 27.3447 11.082C27.0049 11.082 26.6924 11.0195 26.4072 10.8945C26.126 10.7656 25.8994 10.5742 25.7275 10.3203C25.5596 10.0625 25.4756 9.75 25.4756 9.38281V3.11328H26.7354ZM32.2842 2.51562H35.3076C35.9482 2.51562 36.4893 2.63477 36.9307 2.87305C37.3721 3.10742 37.7021 3.43164 37.9209 3.8457C38.1436 4.25586 38.2549 4.73047 38.2549 5.26953C38.2549 5.80078 38.1436 6.27344 37.9209 6.6875C37.6982 7.10156 37.3662 7.42773 36.9248 7.66602C36.4834 7.9043 35.9424 8.02344 35.3018 8.02344H33.2158V6.92773H35.1787C35.585 6.92773 35.9209 6.85742 36.1865 6.7168C36.4521 6.57227 36.6455 6.37695 36.7666 6.13086C36.8916 5.88086 36.9541 5.59375 36.9541 5.26953C36.9541 4.9375 36.8916 4.64844 36.7666 4.40234C36.6455 4.15625 36.4502 3.96484 36.1807 3.82812C35.915 3.69141 35.5791 3.62305 35.1729 3.62305H33.5732V11H32.2842V2.51562ZM39.5088 4.63672H40.7158V5.65625H40.7861C40.8994 5.30469 41.1025 5.03125 41.3955 4.83594C41.6885 4.63672 42.0186 4.53711 42.3857 4.53711C42.5811 4.53711 42.7607 4.54883 42.9248 4.57227V5.76758C42.874 5.74805 42.7822 5.73047 42.6494 5.71484C42.5166 5.69531 42.3896 5.68555 42.2686 5.68555C41.9873 5.68555 41.7314 5.74805 41.501 5.87305C41.2705 5.99414 41.0889 6.16406 40.9561 6.38281C40.8232 6.60156 40.7568 6.84766 40.7568 7.12109V11H39.5088V4.63672ZM46.3994 11.1289C45.7861 11.1289 45.249 10.9941 44.7881 10.7246C44.3311 10.4551 43.9795 10.0742 43.7334 9.58203C43.4873 9.08984 43.3643 8.51758 43.3643 7.86523C43.3643 7.21289 43.4873 6.63672 43.7334 6.13672C43.9795 5.63281 44.3252 5.24414 44.7705 4.9707C45.2158 4.69336 45.7295 4.55469 46.3115 4.55469C46.8271 4.55469 47.2979 4.66602 47.7236 4.88867C48.1494 5.10742 48.4912 5.45703 48.749 5.9375C49.0068 6.41406 49.1357 7.01758 49.1357 7.74805V8.1875H44.0674V7.25586H47.9111C47.9111 6.93164 47.8447 6.64453 47.7119 6.39453C47.583 6.14062 47.3975 5.94141 47.1553 5.79688C46.9131 5.65234 46.6357 5.58008 46.3232 5.58008C45.9834 5.58008 45.6846 5.66211 45.4268 5.82617C45.1689 5.99023 44.9678 6.21094 44.8232 6.48828C44.6787 6.76562 44.6064 7.0625 44.6064 7.37891V8.10547C44.6064 8.52344 44.6807 8.88281 44.8291 9.18359C44.9814 9.48438 45.1924 9.71289 45.4619 9.86914C45.7354 10.0254 46.0498 10.1035 46.4053 10.1035C46.6318 10.1035 46.8369 10.0723 47.0205 10.0098C47.2041 9.94336 47.3604 9.86133 47.4893 9.76367C47.6182 9.66211 47.7178 9.54297 47.7881 9.40625H49.0596C48.9658 9.75 48.7979 10.0508 48.5557 10.3086C48.3135 10.5664 48.0068 10.7676 47.6357 10.9121C47.2686 11.0566 46.8564 11.1289 46.3994 11.1289ZM53.9404 6.37109C53.8818 6.10547 53.749 5.90039 53.542 5.75586C53.3389 5.61133 53.0693 5.53906 52.7334 5.53906C52.499 5.53906 52.2881 5.57617 52.1006 5.65039C51.917 5.7207 51.7705 5.82227 51.6611 5.95508C51.5557 6.08398 51.5029 6.23047 51.5029 6.39453C51.5029 6.58203 51.585 6.74414 51.749 6.88086C51.9131 7.01758 52.165 7.12305 52.5049 7.19727L53.5186 7.43164C54.1045 7.56445 54.542 7.77344 54.8311 8.05859C55.1201 8.33984 55.2646 8.70508 55.2646 9.1543C55.2646 9.53711 55.1592 9.87891 54.9482 10.1797C54.7412 10.4766 54.4424 10.709 54.0518 10.877C53.6611 11.0449 53.1963 11.1289 52.6572 11.1289C52.1533 11.1289 51.7178 11.0566 51.3506 10.9121C50.9834 10.7637 50.6904 10.5508 50.4717 10.2734C50.2568 9.99219 50.1221 9.65625 50.0674 9.26562H51.3506C51.4092 9.54688 51.5459 9.75977 51.7607 9.9043C51.9795 10.0488 52.2744 10.1211 52.6455 10.1211C52.9111 10.1211 53.1436 10.0879 53.3428 10.0215C53.5459 9.95117 53.7021 9.84961 53.8115 9.7168C53.9248 9.58398 53.9814 9.42969 53.9814 9.25391C53.9814 9.04688 53.9014 8.875 53.7412 8.73828C53.585 8.60156 53.3369 8.49805 52.9971 8.42773L52.0068 8.20508C51.4326 8.07617 50.9971 7.86328 50.7002 7.56641C50.4033 7.26953 50.2568 6.90234 50.2607 6.46484C50.2607 6.08984 50.3623 5.75781 50.5654 5.46875C50.7725 5.17969 51.0615 4.95508 51.4326 4.79492C51.8037 4.63477 52.2354 4.55469 52.7275 4.55469C53.1885 4.55469 53.5947 4.63086 53.9463 4.7832C54.2979 4.93164 54.5752 5.14258 54.7783 5.41602C54.9814 5.68945 55.1006 6.00781 55.1357 6.37109H53.9404ZM60.0693 6.37109C60.0107 6.10547 59.8779 5.90039 59.6709 5.75586C59.4678 5.61133 59.1982 5.53906 58.8623 5.53906C58.6279 5.53906 58.417 5.57617 58.2295 5.65039C58.0459 5.7207 57.8994 5.82227 57.79 5.95508C57.6846 6.08398 57.6318 6.23047 57.6318 6.39453C57.6318 6.58203 57.7139 6.74414 57.8779 6.88086C58.042 7.01758 58.2939 7.12305 58.6338 7.19727L59.6475 7.43164C60.2334 7.56445 60.6709 7.77344 60.96 8.05859C61.249 8.33984 61.3936 8.70508 61.3936 9.1543C61.3936 9.53711 61.2881 9.87891 61.0771 10.1797C60.8701 10.4766 60.5713 10.709 60.1807 10.877C59.79 11.0449 59.3252 11.1289 58.7861 11.1289C58.2822 11.1289 57.8467 11.0566 57.4795 10.9121C57.1123 10.7637 56.8193 10.5508 56.6006 10.2734C56.3857 9.99219 56.251 9.65625 56.1963 9.26562H57.4795C57.5381 9.54688 57.6748 9.75977 57.8896 9.9043C58.1084 10.0488 58.4033 10.1211 58.7744 10.1211C59.04 10.1211 59.2725 10.0879 59.4717 10.0215C59.6748 9.95117 59.8311 9.84961 59.9404 9.7168C60.0537 9.58398 60.1104 9.42969 60.1104 9.25391C60.1104 9.04688 60.0303 8.875 59.8701 8.73828C59.7139 8.60156 59.4658 8.49805 59.126 8.42773L58.1357 8.20508C57.5615 8.07617 57.126 7.86328 56.8291 7.56641C56.5322 7.26953 56.3857 6.90234 56.3896 6.46484C56.3896 6.08984 56.4912 5.75781 56.6943 5.46875C56.9014 5.17969 57.1904 4.95508 57.5615 4.79492C57.9326 4.63477 58.3643 4.55469 58.8564 4.55469C59.3174 4.55469 59.7236 4.63086 60.0752 4.7832C60.4268 4.93164 60.7041 5.14258 60.9072 5.41602C61.1104 5.68945 61.2295 6.00781 61.2646 6.37109H60.0693Z" fill="white"/>
<path d="M111.748 12V10.8691H113.775C114.416 10.8691 114.949 10.748 115.375 10.5059C115.801 10.2637 116.119 9.91211 116.33 9.45117C116.545 8.98633 116.652 8.41797 116.652 7.74609C116.652 7.08203 116.547 6.51953 116.336 6.05859C116.129 5.59375 115.816 5.24219 115.398 5.00391C114.984 4.76562 114.469 4.64648 113.852 4.64648H111.701V3.51562H113.928C114.76 3.51562 115.475 3.68359 116.072 4.01953C116.674 4.35547 117.133 4.8418 117.449 5.47852C117.77 6.11523 117.93 6.87109 117.93 7.74609C117.93 8.62891 117.768 9.38867 117.443 10.0254C117.123 10.6621 116.656 11.1504 116.043 11.4902C115.434 11.8301 114.703 12 113.852 12H111.748ZM112.387 12H111.098V3.51562H112.387V12ZM122.025 12.1289C121.412 12.1289 120.875 11.9941 120.414 11.7246C119.957 11.4551 119.605 11.0742 119.359 10.582C119.113 10.0898 118.99 9.51758 118.99 8.86523C118.99 8.21289 119.113 7.63672 119.359 7.13672C119.605 6.63281 119.951 6.24414 120.396 5.9707C120.842 5.69336 121.355 5.55469 121.938 5.55469C122.453 5.55469 122.924 5.66602 123.35 5.88867C123.775 6.10742 124.117 6.45703 124.375 6.9375C124.633 7.41406 124.762 8.01758 124.762 8.74805V9.1875H119.693V8.25586H123.537C123.537 7.93164 123.471 7.64453 123.338 7.39453C123.209 7.14062 123.023 6.94141 122.781 6.79688C122.539 6.65234 122.262 6.58008 121.949 6.58008C121.609 6.58008 121.311 6.66211 121.053 6.82617C120.795 6.99023 120.594 7.21094 120.449 7.48828C120.305 7.76562 120.232 8.0625 120.232 8.37891V9.10547C120.232 9.52344 120.307 9.88281 120.455 10.1836C120.607 10.4844 120.818 10.7129 121.088 10.8691C121.361 11.0254 121.676 11.1035 122.031 11.1035C122.258 11.1035 122.463 11.0723 122.646 11.0098C122.83 10.9434 122.986 10.8613 123.115 10.7637C123.244 10.6621 123.344 10.543 123.414 10.4062H124.686C124.592 10.75 124.424 11.0508 124.182 11.3086C123.939 11.5664 123.633 11.7676 123.262 11.9121C122.895 12.0566 122.482 12.1289 122.025 12.1289ZM128.74 12.1289C128.127 12.1289 127.59 11.9941 127.129 11.7246C126.672 11.4551 126.32 11.0742 126.074 10.582C125.828 10.0898 125.705 9.51758 125.705 8.86523C125.705 8.21289 125.828 7.63672 126.074 7.13672C126.32 6.63281 126.666 6.24414 127.111 5.9707C127.557 5.69336 128.07 5.55469 128.652 5.55469C129.168 5.55469 129.639 5.66602 130.064 5.88867C130.49 6.10742 130.832 6.45703 131.09 6.9375C131.348 7.41406 131.477 8.01758 131.477 8.74805V9.1875H126.408V8.25586H130.252C130.252 7.93164 130.186 7.64453 130.053 7.39453C129.924 7.14062 129.738 6.94141 129.496 6.79688C129.254 6.65234 128.977 6.58008 128.664 6.58008C128.324 6.58008 128.025 6.66211 127.768 6.82617C127.51 6.99023 127.309 7.21094 127.164 7.48828C127.02 7.76562 126.947 8.0625 126.947 8.37891V9.10547C126.947 9.52344 127.021 9.88281 127.17 10.1836C127.322 10.4844 127.533 10.7129 127.803 10.8691C128.076 11.0254 128.391 11.1035 128.746 11.1035C128.973 11.1035 129.178 11.0723 129.361 11.0098C129.545 10.9434 129.701 10.8613 129.83 10.7637C129.959 10.6621 130.059 10.543 130.129 10.4062H131.4C131.307 10.75 131.139 11.0508 130.896 11.3086C130.654 11.5664 130.348 11.7676 129.977 11.9121C129.609 12.0566 129.197 12.1289 128.74 12.1289ZM132.713 5.63672H133.926V6.66211H134.031C134.152 6.45508 134.275 6.27734 134.4 6.12891C134.525 5.98047 134.709 5.84766 134.951 5.73047C135.197 5.61328 135.502 5.55469 135.865 5.55469C136.377 5.55469 136.834 5.68555 137.236 5.94727C137.643 6.20508 137.959 6.58203 138.186 7.07812C138.412 7.57031 138.525 8.1543 138.525 8.83008C138.525 9.49805 138.412 10.082 138.186 10.582C137.963 11.0781 137.648 11.459 137.242 11.7246C136.84 11.9863 136.383 12.1172 135.871 12.1172C135.52 12.1172 135.219 12.0586 134.969 11.9414C134.723 11.8203 134.533 11.6855 134.4 11.5371C134.268 11.3887 134.145 11.2148 134.031 11.0156H133.961V14.3906H132.713V5.63672ZM133.932 8.8125C133.932 9.25781 133.996 9.65039 134.125 9.99023C134.254 10.3262 134.443 10.5879 134.693 10.7754C134.943 10.9629 135.244 11.0566 135.596 11.0566C135.951 11.0566 136.256 10.9609 136.51 10.7695C136.764 10.5742 136.953 10.3086 137.078 9.97266C137.203 9.63281 137.266 9.24609 137.266 8.8125C137.266 8.38672 137.203 8.00781 137.078 7.67578C136.953 7.34375 136.766 7.08594 136.516 6.90234C136.266 6.71484 135.959 6.62109 135.596 6.62109C135.24 6.62109 134.938 6.71094 134.688 6.89062C134.441 7.07031 134.254 7.32422 134.125 7.65234C133.996 7.98047 133.932 8.36719 133.932 8.8125ZM142.809 3.51562H145.832C146.473 3.51562 147.014 3.63477 147.455 3.87305C147.896 4.10742 148.227 4.43164 148.445 4.8457C148.668 5.25586 148.779 5.73047 148.779 6.26953C148.779 6.80078 148.668 7.27344 148.445 7.6875C148.223 8.10156 147.891 8.42773 147.449 8.66602C147.008 8.9043 146.467 9.02344 145.826 9.02344H143.74V7.92773H145.703C146.109 7.92773 146.445 7.85742 146.711 7.7168C146.977 7.57227 147.17 7.37695 147.291 7.13086C147.416 6.88086 147.479 6.59375 147.479 6.26953C147.479 5.9375 147.416 5.64844 147.291 5.40234C147.17 5.15625 146.975 4.96484 146.705 4.82812C146.439 4.69141 146.104 4.62305 145.697 4.62305H144.098V12H142.809V3.51562ZM150.033 5.63672H151.24V6.65625H151.311C151.424 6.30469 151.627 6.03125 151.92 5.83594C152.213 5.63672 152.543 5.53711 152.91 5.53711C153.105 5.53711 153.285 5.54883 153.449 5.57227V6.76758C153.398 6.74805 153.307 6.73047 153.174 6.71484C153.041 6.69531 152.914 6.68555 152.793 6.68555C152.512 6.68555 152.256 6.74805 152.025 6.87305C151.795 6.99414 151.613 7.16406 151.48 7.38281C151.348 7.60156 151.281 7.84766 151.281 8.12109V12H150.033V5.63672ZM156.924 12.1289C156.311 12.1289 155.773 11.9941 155.312 11.7246C154.855 11.4551 154.504 11.0742 154.258 10.582C154.012 10.0898 153.889 9.51758 153.889 8.86523C153.889 8.21289 154.012 7.63672 154.258 7.13672C154.504 6.63281 154.85 6.24414 155.295 5.9707C155.74 5.69336 156.254 5.55469 156.836 5.55469C157.352 5.55469 157.822 5.66602 158.248 5.88867C158.674 6.10742 159.016 6.45703 159.273 6.9375C159.531 7.41406 159.66 8.01758 159.66 8.74805V9.1875H154.592V8.25586H158.436C158.436 7.93164 158.369 7.64453 158.236 7.39453C158.107 7.14062 157.922 6.94141 157.68 6.79688C157.438 6.65234 157.16 6.58008 156.848 6.58008C156.508 6.58008 156.209 6.66211 155.951 6.82617C155.693 6.99023 155.492 7.21094 155.348 7.48828C155.203 7.76562 155.131 8.0625 155.131 8.37891V9.10547C155.131 9.52344 155.205 9.88281 155.354 10.1836C155.506 10.4844 155.717 10.7129 155.986 10.8691C156.26 11.0254 156.574 11.1035 156.93 11.1035C157.156 11.1035 157.361 11.0723 157.545 11.0098C157.729 10.9434 157.885 10.8613 158.014 10.7637C158.143 10.6621 158.242 10.543 158.312 10.4062H159.584C159.49 10.75 159.322 11.0508 159.08 11.3086C158.838 11.5664 158.531 11.7676 158.16 11.9121C157.793 12.0566 157.381 12.1289 156.924 12.1289ZM164.465 7.37109C164.406 7.10547 164.273 6.90039 164.066 6.75586C163.863 6.61133 163.594 6.53906 163.258 6.53906C163.023 6.53906 162.812 6.57617 162.625 6.65039C162.441 6.7207 162.295 6.82227 162.186 6.95508C162.08 7.08398 162.027 7.23047 162.027 7.39453C162.027 7.58203 162.109 7.74414 162.273 7.88086C162.438 8.01758 162.689 8.12305 163.029 8.19727L164.043 8.43164C164.629 8.56445 165.066 8.77344 165.355 9.05859C165.645 9.33984 165.789 9.70508 165.789 10.1543C165.789 10.5371 165.684 10.8789 165.473 11.1797C165.266 11.4766 164.967 11.709 164.576 11.877C164.186 12.0449 163.721 12.1289 163.182 12.1289C162.678 12.1289 162.242 12.0566 161.875 11.9121C161.508 11.7637 161.215 11.5508 160.996 11.2734C160.781 10.9922 160.646 10.6562 160.592 10.2656H161.875C161.934 10.5469 162.07 10.7598 162.285 10.9043C162.504 11.0488 162.799 11.1211 163.17 11.1211C163.436 11.1211 163.668 11.0879 163.867 11.0215C164.07 10.9512 164.227 10.8496 164.336 10.7168C164.449 10.584 164.506 10.4297 164.506 10.2539C164.506 10.0469 164.426 9.875 164.266 9.73828C164.109 9.60156 163.861 9.49805 163.521 9.42773L162.531 9.20508C161.957 9.07617 161.521 8.86328 161.225 8.56641C160.928 8.26953 160.781 7.90234 160.785 7.46484C160.785 7.08984 160.887 6.75781 161.09 6.46875C161.297 6.17969 161.586 5.95508 161.957 5.79492C162.328 5.63477 162.76 5.55469 163.252 5.55469C163.713 5.55469 164.119 5.63086 164.471 5.7832C164.822 5.93164 165.1 6.14258 165.303 6.41602C165.506 6.68945 165.625 7.00781 165.66 7.37109H164.465ZM170.594 7.37109C170.535 7.10547 170.402 6.90039 170.195 6.75586C169.992 6.61133 169.723 6.53906 169.387 6.53906C169.152 6.53906 168.941 6.57617 168.754 6.65039C168.57 6.7207 168.424 6.82227 168.314 6.95508C168.209 7.08398 168.156 7.23047 168.156 7.39453C168.156 7.58203 168.238 7.74414 168.402 7.88086C168.566 8.01758 168.818 8.12305 169.158 8.19727L170.172 8.43164C170.758 8.56445 171.195 8.77344 171.484 9.05859C171.773 9.33984 171.918 9.70508 171.918 10.1543C171.918 10.5371 171.812 10.8789 171.602 11.1797C171.395 11.4766 171.096 11.709 170.705 11.877C170.314 12.0449 169.85 12.1289 169.311 12.1289C168.807 12.1289 168.371 12.0566 168.004 11.9121C167.637 11.7637 167.344 11.5508 167.125 11.2734C166.91 10.9922 166.775 10.6562 166.721 10.2656H168.004C168.062 10.5469 168.199 10.7598 168.414 10.9043C168.633 11.0488 168.928 11.1211 169.299 11.1211C169.564 11.1211 169.797 11.0879 169.996 11.0215C170.199 10.9512 170.355 10.8496 170.465 10.7168C170.578 10.584 170.635 10.4297 170.635 10.2539C170.635 10.0469 170.555 9.875 170.395 9.73828C170.238 9.60156 169.99 9.49805 169.65 9.42773L168.66 9.20508C168.086 9.07617 167.65 8.86328 167.354 8.56641C167.057 8.26953 166.91 7.90234 166.914 7.46484C166.914 7.08984 167.016 6.75781 167.219 6.46875C167.426 6.17969 167.715 5.95508 168.086 5.79492C168.457 5.63477 168.889 5.55469 169.381 5.55469C169.842 5.55469 170.248 5.63086 170.6 5.7832C170.951 5.93164 171.229 6.14258 171.432 6.41602C171.635 6.68945 171.754 7.00781 171.789 7.37109H170.594Z" fill="white"/>
<path d="M0 35.0508V78.8105L30.7705 101.381L61.54 78.8105V35.0508H0Z" fill="#78DDAA"/>
<path d="M109.131 107.219V147.819L139.9 168.769L170.66 147.819H170.67V107.219H109.131Z" fill="#57BAF7"/>
<path d="M26.013 67.4492H23.7398L30.3145 49.5438H32.5527L39.1273 67.4492H36.8542L31.5035 52.3765H31.3636L26.013 67.4492ZM26.8523 60.4549H36.0149V62.3783H26.8523V60.4549Z" fill="white"/>
<path d="M134.378 144.531V126.626H140.638C141.885 126.626 142.914 126.841 143.724 127.273C144.535 127.698 145.138 128.272 145.534 128.995C145.93 129.712 146.129 130.508 146.129 131.382C146.129 132.151 145.992 132.787 145.718 133.288C145.45 133.789 145.094 134.185 144.651 134.477C144.214 134.768 143.739 134.984 143.226 135.124V135.299C143.774 135.334 144.325 135.526 144.878 135.876C145.432 136.225 145.896 136.727 146.269 137.38C146.642 138.032 146.828 138.831 146.828 139.775C146.828 140.673 146.624 141.48 146.216 142.197C145.808 142.914 145.164 143.482 144.284 143.902C143.404 144.321 142.258 144.531 140.848 144.531H134.378ZM136.546 142.608H140.848C142.264 142.608 143.27 142.334 143.864 141.786C144.465 141.232 144.765 140.562 144.765 139.775C144.765 139.169 144.61 138.609 144.301 138.096C143.992 137.578 143.552 137.164 142.981 136.855C142.41 136.54 141.734 136.383 140.953 136.383H136.546V142.608ZM136.546 134.494H140.568C141.221 134.494 141.81 134.366 142.334 134.11C142.865 133.853 143.284 133.492 143.593 133.026C143.908 132.559 144.065 132.011 144.065 131.382C144.065 130.595 143.791 129.928 143.243 129.38C142.696 128.826 141.827 128.549 140.638 128.549H136.546V134.494Z" fill="white"/>
<path d="M85.3301 183.209V180.379" stroke="white" stroke-width="0.99" stroke-miterlimit="10"/>
<path d="M85.3301 174.752V8.74219" stroke="white" stroke-width="0.99" stroke-miterlimit="10" stroke-dasharray="5.63 5.63"/>
<path d="M85.3301 5.92969V3.08984" stroke="white" stroke-width="0.99" stroke-miterlimit="10"/>
</svg>
